<?xml version="1.0" standalone="no"?>
<!DOCTYPE svg PUBLIC "-//W3C//DTD SVG 20010904//EN"
 "http://www.w3.org/TR/2001/REC-SVG-20010904/DTD/svg10.dtd">
<svg version="1.0" xmlns="http://www.w3.org/2000/svg"
 width="407.000000pt" height="588.000000pt" viewBox="0 0 407.000000 588.000000"
 preserveAspectRatio="xMidYMid meet">

<g transform="translate(0.000000,588.000000) scale(0.100000,-0.100000)"
fill="#000000" stroke="none">
<path d="M1018 5873 c563 -2 1481 -2 2040 0 559 1 99 2 -1023 2 -1122 0 -1580
-1 -1017 -2z"/>
<path d="M3070 5582 c-50 -40 -10 -120 53 -106 23 5 35 0 60 -22 l32 -29 -32
35 c-24 26 -30 39 -23 50 15 24 12 39 -15 65 -29 30 -45 31 -75 7z m68 -14 c7
-7 12 -21 12 -33 0 -12 -5 -26 -12 -33 -7 -7 -21 -12 -33 -12 -12 0 -26 5 -33
12 -7 7 -12 21 -12 33 0 12 5 26 12 33 7 7 21 12 33 12 12 0 26 -5 33 -12z"/>
<path d="M800 5573 c0 -18 32 -103 39 -103 9 0 42 102 36 108 -2 3 -9 -8 -15
-24 -6 -16 -13 -36 -16 -44 -4 -10 -11 -2 -20 24 -15 41 -24 56 -24 39z"/>
<path d="M956 5572 c-3 -5 1 -9 9 -9 8 0 12 4 9 9 -3 4 -7 8 -9 8 -2 0 -6 -4
-9 -8z"/>
<path d="M1130 5525 c0 -30 5 -55 10 -55 6 0 10 17 10 38 l0 37 20 -25 c11
-14 20 -22 20 -18 0 13 -42 78 -51 78 -5 0 -9 -25 -9 -55z"/>
<path d="M1198 5533 c-3 -27 -1 -52 4 -57 4 -6 8 16 8 47 0 69 -6 74 -12 10z"/>
<path d="M1320 5525 c0 -30 5 -55 10 -55 6 0 10 25 10 55 0 30 -4 55 -10 55
-5 0 -10 -25 -10 -55z"/>
<path d="M1466 5572 c-3 -5 1 -9 9 -9 8 0 12 4 9 9 -3 4 -7 8 -9 8 -2 0 -6 -4
-9 -8z"/>
<path d="M2130 5556 c0 -13 -6 -27 -12 -29 -10 -4 -10 -6 0 -6 6 -1 12 -12 12
-26 0 -19 5 -25 23 -25 31 0 47 18 47 55 0 37 -16 55 -47 55 -18 0 -23 -6 -23
-24z m58 -25 c2 -20 -2 -37 -10 -42 -22 -15 -38 -10 -38 11 0 11 6 20 13 21
10 0 10 2 0 6 -7 2 -13 14 -13 25 0 14 6 19 23 16 17 -2 23 -11 25 -37z"/>
<path d="M2680 5573 c0 -18 32 -103 39 -103 9 0 42 102 36 108 -2 3 -9 -8 -15
-24 -6 -16 -13 -36 -16 -44 -4 -10 -11 -2 -20 24 -15 41 -24 56 -24 39z"/>
<path d="M340 5560 c0 -6 37 -10 90 -10 53 0 90 4 90 10 0 6 -37 10 -90 10
-53 0 -90 -4 -90 -10z"/>
<path d="M2429 5558 c-3 -32 9 -88 19 -88 6 0 7 45 3 93 -1 12 -21 8 -22 -5z"/>
<path d="M3604 5543 l30 -33 -30 -32 -29 -33 33 29 32 30 33 -30 32 -29 -29
33 -30 32 30 33 29 32 -32 -29 -33 -30 -32 30 -33 29 29 -32z"/>
<path d="M903 5510 c0 -25 2 -35 4 -22 2 12 2 32 0 45 -2 12 -4 2 -4 -23z"/>
<path d="M940 5535 c-24 -29 14 -85 41 -58 9 9 7 11 -8 7 -13 -4 -22 0 -26 10
-5 12 0 16 23 16 32 0 37 9 18 28 -16 16 -33 15 -48 -3z m40 -5 c0 -5 -7 -10
-15 -10 -8 0 -15 5 -15 10 0 6 7 10 15 10 8 0 15 -4 15 -10z"/>
<path d="M1010 5510 c0 -22 5 -40 10 -40 6 0 10 18 10 40 0 22 -4 40 -10 40
-5 0 -10 -18 -10 -40z"/>
<path d="M1048 5543 c6 -2 12 -20 12 -39 0 -19 5 -34 10 -34 11 0 13 39 4 64
-3 9 -14 16 -23 15 -10 0 -11 -2 -3 -6z"/>
<path d="M1244 5536 c-12 -31 0 -61 24 -60 12 0 21 -4 19 -10 -2 -6 -14 -11
-26 -10 -13 0 -18 -3 -12 -9 5 -5 17 -7 27 -5 15 2 20 14 22 53 3 48 2 51 -23
53 -15 1 -28 -4 -31 -12z m41 -26 c0 -27 -22 -39 -31 -16 -8 22 3 49 19 43 6
-2 12 -14 12 -27z"/>
<path d="M1358 5543 c6 -2 12 -20 12 -39 0 -19 5 -34 10 -34 11 0 13 39 4 64
-3 9 -14 16 -23 15 -10 0 -11 -2 -3 -6z"/>
<path d="M1413 5510 c0 -25 2 -35 4 -22 2 12 2 32 0 45 -2 12 -4 2 -4 -23z"/>
<path d="M1450 5535 c-24 -29 14 -85 41 -58 9 9 7 11 -8 7 -13 -4 -22 0 -26
10 -5 12 0 16 23 16 32 0 37 9 18 28 -16 16 -33 15 -48 -3z m40 -5 c0 -5 -7
-10 -15 -10 -8 0 -15 5 -15 10 0 6 7 10 15 10 8 0 15 -4 15 -10z"/>
<path d="M1521 5506 l2 -41 6 35 c8 48 38 54 44 8 l4 -33 -1 35 c-1 31 -4 35
-28 36 -26 1 -28 -1 -27 -40z"/>
<path d="M1653 5543 c-22 -8 -16 -61 8 -68 12 -4 25 -3 30 2 6 6 1 9 -13 9
-14 -1 -24 6 -26 18 -6 28 14 42 34 25 15 -12 17 -12 12 1 -5 16 -25 22 -45
13z"/>
<path d="M1723 5515 c2 -36 5 -40 30 -41 23 -1 27 3 27 25 0 15 6 33 13 40 10
10 9 12 -3 9 -8 -2 -17 -16 -20 -33 -7 -42 -33 -39 -42 5 l-6 35 1 -40z"/>
<path d="M1810 5526 c0 -40 11 -56 36 -56 22 0 24 4 22 43 l-1 42 -4 -37 c-6
-51 -33 -53 -33 -3 0 19 -4 35 -10 35 -5 0 -10 -11 -10 -24z"/>
<path d="M1937 5532 c11 -48 16 -62 22 -62 9 0 32 72 26 78 -2 2 -7 -7 -11
-22 -8 -32 -17 -33 -30 -3 -6 12 -9 16 -7 9z"/>
<path d="M2016 5541 c-3 -5 3 -7 14 -4 27 7 25 -10 -2 -22 -34 -15 -29 -40 8
-42 30 -1 30 0 25 35 -6 36 -32 55 -45 33z m34 -40 c0 -14 -18 -23 -30 -16 -6
4 -8 11 -5 16 8 12 35 12 35 0z"/>
<path d="M2236 5541 c-3 -5 3 -7 14 -4 27 7 25 -10 -2 -22 -34 -15 -29 -40 8
-42 30 -1 30 0 25 35 -6 36 -32 55 -45 33z m34 -40 c0 -14 -18 -23 -30 -16 -6
4 -8 11 -5 16 8 12 35 12 35 0z"/>
<path d="M2310 5531 c-15 -29 4 -63 33 -59 18 2 22 10 22 38 0 28 -4 36 -22
38 -14 2 -26 -4 -33 -17z m45 -21 c0 -28 -29 -40 -38 -15 -9 22 3 46 22 43 10
-2 16 -13 16 -28z"/>
<path d="M2486 5541 c-4 -5 3 -7 14 -4 11 3 20 0 20 -6 0 -6 -6 -11 -13 -11
-7 0 -18 -5 -25 -12 -16 -16 3 -38 34 -38 25 0 26 11 8 68 -4 14 -30 16 -38 3z
m34 -46 c0 -8 -7 -15 -15 -15 -8 0 -15 7 -15 15 0 8 7 15 15 15 8 0 15 -7 15
-15z"/>
<path d="M2564 5536 c-11 -29 1 -61 23 -64 29 -4 48 30 33 58 -12 23 -48 27
-56 6z m44 -29 c2 -19 -1 -27 -13 -27 -19 0 -30 24 -21 46 9 23 31 11 34 -19z"/>
<path d="M2783 5510 c0 -25 2 -35 4 -22 2 12 2 32 0 45 -2 12 -4 2 -4 -23z"/>
<path d="M2822 5538 c-22 -22 -7 -68 21 -68 5 0 1 8 -9 18 -17 16 -17 17 1 21
14 2 15 5 4 12 -12 8 -12 11 1 19 8 5 10 10 5 10 -6 0 -16 -5 -23 -12z"/>
<path d="M340 5510 c0 -6 37 -10 90 -10 53 0 90 4 90 10 0 6 -37 10 -90 10
-53 0 -90 -4 -90 -10z"/>
<path d="M340 5460 c0 -6 37 -10 90 -10 53 0 90 4 90 10 0 6 -37 10 -90 10
-53 0 -90 -4 -90 -10z"/>
<path d="M830 5262 c0 -15 22 -30 36 -25 11 4 14 -8 14 -57 l0 -62 -42 4 c-24
3 -35 3 -26 1 10 -3 15 -10 11 -19 -3 -7 -9 -12 -13 -9 -5 3 -11 1 -15 -5 -3
-5 1 -10 9 -10 9 0 16 -8 16 -17 0 -15 -2 -16 -10 -3 -7 11 -10 11 -10 2 0 -7
-5 -10 -12 -6 -7 4 -8 3 -4 -4 7 -11 88 -9 150 3 23 5 27 3 22 -10 -3 -9 -6
-21 -6 -27 0 -6 -9 -3 -19 6 -42 38 -76 -5 -64 -80 l6 -35 46 7 c25 4 47 10
49 15 2 4 10 5 17 3 28 -11 33 6 18 66 -9 34 -14 62 -12 64 9 8 113 18 106 10
-4 -5 -18 -9 -30 -9 -22 0 -24 -12 -18 -107 1 -18 31 -26 31 -9 0 4 11 6 25 3
13 -2 33 -1 42 3 10 4 31 9 48 10 16 2 31 7 32 12 2 4 20 7 41 6 20 -1 49 0
65 3 25 5 27 9 27 54 0 29 -6 54 -15 63 -12 13 -9 16 25 25 22 5 40 7 40 3 0
-4 6 -8 13 -8 8 0 35 -15 61 -34 27 -19 60 -42 75 -51 14 -10 26 -23 26 -30 1
-7 6 -12 13 -10 7 1 12 -2 12 -8 0 -5 -4 -10 -9 -10 -5 0 -8 -11 -8 -24 0 -18
4 -23 16 -19 10 4 9 0 -6 -13 -16 -14 -19 -24 -13 -39 7 -17 9 -17 9 -2 1 17
21 25 21 8 0 -20 -13 -41 -21 -35 -5 3 -9 -1 -9 -10 0 -8 -3 -23 -6 -33 -5
-15 -4 -15 5 -3 7 10 11 11 11 3 0 -7 7 -13 16 -13 13 0 14 -3 4 -15 -10 -12
-9 -20 4 -40 9 -13 16 -30 16 -37 0 -10 -2 -10 -9 0 -4 8 -12 14 -17 14 -5 0
-8 4 -7 9 2 4 -7 14 -20 20 -21 12 -21 11 -7 -6 12 -16 8 -15 -25 5 -22 13
-61 38 -86 56 l-47 32 -116 -19 c-81 -14 -122 -17 -134 -10 -10 6 -12 11 -4
11 8 0 12 16 12 45 0 44 -1 45 -32 45 -48 0 -55 -9 -54 -70 l1 -55 -105 -17
c-184 -29 -170 -24 -170 -64 l0 -34 43 6 c62 9 252 39 412 65 l140 23 88 -58
c48 -32 87 -62 87 -67 0 -5 3 -8 8 -8 21 4 23 -3 9 -19 -15 -16 -15 -19 -2
-19 8 0 15 3 15 7 0 4 7 7 16 7 14 0 14 -2 -2 -14 -10 -7 -19 -21 -20 -31 -2
-15 -1 -15 12 2 17 24 19 8 3 -47 -6 -22 -7 -46 -3 -55 4 -10 6 -21 5 -26 -1
-4 4 -14 10 -22 9 -11 8 -19 -7 -35 -17 -19 -17 -20 2 -13 15 5 17 4 7 -6 -14
-15 -33 -5 -33 18 0 12 -3 13 -8 5 -5 -9 -31 2 -90 37 -45 28 -88 50 -95 50
-6 0 -144 -18 -304 -42 l-293 -42 0 -37 0 -36 123 18 c67 10 201 30 297 44
l176 27 120 -72 c119 -71 121 -73 118 -106 -1 -19 1 -32 6 -29 5 3 5 -7 1 -22
-4 -16 -7 -43 -6 -60 1 -18 -1 -33 -5 -33 -4 0 -10 -7 -14 -15 -3 -8 0 -14 7
-12 18 3 15 -26 -3 -30 -13 -4 -13 -3 0 6 13 9 13 11 -1 11 -9 0 -22 7 -29 15
-7 9 -15 13 -17 11 -3 -2 5 -15 16 -28 60 -67 61 -72 4 -37 -26 16 -31 24 -21
30 10 7 9 9 -5 9 -12 0 -16 4 -11 13 5 7 0 6 -11 -3 -17 -14 -18 -13 -12 4 6
16 3 18 -28 12 -27 -5 -41 -2 -64 15 -34 25 -17 26 -378 -21 l-263 -35 0 -33
c0 -28 3 -32 23 -28 12 3 146 22 298 42 l276 36 52 -26 51 -26 0 -55 c0 -42
-3 -55 -15 -55 -8 0 -15 7 -15 15 0 8 -4 15 -10 15 -17 0 -11 -18 12 -34 14
-10 18 -19 13 -24 -10 -9 -47 22 -42 36 1 4 -11 8 -28 9 -26 2 -27 1 -10 -7
16 -8 13 -9 -17 -7 -27 2 -34 0 -28 -8 6 -7 8 -15 5 -18 -3 -4 -2 -5 1 -3 3 3
16 -4 27 -15 12 -11 27 -17 35 -14 8 3 10 0 6 -6 -4 -6 0 -16 7 -21 11 -7 11
-11 1 -15 -6 -2 -10 -9 -6 -14 3 -5 2 -9 -3 -7 -4 1 -24 -2 -43 -7 -19 -5 -43
-8 -52 -6 -13 1 -16 -3 -12 -13 3 -9 5 -16 3 -16 -37 -1 -381 -49 -386 -53 -1
-2 14 -13 35 -25 l38 -21 192 25 c126 16 199 21 210 15 31 -17 53 -48 59 -86
5 -30 2 -41 -12 -51 -11 -8 -13 -14 -7 -14 7 0 12 -4 12 -9 0 -5 -9 -7 -20 -4
-11 3 -20 9 -20 14 0 5 -7 9 -15 9 -8 0 -15 6 -15 13 0 14 -97 44 -107 33 -4
-3 -1 -6 5 -6 13 0 42 -28 42 -40 0 -17 -41 -22 -58 -7 -26 22 -69 30 -69 12
0 -8 4 -12 8 -9 4 2 13 -2 21 -9 35 -35 57 -38 298 -36 132 1 240 5 240 10 0
5 8 9 18 9 14 0 15 2 2 10 -8 5 -10 10 -5 10 6 0 3 5 -5 10 -12 7 -12 10 -1
10 7 0 11 6 7 15 -3 8 -1 15 5 15 6 0 6 7 -1 19 -7 14 -6 21 2 23 8 3 6 7 -4
11 -13 4 -16 1 -13 -14 6 -28 -4 -49 -24 -49 -14 1 -14 2 1 14 24 18 23 29 -3
21 l-21 -7 21 21 c12 12 19 26 16 31 -3 5 3 15 14 22 16 10 18 15 8 27 -9 12
-9 13 1 7 10 -6 10 -2 0 18 -12 28 -3 50 11 27 6 -9 8 -4 7 15 -4 42 -16 75
-26 69 -10 -6 -7 51 3 61 4 4 7 17 8 28 0 20 1 20 9 -1 10 -26 40 -31 40 -8 0
18 -16 20 -24 3 -4 -7 -4 -3 -2 10 2 12 0 22 -6 22 -12 0 -6 53 7 62 6 5 5 8
-2 8 -19 0 -33 34 -21 51 8 11 9 10 4 -5 -6 -16 -4 -17 9 -6 8 7 15 18 15 26
0 20 -19 27 -35 14 -8 -7 -15 -10 -15 -6 0 3 15 15 33 26 17 11 27 20 20 20
-8 0 -11 11 -8 30 3 28 1 30 -18 26 -12 -3 -16 -3 -9 0 6 3 12 12 12 20 0 17
12 18 28 2 8 -8 15 -8 27 2 13 11 19 11 33 -3 9 -10 11 -17 5 -17 -7 0 -9 -13
-6 -35 3 -21 0 -35 -6 -35 -6 0 -8 -7 -5 -15 5 -13 9 -13 23 -3 14 11 14 11 4
-3 -7 -8 -10 -26 -7 -40 5 -19 3 -21 -5 -9 -9 13 -11 13 -11 0 0 -9 6 -22 12
-28 10 -10 10 -15 -2 -22 -13 -8 -13 -10 1 -10 9 0 19 -9 22 -20 4 -15 0 -20
-14 -20 -18 0 -19 -2 -4 -30 12 -23 13 -35 5 -50 -9 -16 -8 -18 5 -14 8 4 15
2 15 -4 0 -6 -6 -13 -12 -15 -10 -4 -10 -6 -1 -6 10 -1 10 -7 1 -26 -10 -21
-8 -28 8 -40 10 -8 14 -15 8 -15 -7 0 -14 -9 -17 -20 -3 -11 -1 -18 4 -14 5 3
9 0 9 -5 0 -6 -4 -11 -9 -11 -5 0 -12 -7 -15 -16 -3 -8 -2 -13 3 -10 5 3 9
-11 10 -32 1 -20 3 -61 5 -90 2 -29 -1 -55 -7 -59 -6 -3 -7 -1 -3 5 4 7 2 12
-4 12 -7 0 -10 -6 -8 -12 3 -9 31 -14 78 -16 59 -3 75 -1 82 12 6 11 21 15 46
15 34 -2 34 -2 7 -6 -48 -7 -54 -23 -8 -23 33 0 42 4 48 23 l8 22 4 -22 c4
-22 9 -23 104 -23 77 0 99 3 93 13 -6 10 -4 10 7 0 18 -18 29 -16 29 4 0 15 2
15 19 -1 21 -19 58 -17 53 3 -1 7 2 10 8 6 6 -3 8 -10 5 -16 -3 -5 17 -8 46
-7 l51 1 -35 32 c-19 17 -40 41 -46 53 -10 19 -9 22 8 22 11 0 23 -4 26 -10 9
-15 25 -12 25 6 0 8 -4 13 -9 9 -14 -8 -24 14 -13 28 16 19 18 73 3 91 -7 9
-10 16 -5 16 5 0 1 5 -8 11 -10 5 -18 15 -18 22 1 7 16 -6 36 -27 25 -29 31
-42 22 -47 -10 -6 -9 -11 4 -21 14 -11 34 -70 54 -158 3 -13 7 -26 8 -27 2 -2
91 -2 198 -1 l194 3 -247 150 c-204 124 -248 154 -249 173 0 27 21 29 44 3 10
-11 37 -29 59 -40 23 -12 85 -49 137 -82 52 -34 110 -71 128 -81 l32 -20 0 61
c0 60 0 61 19 42 28 -28 70 -8 72 34 2 49 9 7 17 -104 5 -69 11 -106 20 -109
9 -3 12 13 12 60 0 51 4 65 18 75 16 9 29 5 78 -26 90 -56 88 -55 80 -43 -4 7
-3 12 3 12 5 0 12 -8 14 -17 3 -10 4 -6 3 9 -1 19 -15 36 -46 59 -25 18 -52
33 -60 34 -9 0 -35 21 -58 47 -25 26 -153 118 -312 223 -219 145 -270 183
-270 201 0 25 -19 48 -53 65 -18 9 -17 6 6 -15 15 -15 27 -34 27 -43 0 -12 -6
-10 -25 9 -24 24 -43 88 -27 88 5 0 46 -35 92 -77 45 -43 113 -96 150 -119 37
-23 102 -67 146 -99 l79 -57 5 53 c4 46 7 50 19 36 18 -23 61 -22 62 1 1 17 3
29 9 47 2 6 8 -41 14 -104 7 -74 15 -116 24 -119 9 -3 12 14 12 61 0 86 14 92
92 37 32 -23 63 -38 68 -35 6 4 9 1 8 -6 -2 -6 3 -14 10 -16 15 -6 12 40 -3
54 -4 4 -5 2 -1 -4 4 -7 2 -13 -3 -13 -6 0 -11 5 -11 12 0 6 -6 19 -14 27 -10
11 -15 50 -17 126 -3 103 -14 145 -39 145 -3 0 -4 -49 -2 -110 5 -110 -2 -140
-32 -140 -8 0 -8 3 1 8 21 13 -53 99 -140 163 -386 282 -467 345 -467 364 0
20 -19 59 -20 40 0 -15 -20 18 -20 34 0 11 4 9 15 -5 14 -19 14 -18 15 4 0 12
5 22 10 22 6 0 10 -18 10 -40 0 -38 3 -42 93 -110 52 -38 97 -70 101 -70 4 0
5 43 3 96 -5 78 -9 99 -24 109 -10 7 -45 34 -78 59 -57 43 -60 44 -66 23 -3
-12 -3 -24 1 -27 3 -3 7 -20 8 -39 l3 -34 -21 25 c-14 18 -20 41 -20 76 0 42
-4 52 -25 66 -14 9 -23 21 -20 26 3 5 0 12 -6 16 -8 4 -9 3 -5 -4 14 -23 -10
-10 -54 28 l-45 40 -5 -37 c-5 -35 -6 -36 -22 -19 -11 10 -18 33 -18 54 0 20
-3 47 -6 60 -4 13 -2 22 5 22 6 0 11 -11 11 -25 0 -14 5 -25 10 -25 6 0 10 9
10 19 0 20 12 25 93 36 26 4 46 10 43 12 -3 3 -36 0 -75 -7 -63 -10 -73 -10
-101 6 -16 10 -30 21 -30 25 0 4 26 11 58 17 l57 10 -67 -5 c-54 -4 -73 -2
-95 12 -32 21 -21 29 50 40 27 3 47 9 44 12 -3 2 -36 0 -73 -6 -58 -9 -71 -8
-86 6 -16 15 -17 10 -20 -93 -3 -102 -4 -109 -24 -112 -18 -3 -21 1 -16 24 4
20 1 25 -9 22 -8 -3 -13 -15 -11 -27 3 -19 0 -22 -17 -16 -12 4 -21 2 -21 -4
0 -6 -7 -11 -15 -11 -8 0 -15 7 -15 15 0 8 6 12 14 9 16 -6 58 34 50 47 -3 5
2 6 10 3 13 -5 16 2 16 36 0 31 3 41 13 37 11 -4 14 7 14 44 1 27 -3 46 -8 43
-5 -3 -9 2 -9 10 0 9 8 16 18 17 9 0 52 6 96 13 78 13 78 13 108 -13 28 -23
29 -26 12 -32 -15 -6 -12 -8 12 -8 19 -1 39 -10 53 -25 l23 -24 -24 -5 c-16
-3 -13 -5 12 -6 39 -1 84 -27 75 -42 -4 -5 2 -9 13 -9 10 0 29 -11 41 -24 l23
-24 -24 -5 c-18 -4 -16 -5 7 -4 17 1 43 -7 59 -18 26 -17 27 -20 10 -26 -15
-6 -12 -8 12 -8 34 -1 75 -35 52 -44 -7 -3 -1 -6 13 -6 23 -1 59 -27 59 -44 0
-3 -15 -8 -32 -10 -19 -3 -15 -3 9 -2 40 2 83 -16 83 -35 0 -5 -17 -11 -37
-13 -21 -2 -15 -3 14 -1 39 2 55 -2 67 -15 9 -10 13 -21 9 -24 -3 -4 3 -7 14
-7 11 0 28 -9 37 -19 17 -19 17 -20 -6 -24 -15 -3 -10 -5 14 -6 26 -1 42 -7
50 -21 7 -11 18 -20 24 -20 6 0 19 -9 28 -19 17 -18 16 -19 -11 -24 -15 -3
-50 -9 -77 -12 -27 -4 -59 -13 -71 -21 -19 -13 -24 -13 -34 0 -9 11 -9 15 1
20 7 3 4 4 -8 1 -12 -3 -27 1 -34 10 -7 8 -10 15 -6 15 3 0 1 11 -4 24 -7 20
-6 26 8 29 12 3 11 5 -5 6 -18 1 -23 -4 -23 -24 0 -25 0 -26 -23 -9 -30 23
-26 71 7 77 15 3 12 5 -10 6 -30 1 -31 0 -31 -44 0 -24 4 -42 9 -39 4 3 8 2 8
-3 0 -4 3 -46 6 -93 6 -96 6 -95 122 -177 l59 -42 2 77 c4 114 3 112 18 100 7
-6 10 -15 6 -21 -4 -6 0 -8 10 -4 10 4 18 1 18 -6 1 -7 5 6 9 28 l7 40 2 -41
c1 -36 6 -44 44 -71 23 -17 64 -49 91 -71 27 -23 53 -39 56 -37 4 3 1 27 -6
55 -7 28 -14 88 -15 135 -1 72 -5 87 -23 102 l-21 18 19 -22 c11 -13 16 -23
12 -23 -13 0 -165 133 -161 140 3 4 -3 14 -13 21 -15 13 -16 12 -3 -3 28 -37
-3 -15 -128 90 -70 59 -184 152 -251 207 -68 55 -165 135 -216 178 l-93 79
-143 -22 c-79 -11 -206 -31 -283 -45 -243 -41 -237 -41 -287 -8 -23 15 -75 52
-114 81 -61 45 -76 52 -100 46 -22 -5 -26 -4 -18 5 11 12 340 45 356 35 4 -3
8 0 8 5 0 8 -140 11 -450 11 -247 0 -450 -4 -450 -8z m259 -79 c-13 -8 -16
-12 -7 -9 10 3 20 1 23 -4 4 -6 -3 -10 -14 -10 -24 0 -33 13 -25 33 3 9 13 13
26 9 20 -5 20 -5 -3 -19z m1202 -63 c10 -6 19 -14 19 -18 0 -14 -181 -36 -198
-25 -33 20 -21 30 50 40 102 14 107 14 129 3z m-993 -13 c-6 -8 -22 -11 -35
-9 -13 3 -23 -1 -23 -7 0 -7 -5 -9 -11 -5 -15 9 1 22 36 27 17 2 34 5 38 6 4
0 2 -5 -5 -12z m-96 -33 c-3 -17 -8 -22 -15 -15 -11 11 -3 41 11 41 5 0 7 -12
4 -26z m-62 0 c0 -8 -4 -12 -10 -9 -5 3 -10 10 -10 16 0 5 5 9 10 9 6 0 10 -7
10 -16z m887 -3 c0 -11 -8 -18 -17 -16 -8 1 -22 -3 -31 -8 -10 -6 -24 -7 -35
-2 -19 9 -25 10 -54 15 -15 2 88 27 122 29 11 1 16 -6 15 -18z m33 15 c0 -3
-4 -8 -10 -11 -5 -3 -10 -1 -10 4 0 6 5 11 10 11 6 0 10 -2 10 -4z m-893 -292
c-3 -3 -12 -4 -19 -1 -8 3 -5 6 6 6 11 1 17 -2 13 -5z m1130 -46 c0 -10 -4
-18 -9 -18 -5 0 -6 -5 -2 -12 4 -7 3 -8 -4 -4 -7 4 -12 26 -12 49 0 38 1 40
14 22 7 -11 13 -28 13 -37z m113 -99 c0 -47 -10 -49 -44 -8 -14 17 -26 27 -26
22 0 -4 -7 1 -15 11 -8 11 -15 37 -15 59 l0 39 50 -42 c44 -37 50 -46 50 -81z
m-70 -20 c0 -6 -4 -7 -10 -4 -5 3 -10 11 -10 16 0 6 5 7 10 4 6 -3 10 -11 10
-16z m37 -35 c-9 -9 -28 6 -21 18 4 6 10 6 17 -1 6 -6 8 -13 4 -17z m-37 -15
c0 -18 -2 -20 -15 -9 -13 11 -13 15 -3 21 18 12 18 12 18 -12z m137 -11 c-3
-8 -6 -5 -6 6 -1 11 2 17 5 13 3 -3 4 -12 1 -19z m-317 0 c1 -7 3 -30 6 -50 3
-22 1 -38 -4 -38 -6 0 -12 23 -14 50 -1 28 0 50 5 50 4 0 7 -6 7 -12z m220
-25 c0 -13 -3 -13 -15 -3 -8 7 -12 16 -9 21 8 13 24 1 24 -18z m-300 -26 c0
-18 -5 -39 -10 -47 -7 -11 -10 0 -10 38 0 33 4 51 10 47 6 -3 10 -21 10 -38z
m260 -13 c0 -19 -4 -34 -9 -34 -10 0 -23 58 -15 71 11 18 24 -2 24 -37z m40
-27 c0 -10 -4 -15 -10 -12 -5 3 -10 18 -10 33 0 21 2 24 10 12 5 -8 10 -23 10
-33z m100 33 c0 -5 -2 -10 -4 -10 -3 0 -8 5 -11 10 -3 6 -1 10 4 10 6 0 11 -4
11 -10z m-83 -82 c-2 -13 -4 -5 -4 17 -1 22 1 32 4 23 2 -10 2 -28 0 -40z m83
32 c0 -5 -4 -10 -10 -10 -5 0 -10 5 -10 10 0 6 5 10 10 10 6 0 10 -4 10 -10z
m-583 -6 c-3 -3 -12 -4 -19 -1 -8 3 -5 6 6 6 11 1 17 -2 13 -5z m443 -4 c0 -5
-2 -10 -4 -10 -3 0 -8 5 -11 10 -3 6 -1 10 4 10 6 0 11 -4 11 -10z m184 -30
c14 -22 22 -40 18 -40 -5 0 -7 -11 -4 -25 2 -14 8 -22 13 -20 10 7 49 -76 49
-106 0 -20 -3 -19 -35 14 -19 20 -35 41 -35 47 0 6 -4 9 -9 5 -6 -3 -15 4 -21
15 -6 11 -17 20 -25 20 -8 0 -15 7 -15 15 0 8 -7 15 -15 15 -8 0 -15 5 -15 10
0 6 -7 10 -15 10 -8 0 -15 5 -15 11 0 5 5 7 10 4 6 -4 10 8 11 27 1 18 3 26 6
16 2 -9 11 -19 20 -22 11 -5 14 -2 9 10 -4 10 -1 14 6 12 7 -3 15 -18 17 -34
3 -25 4 -26 11 -9 8 19 8 19 17 -4 6 -14 12 -20 16 -14 10 16 -3 43 -19 43 -8
0 -14 9 -14 20 0 28 4 26 34 -20z m-609 0 c3 -6 -1 -7 -9 -4 -18 7 -21 14 -7
14 6 0 13 -4 16 -10z m425 -7 c0 -10 3 -29 6 -43 5 -18 4 -22 -4 -15 -17 15
-27 75 -13 75 6 0 11 -8 11 -17z m810 -5 c0 -13 3 -46 6 -74 6 -49 5 -51 -20
-56 -15 -3 -31 0 -37 8 -9 11 -8 14 5 14 11 0 14 -5 10 -12 -5 -7 -3 -8 6 -3
10 6 8 13 -11 27 -13 11 -31 25 -41 33 -9 7 -19 11 -22 8 -3 -4 -6 10 -6 30 0
33 3 36 33 40 73 9 77 8 77 -15z m-1239 -93 c3 -80 3 -80 -40 -80 -34 0 -41 3
-46 25 -13 47 -13 57 -5 70 9 14 30 5 30 -13 0 -8 -3 -7 -9 2 -6 9 -8 4 -7
-17 1 -17 5 -34 9 -39 5 -4 5 1 1 10 -8 21 15 20 32 -2 9 -11 11 -7 9 19 -2
27 15 84 22 76 1 -1 3 -24 4 -51z m-34 5 c0 -17 -4 -26 -7 -19 -4 6 -10 7 -12
3 -3 -5 -3 -2 0 6 2 8 5 21 5 28 1 27 14 10 14 -18z m574 -3 c0 -12 3 -16 6
-9 7 18 21 15 28 -8 4 -11 10 -18 14 -16 13 8 98 -87 110 -123 6 -19 10 -36 8
-38 -2 -2 -32 26 -65 62 -34 36 -62 62 -62 58 0 -4 -5 -2 -11 4 -6 6 -17 10
-23 9 -6 -2 -8 -1 -3 1 12 8 8 31 -8 37 -8 3 -15 17 -15 31 0 31 20 24 21 -8z
m634 3 c3 -5 1 -10 -4 -10 -6 0 -11 5 -11 10 0 6 2 10 4 10 3 0 8 -4 11 -10z
m-735 -50 c0 -5 -2 -10 -4 -10 -3 0 -8 5 -11 10 -3 6 -1 10 4 10 6 0 11 -4 11
-10z m-470 -50 c0 -5 -4 -10 -10 -10 -5 0 -10 5 -10 10 0 6 5 10 10 10 6 0 10
-4 10 -10z m288 -25 c2 -17 -1 -42 -7 -55 -8 -22 -10 -18 -10 25 l-1 51 -35
-4 c-34 -4 -35 -5 -35 -47 0 -42 2 -44 33 -48 26 -4 24 -4 -8 -3 l-40 1 0 50
c0 49 1 50 35 56 55 10 65 6 68 -26z m280 10 c-3 -3 -9 2 -12 12 -6 14 -5 15
5 6 7 -7 10 -15 7 -18z m-111 -67 c-3 -7 -5 -2 -5 12 0 14 2 19 5 13 2 -7 2
-19 0 -25z m152 5 c26 -26 38 -63 20 -63 -12 0 -49 51 -44 60 3 5 0 12 -6 16
-7 4 -9 3 -5 -4 3 -6 3 -13 -2 -16 -4 -2 -9 4 -9 15 -2 26 12 24 46 -8z m-41
-89 c-3 -34 -4 -34 -23 -19 -11 9 -14 14 -7 10 9 -4 12 6 12 37 1 34 3 39 11
25 6 -9 9 -33 7 -53z m-41 14 c-3 -7 -5 -2 -5 12 0 14 2 19 5 13 2 -7 2 -19 0
-25z m149 -54 c7 -14 7 -31 -1 -54 l-11 -33 -20 24 c-10 14 -27 28 -36 32 -14
5 -18 18 -18 63 l0 56 38 -33 c21 -19 43 -43 48 -55z m10 35 c8 -16 14 -31 14
-34 0 -11 -46 49 -54 69 -6 16 -4 17 9 6 9 -8 23 -26 31 -41z m188 -5 c3 -8 2
-12 -4 -9 -6 3 -10 10 -10 16 0 14 7 11 14 -7z m-1077 -31 c-3 -10 -5 -4 -5
12 0 17 2 24 5 18 2 -7 2 -21 0 -30z m933 -130 c4 -43 5 -80 3 -82 -2 -3 -20
12 -41 33 -20 22 -52 50 -69 64 -18 13 -30 29 -26 35 4 6 1 7 -7 2 -10 -6 -12
-4 -7 9 4 10 7 22 7 28 0 5 21 -8 48 -29 26 -21 56 -45 67 -53 19 -15 19 -15
2 12 -9 15 -17 42 -17 60 0 30 1 31 17 16 11 -11 18 -43 23 -95z m-1034 71
c15 -13 16 -15 2 -10 -16 5 -18 -10 -8 -59 6 -25 -1 -45 -15 -45 -10 0 -14 -9
-13 -24 2 -21 5 -23 17 -13 9 7 23 21 32 31 16 19 54 32 43 15 -3 -5 -1 -9 5
-9 5 0 11 3 14 8 2 4 2 0 -1 -8 -5 -19 -5 -25 2 -75 4 -26 2 -35 -4 -25 -15
24 -22 5 -9 -26 16 -43 18 -75 4 -80 -7 -3 -40 9 -74 25 -67 34 -76 55 -44
100 9 14 11 21 5 17 -8 -4 -10 5 -7 30 1 20 8 40 15 44 9 5 9 9 1 14 -14 9
-10 106 4 106 6 0 20 -7 31 -16z m876 -6 c-7 -7 -12 -8 -12 -2 0 14 12 26 19
19 2 -3 -1 -11 -7 -17z m-101 -5 c13 -16 12 -17 -3 -4 -10 7 -18 15 -18 17 0
8 8 3 21 -13z m-717 -1 c3 -5 -1 -9 -9 -9 -8 0 -15 4 -15 9 0 4 4 8 9 8 6 0
12 -4 15 -8z m513 -8 c-3 -3 -12 -4 -19 -1 -8 3 -5 6 6 6 11 1 17 -2 13 -5z
m-538 -46 c-5 -18 -16 -39 -24 -48 -14 -13 -15 -12 -4 20 11 32 27 60 35 60 1
0 -2 -14 -7 -32z m84 5 c-7 -2 -21 -2 -30 0 -10 3 -4 5 12 5 17 0 24 -2 18 -5z
m737 -3 c0 -5 -4 -10 -10 -10 -5 0 -10 5 -10 10 0 6 5 10 10 10 6 0 10 -4 10
-10z m124 -51 c4 -4 0 -6 -10 -6 -15 2 -18 -4 -16 -22 3 -16 0 -21 -8 -16 -6
4 -9 16 -7 27 3 11 -2 27 -14 39 -32 32 -21 44 14 13 17 -16 36 -32 41 -35z
m-809 22 c3 -5 2 -12 -3 -15 -5 -3 -9 1 -9 9 0 17 3 19 12 6z m435 -45 c0 -59
-5 -66 -53 -72 -24 -4 -28 -2 -17 5 8 6 23 11 33 11 14 0 17 9 17 49 0 30 -5
51 -12 54 -7 3 -3 6 10 6 20 1 22 -3 22 -53z m320 17 c0 -7 -4 -13 -10 -13 -5
0 -10 7 -10 15 0 8 -7 15 -16 15 -8 0 -12 4 -9 10 8 12 45 -10 45 -27z m-387
20 c-20 -4 -23 -11 -23 -54 0 -27 -4 -49 -10 -49 -5 0 -10 25 -10 55 l0 55 33
-1 c23 -1 26 -3 10 -6z m-436 -35 c0 -18 -2 -25 -4 -15 -3 9 -9 14 -14 11 -6
-3 -5 3 3 15 7 12 13 21 14 21 0 0 1 -15 1 -32z m753 1 c0 -5 -4 -9 -10 -9 -5
0 -10 7 -10 16 0 8 5 12 10 9 6 -3 10 -10 10 -16z m-923 -1 c-2 -7 0 -23 4
-35 5 -13 4 -25 -1 -28 -6 -4 -10 -17 -10 -31 0 -13 -4 -24 -8 -24 -4 0 -8 29
-8 65 -1 50 2 65 13 65 8 0 13 -6 10 -12z m996 -48 c-7 -27 -23 -15 -21 15 2
17 6 21 14 14 7 -5 10 -19 7 -29z m-69 22 c3 -5 -1 -9 -9 -9 -8 0 -15 4 -15 9
0 4 4 8 9 8 6 0 12 -4 15 -8z m-4 -69 l8 -38 1 38 c0 20 5 37 10 37 8 0 23
-38 25 -63 1 -5 9 -14 18 -21 13 -10 15 -15 6 -24 -9 -9 -9 -12 2 -12 7 0 10
-3 7 -6 -10 -10 -38 17 -30 29 3 6 1 7 -5 3 -6 -4 -23 1 -37 10 -20 13 -25 25
-25 57 0 48 10 43 20 -10z m86 -5 c15 -19 16 -20 2 -9 -13 9 -18 10 -18 2 0
-6 7 -14 15 -17 8 -4 15 -11 15 -17 0 -5 -8 -3 -18 6 -10 10 -21 15 -23 12 -3
-2 -6 7 -7 20 -2 31 9 32 34 3z m-839 -10 c-3 -8 -6 -5 -6 6 -1 11 2 17 5 13
3 -3 4 -12 1 -19z m3 -43 c0 -14 -2 -25 -4 -25 -2 0 -6 11 -8 25 -3 14 -1 25
3 25 5 0 9 -11 9 -25z m758 -30 c0 -14 -6 -25 -13 -25 -12 0 -17 24 -9 48 6
21 22 5 22 -23z m-478 -5 c0 -5 -2 -10 -4 -10 -3 0 -8 5 -11 10 -3 6 -1 10 4
10 6 0 11 -4 11 -10z m514 2 c3 -5 6 -26 8 -46 2 -28 9 -43 30 -57 28 -20 37
-39 18 -39 -5 0 -10 7 -10 16 0 8 -4 13 -9 10 -5 -3 -12 1 -15 10 -3 8 -10 13
-15 9 -6 -3 -15 4 -22 16 -14 26 -29 8 -21 -25 3 -11 1 -18 -3 -13 -5 4 -9 23
-10 42 -2 35 -2 35 22 19 28 -18 42 -14 18 6 -16 14 -21 60 -6 60 6 0 12 -4
15 -8z m-889 -44 c36 -18 65 -37 65 -42 0 -5 -7 -18 -17 -28 -9 -11 -11 -18
-5 -18 7 0 12 4 12 9 0 9 9 13 44 23 5 2 10 -5 12 -16 2 -14 0 -16 -9 -7 -15
15 -27 14 -27 -4 0 -16 -2 -17 -42 -20 -20 -1 -29 4 -34 18 -5 15 -8 16 -14 7
-7 -11 -13 -10 -34 4 -22 14 -26 24 -26 61 0 25 2 45 5 45 2 0 34 -14 70 -32z
m1673 7 c-3 -3 -9 2 -12 12 -6 14 -5 15 5 6 7 -7 10 -15 7 -18z m-1481 -69 c0
-8 -9 -17 -19 -19 -22 -6 -23 -3 -2 17 19 20 21 20 21 2z m703 -30 c-1 -21 -1
-21 -15 -2 -19 25 -19 37 0 30 8 -4 15 -16 15 -28z"/>
<path d="M2572 4270 c0 -14 2 -19 5 -12 2 6 2 18 0 25 -3 6 -5 1 -5 -13z"/>
<path d="M1728 5093 c7 -3 16 -2 19 1 4 3 -2 6 -13 5 -11 0 -14 -3 -6 -6z"/>
<path d="M808 5020 c-1 -5 -90 -24 -195 -41 l-193 -32 0 -37 0 -36 173 27 c94
16 187 31 205 34 30 5 32 9 32 45 0 36 -14 62 -22 40z"/>
<path d="M2459 4843 c-29 -3 -38 -9 -41 -27 -3 -14 2 -27 12 -33 12 -8 16 -7
16 8 0 9 -4 15 -9 12 -5 -3 -8 0 -5 8 3 8 31 19 64 25 57 11 38 15 -37 7z"/>
<path d="M2583 4793 c9 -2 23 -2 30 0 6 3 -1 5 -18 5 -16 0 -22 -2 -12 -5z"/>
<path d="M2490 4780 c-8 -5 -11 -12 -7 -16 3 -4 12 -2 19 4 7 5 24 12 38 15
23 4 22 4 -5 5 -16 1 -37 -2 -45 -8z"/>
<path d="M2653 4743 c9 -2 23 -2 30 0 6 3 -1 5 -18 5 -16 0 -22 -2 -12 -5z"/>
<path d="M2560 4732 c-18 -8 -26 -42 -10 -42 7 0 14 9 17 19 3 12 16 22 32 24
26 4 26 4 1 5 -14 0 -32 -2 -40 -6z"/>
<path d="M2663 4683 c9 -2 25 -2 35 0 9 3 1 5 -18 5 -19 0 -27 -2 -17 -5z"/>
<path d="M2615 4670 c4 -6 11 -8 16 -5 14 9 11 15 -7 15 -8 0 -12 -5 -9 -10z"/>
<path d="M1286 4639 c-14 -11 -26 -16 -26 -10 0 6 -13 11 -29 11 -28 0 -30 -3
-33 -42 -4 -56 -28 -64 -28 -9 0 30 -4 41 -15 41 -20 0 -21 -93 -1 -109 16
-13 66 -5 66 11 0 6 6 5 15 -2 12 -10 16 -8 25 14 l10 26 20 -20 c27 -27 46
-16 26 16 -20 29 -20 48 -1 64 16 14 20 30 6 30 -4 0 -20 -9 -35 -21z"/>
<path d="M60 4640 c0 -5 -13 -10 -30 -10 l-30 0 0 -580 0 -580 376 0 c231 0
373 4 369 9 -3 6 -19 17 -35 25 -17 9 -43 23 -60 32 -40 21 -44 29 -24 59 15
24 17 24 30 8 7 -10 14 -13 14 -8 0 6 5 3 10 -5 9 -13 11 -13 19 -1 8 12 11 9
16 -12 6 -22 10 -25 26 -16 15 7 19 7 17 -3 -2 -7 3 -12 10 -11 6 2 12 -4 12
-12 0 -8 3 -15 8 -16 4 0 20 -2 35 -3 16 -1 32 -8 37 -16 6 -8 10 -11 10 -7 0
5 10 1 22 -7 26 -19 73 -22 62 -5 -4 7 -7 25 -6 40 1 32 -25 53 -48 39 -8 -5
-18 -6 -22 -4 -4 3 -8 0 -8 -6 0 -6 12 -15 26 -21 15 -5 24 -12 21 -15 -3 -3
-24 4 -46 17 -30 16 -41 29 -41 46 0 20 5 23 34 23 19 0 38 -5 41 -11 5 -7 11
-5 18 4 7 8 27 17 45 21 29 5 45 -1 103 -39 44 -28 67 -50 63 -57 -4 -7 -3 -8
4 -4 7 4 16 -2 22 -16 8 -17 20 -23 46 -24 19 0 31 2 27 6 -4 4 -76 51 -159
104 -129 82 -156 96 -190 95 l-39 -2 40 -7 40 -7 -44 -2 c-31 -1 -57 7 -88 25
-25 14 -47 23 -50 20 -4 -3 -2 -6 3 -6 5 0 10 -23 12 -51 1 -33 -2 -48 -9 -44
-6 4 -8 13 -5 21 3 7 1 16 -3 18 -5 3 -8 20 -7 38 1 29 5 33 28 33 34 1 50 15
17 15 l-24 1 27 23 c25 22 194 86 228 86 8 0 27 6 41 14 15 7 51 21 80 31 66
21 74 28 55 45 -11 8 -27 10 -53 4 -21 -4 -41 -7 -45 -6 -5 1 -8 -2 -8 -7 0
-4 -20 -14 -44 -21 -28 -8 -43 -17 -42 -27 1 -12 -40 -30 -149 -67 -83 -28
-191 -71 -239 -94 -49 -23 -91 -40 -94 -38 -2 3 11 11 29 19 114 50 170 79
167 88 -7 20 -111 56 -139 49 -28 -8 -79 23 -58 36 6 3 14 2 18 -3 8 -13 61
-23 61 -12 0 20 43 7 95 -28 31 -20 57 -34 59 -32 6 6 -252 170 -277 176 -12
3 2 -7 30 -23 29 -15 51 -29 49 -32 -3 -2 -22 -6 -43 -8 -89 -8 -143 -35 -96
-47 17 -4 17 -5 1 -6 -10 0 -18 -5 -18 -10 0 -15 23 -19 48 -8 26 12 45 0 21
-13 -11 -6 -15 -18 -12 -33 4 -19 0 -26 -19 -30 -45 -11 -219 -20 -217 -11 3
17 -3 49 -7 38 -2 -6 -18 -9 -33 -6 -25 3 -30 0 -33 -19 -2 -18 -10 -25 -31
-27 -27 -3 -28 -2 -25 35 l3 38 58 3 c46 2 57 6 56 20 0 10 -3 12 -6 5 -3 -8
-25 -13 -59 -13 l-54 0 2 58 3 57 39 3 c21 2 42 -1 45 -6 4 -6 11 -4 19 4 11
12 3 14 -48 14 l-61 0 3 58 c3 49 6 57 23 57 23 0 45 18 45 37 0 10 -3 9 -10
-2 -5 -8 -10 -11 -10 -6 0 6 -5 5 -11 -1 -6 -6 -18 -9 -25 -6 -10 4 -14 28
-13 99 1 81 3 94 17 94 15 1 15 2 0 11 -13 7 -18 22 -17 52 0 34 2 38 10 22 7
-15 8 -13 3 10 -4 17 -6 70 -5 118 2 96 -6 157 -20 157 -5 0 -9 -4 -9 -10z
m440 -810 c0 -5 -4 -10 -10 -10 -5 0 -10 5 -10 10 0 6 5 10 10 10 6 0 10 -4
10 -10z m259 -73 c-2 -1 -14 -11 -26 -21 -13 -11 -23 -16 -23 -13 0 10 31 37
42 37 6 0 9 -1 7 -3z m57 -113 c2 -11 -3 -14 -16 -11 -18 5 -22 -15 -5 -30 4
-4 5 -2 1 5 -4 6 -3 12 2 12 5 0 12 -9 15 -20 5 -21 -8 -26 -31 -11 -8 5 -12
25 -11 54 3 43 4 45 23 32 11 -8 21 -22 22 -31z m-254 -3 c-27 -39 -42 -44
-42 -13 0 15 41 48 62 51 4 1 -5 -16 -20 -38z m-62 15 c0 -2 -7 -7 -16 -10 -8
-3 -12 -2 -9 4 6 10 25 14 25 6z m119 -43 c-29 -34 -35 -36 -57 -24 -20 11 28
57 60 57 l27 0 -30 -33z m308 11 c-3 -3 -12 -4 -19 -1 -8 3 -5 6 6 6 11 1 17
-2 13 -5z"/>
<path d="M787 3659 c7 -7 15 -10 18 -7 3 3 -2 9 -12 12 -14 6 -15 5 -6 -5z"/>
<path d="M660 4624 c-80 -13 -167 -27 -195 -31 -49 -8 -50 -9 -53 -44 l-3 -36
153 23 c84 13 177 26 206 30 l52 7 0 38 c0 22 -3 39 -7 38 -5 0 -73 -11 -153
-25z"/>
<path d="M2620 4639 c0 -5 5 -7 10 -4 6 3 10 8 10 11 0 2 -4 4 -10 4 -5 0 -10
-5 -10 -11z"/>
<path d="M2680 4614 c0 -14 4 -23 10 -19 5 3 7 12 4 20 -4 9 4 15 28 18 l33 4
-37 1 c-34 2 -38 0 -38 -24z"/>
<path d="M1033 4613 c-7 -3 -13 -14 -13 -26 l0 -22 -18 22 c-25 32 -67 21 -79
-20 l-10 -32 -11 28 c-6 15 -18 27 -26 27 -12 0 -12 -8 1 -52 9 -29 19 -57 24
-62 13 -14 32 8 45 52 l12 37 1 -37 c1 -42 20 -61 28 -29 6 25 16 27 33 6 21
-25 30 -17 31 28 1 23 3 34 6 25 2 -10 10 -18 16 -18 7 0 22 -3 35 -6 19 -6
22 -3 22 25 0 20 -5 31 -12 30 -7 -1 -21 1 -32 6 -11 5 -21 3 -26 -5 -6 -10
-9 -8 -12 7 -1 11 -9 18 -15 16z"/>
<path d="M2850 4600 l-35 -7 32 -2 c17 0 35 4 38 9 3 6 5 9 3 9 -2 -1 -19 -5
-38 -9z"/>
<path d="M2873 4543 c9 -2 25 -2 35 0 9 3 1 5 -18 5 -19 0 -27 -2 -17 -5z"/>
<path d="M2978 4503 c6 -2 18 -2 25 0 6 3 1 5 -13 5 -14 0 -19 -2 -12 -5z"/>
<path d="M2860 4485 c-13 -16 0 -21 16 -6 5 5 23 11 39 14 28 4 28 4 -6 6 -22
0 -42 -5 -49 -14z"/>
<path d="M101 4314 c0 -11 3 -14 6 -6 3 7 2 16 -1 19 -3 4 -6 -2 -5 -13z"/>
<path d="M654 4275 c-78 -12 -167 -26 -198 -29 -56 -7 -56 -8 -56 -42 l0 -34
58 6 c31 4 125 17 207 28 l150 21 3 38 c2 26 -1 37 -10 36 -7 -1 -77 -12 -154
-24z"/>
<path d="M3031 4213 c0 -45 3 -85 9 -88 12 -7 12 59 1 125 -8 41 -9 37 -10
-37z"/>
<path d="M113 4256 c3 -7 0 -20 -6 -27 -10 -11 -9 -11 5 0 15 11 15 41 1 41
-3 0 -3 -6 0 -14z"/>
<path d="M3225 4193 c0 -10 4 -24 9 -31 9 -14 26 -16 26 -2 0 6 -7 10 -15 10
-9 0 -12 6 -8 16 5 13 8 13 15 2 8 -10 9 -10 5 2 -6 22 -34 25 -32 3z"/>
<path d="M131 4144 c0 -11 3 -14 6 -6 3 7 2 16 -1 19 -3 4 -6 -2 -5 -13z"/>
<path d="M1881 4118 c0 -16 2 -18 6 -8 3 8 11 18 17 22 7 5 4 8 -6 8 -12 0
-18 -7 -17 -22z"/>
<path d="M147 4039 c4 -13 8 -18 11 -10 2 7 -1 18 -6 23 -8 8 -9 4 -5 -13z"/>
<path d="M161 3984 c0 -11 3 -14 6 -6 3 7 2 16 -1 19 -3 4 -6 -2 -5 -13z"/>
<path d="M293 3953 c9 -2 25 -2 35 0 9 3 1 5 -18 5 -19 0 -27 -2 -17 -5z"/>
<path d="M702 3930 c-56 -10 -105 -19 -107 -22 -3 -2 12 -14 33 -25 34 -19 43
-20 112 -9 67 10 75 14 78 35 2 13 0 26 -5 30 -4 4 -54 0 -111 -9z"/>
<path d="M1880 3906 c0 -2 7 -9 15 -16 13 -11 14 -10 9 4 -5 14 -24 23 -24 12z"/>
<path d="M182 3880 c0 -14 2 -19 5 -12 2 6 2 18 0 25 -3 6 -5 1 -5 -13z"/>
<path d="M1825 3859 c-4 -6 -5 -12 -2 -15 2 -3 7 2 10 11 7 17 1 20 -8 4z"/>
<path d="M3180 3785 c0 -54 3 -66 20 -75 19 -10 20 -8 20 52 0 52 -3 65 -20
76 -19 12 -20 10 -20 -53z"/>
<path d="M804 3744 c17 -17 22 -49 6 -39 -14 9 -12 -1 3 -13 10 -8 13 -5 15
15 2 26 -13 53 -30 53 -5 0 -2 -7 6 -16z"/>
<path d="M1805 3640 c-3 -6 1 -7 9 -4 18 7 21 14 7 14 -6 0 -13 -4 -16 -10z"/>
<path d="M2591 3584 c0 -11 3 -14 6 -6 3 7 2 16 -1 19 -3 4 -6 -2 -5 -13z"/>
<path d="M1285 3550 c3 -5 8 -10 11 -10 2 0 4 5 4 10 0 6 -5 10 -11 10 -5 0
-7 -4 -4 -10z"/>
<path d="M3192 3513 c2 -30 8 -39 24 -41 18 -3 20 1 16 30 -4 31 -17 47 -35
48 -5 0 -7 -17 -5 -37z"/>
<path d="M1330 3519 c0 -5 5 -7 10 -4 6 3 10 8 10 11 0 2 -4 4 -10 4 -5 0 -10
-5 -10 -11z"/>
<path d="M244 3236 c13 -51 47 -136 55 -136 8 0 61 135 61 153 0 4 -4 7 -8 7
-5 0 -17 -27 -27 -60 -10 -33 -21 -60 -25 -60 -3 0 -14 25 -24 55 -18 57 -45
91 -32 41z"/>
<path d="M460 3245 c-8 -10 -5 -13 15 -11 28 1 33 11 11 19 -8 3 -20 0 -26 -8z"/>
<path d="M730 3180 c0 -94 18 -108 22 -17 l3 62 39 -62 c21 -35 43 -63 47 -63
5 0 9 36 9 80 0 91 -17 109 -22 23 l-3 -58 -35 58 c-48 80 -60 75 -60 -23z"/>
<path d="M1010 3180 c0 -83 15 -110 22 -40 5 54 -2 120 -13 120 -5 0 -9 -36
-9 -80z"/>
<path d="M1221 3246 c-10 -11 -7 -14 13 -12 18 1 22 4 14 14 -13 15 -13 15
-27 -2z"/>
<path d="M1650 3245 c0 -8 2 -15 4 -15 2 0 6 7 10 15 3 8 1 15 -4 15 -6 0 -10
-7 -10 -15z"/>
<path d="M2050 3251 c0 -5 5 -13 10 -16 6 -3 10 -2 10 4 0 5 -4 13 -10 16 -5
3 -10 2 -10 -4z"/>
<path d="M2200 3226 c0 -19 -6 -37 -12 -39 -10 -4 -10 -6 0 -6 7 -1 12 -16 12
-41 0 -39 1 -40 34 -40 51 0 86 33 86 80 0 47 -35 80 -86 80 -32 0 -34 -2 -34
-34z m98 -18 c21 -44 -2 -82 -51 -86 -35 -3 -37 -2 -37 27 0 25 4 31 23 32
l22 0 -22 9 c-14 6 -23 18 -23 30 0 18 5 21 37 18 30 -2 41 -9 51 -30z"/>
<path d="M3014 3236 c13 -51 47 -136 55 -136 8 0 61 135 61 153 0 4 -4 7 -8 7
-5 0 -17 -27 -27 -60 -10 -33 -21 -60 -25 -60 -3 0 -14 25 -24 55 -18 57 -45
91 -32 41z"/>
<path d="M3230 3245 c-8 -10 -5 -13 15 -11 28 1 33 11 11 19 -8 3 -20 0 -26
-8z"/>
<path d="M380 3240 c0 -5 5 -10 10 -10 6 0 10 5 10 10 0 6 -4 10 -10 10 -5 0
-10 -4 -10 -10z"/>
<path d="M1140 3240 c0 -5 5 -10 10 -10 6 0 10 5 10 10 0 6 -4 10 -10 10 -5 0
-10 -4 -10 -10z"/>
<path d="M2380 3240 c0 -5 5 -10 11 -10 5 0 7 5 4 10 -3 6 -8 10 -11 10 -2 0
-4 -4 -4 -10z"/>
<path d="M3150 3240 c0 -5 5 -10 10 -10 6 0 10 5 10 10 0 6 -4 10 -10 10 -5 0
-10 -4 -10 -10z"/>
<path d="M1711 3228 c0 -10 -7 -18 -15 -18 -10 0 -16 -14 -18 -42 -3 -38 -6
-43 -28 -43 -22 0 -25 5 -28 43 -4 51 -22 57 -22 6 0 -57 14 -74 60 -72 l40 1
0 48 c0 26 5 49 11 51 6 2 9 13 6 23 -4 17 -5 17 -6 3z"/>
<path d="M2661 3228 c0 -9 -7 -19 -13 -22 -10 -5 -10 -7 0 -12 6 -3 12 -23 12
-45 0 -27 5 -42 15 -46 23 -8 33 7 12 18 -22 13 -24 69 -2 69 8 0 15 5 15 10
0 6 -6 10 -14 10 -8 0 -17 8 -19 18 -4 15 -5 15 -6 0z"/>
<path d="M3329 3223 c-3 -35 3 -88 12 -105 10 -19 39 -25 39 -8 0 6 -7 10 -15
10 -10 0 -15 11 -15 35 0 24 5 35 15 35 8 0 15 5 15 10 0 6 -7 10 -15 10 -8 0
-15 7 -15 15 0 21 -20 19 -21 -2z"/>
<path d="M380 3155 c0 -30 5 -55 10 -55 6 0 10 25 10 55 0 30 -4 55 -10 55 -5
0 -10 -25 -10 -55z"/>
<path d="M446 3197 c-38 -28 -13 -97 34 -97 9 0 25 6 36 14 17 13 15 14 -22 9
-32 -4 -42 -2 -47 11 -5 13 1 16 38 16 49 0 58 15 29 44 -19 19 -44 20 -68 3z
m59 -17 c4 -6 -7 -10 -24 -10 -17 0 -31 5 -31 10 0 6 11 10 24 10 14 0 28 -4
31 -10z"/>
<path d="M550 3153 c0 -63 18 -71 22 -10 3 38 6 42 31 45 26 3 27 2 27 -42 0
-25 5 -46 10 -46 14 0 12 86 -2 98 -7 6 -30 10 -50 9 l-38 -1 0 -53z"/>
<path d="M895 3194 c-19 -20 -19 -58 1 -78 17 -18 50 -21 59 -6 3 6 -5 10 -19
10 -30 0 -48 27 -35 52 13 23 56 24 62 1 3 -10 4 -36 3 -58 -1 -34 -5 -41 -24
-43 -13 -2 -30 2 -38 8 -11 10 -14 9 -14 -4 0 -17 41 -32 65 -22 21 8 35 49
35 105 l0 47 -40 1 c-24 1 -46 -4 -55 -13z"/>
<path d="M1045 3200 c-4 -6 5 -10 19 -10 24 0 26 -3 26 -45 0 -25 5 -45 10
-45 14 0 12 84 -2 98 -15 15 -45 16 -53 2z"/>
<path d="M1140 3155 c0 -30 5 -55 10 -55 6 0 10 25 10 55 0 30 -4 55 -10 55
-5 0 -10 -25 -10 -55z"/>
<path d="M1194 3185 c-29 -44 9 -94 62 -81 37 10 29 23 -12 22 -22 -1 -39 4
-41 12 -3 8 9 12 41 12 50 0 60 15 28 43 -27 24 -59 21 -78 -8z m71 -5 c4 -6
-8 -10 -30 -10 -22 0 -34 4 -30 10 3 6 17 10 30 10 13 0 27 -4 30 -10z"/>
<path d="M1310 3154 c0 -64 17 -73 22 -11 3 37 6 42 28 42 22 0 26 -5 31 -45
7 -44 7 -44 5 10 l-1 55 -42 1 -43 2 0 -54z"/>
<path d="M1497 3192 c-10 -10 -17 -28 -17 -39 0 -42 63 -70 89 -39 9 11 4 13
-26 12 -36 -1 -38 1 -38 29 0 28 2 30 38 29 30 -1 35 1 26 12 -16 20 -53 17
-72 -4z"/>
<path d="M1741 3169 c-1 -54 12 -69 57 -66 l32 2 -2 55 c-1 40 -2 46 -5 20 -5
-42 -19 -60 -44 -60 -18 0 -23 11 -32 70 -3 14 -5 4 -6 -21z"/>
<path d="M1923 3155 c12 -30 27 -55 32 -55 6 0 20 25 32 55 11 30 17 55 13 55
-5 0 -16 -21 -26 -47 l-18 -47 -19 47 c-11 26 -23 47 -27 47 -5 0 2 -25 13
-55z"/>
<path d="M2037 3203 c-14 -13 -6 -18 25 -18 17 0 33 -6 35 -13 3 -7 -1 -10
-11 -6 -31 12 -66 -5 -66 -31 0 -25 19 -35 68 -32 19 1 22 7 22 42 0 23 -5 46
-12 53 -13 13 -50 16 -61 5z m54 -68 c0 -5 -7 -12 -16 -13 -23 -5 -47 6 -40
19 8 13 56 8 56 -6z"/>
<path d="M2363 3203 c-23 -9 -14 -18 19 -18 17 0 33 -5 35 -11 2 -6 -7 -9 -25
-6 -18 2 -33 -2 -42 -13 -22 -27 0 -50 49 -51 l41 -2 0 38 c0 55 -32 82 -77
63z m55 -65 c-7 -20 -58 -23 -58 -4 0 11 10 16 31 16 20 0 29 -4 27 -12z"/>
<path d="M2477 3192 c-33 -36 -8 -92 40 -92 25 0 53 30 53 57 0 46 -62 69 -93
35z m68 -37 c0 -24 -5 -31 -24 -33 -32 -5 -54 23 -40 50 7 13 19 18 37 16 23
-2 27 -8 27 -33z"/>
<path d="M2737 3203 c-14 -13 -6 -18 25 -18 17 0 33 -5 35 -11 2 -6 -7 -9 -25
-6 -18 2 -33 -2 -42 -13 -21 -26 0 -50 44 -50 36 -1 36 0 36 40 0 23 -5 46
-12 53 -13 13 -50 16 -61 5z m54 -68 c0 -5 -12 -11 -26 -13 -18 -2 -25 1 -25
13 0 12 7 15 25 13 14 -2 26 -7 26 -13z"/>
<path d="M2857 3192 c-33 -36 -8 -92 40 -92 25 0 53 30 53 57 0 46 -62 69 -93
35z m68 -37 c0 -24 -5 -31 -24 -33 -32 -5 -54 23 -40 50 7 13 19 18 37 16 23
-2 27 -8 27 -33z"/>
<path d="M3150 3155 c0 -30 5 -55 10 -55 6 0 10 25 10 55 0 30 -4 55 -10 55
-5 0 -10 -25 -10 -55z"/>
<path d="M3216 3197 c-38 -28 -13 -97 34 -97 9 0 25 6 36 14 17 13 15 14 -22
9 -32 -4 -42 -2 -47 11 -5 13 1 16 38 16 49 0 58 15 29 44 -19 19 -44 20 -68
3z m59 -17 c4 -6 -7 -10 -24 -10 -17 0 -31 5 -31 10 0 6 11 10 24 10 14 0 28
-4 31 -10z"/>
<path d="M3455 3170 c-4 -6 8 -10 29 -10 20 0 36 5 36 10 0 6 -13 10 -29 10
-17 0 -33 -4 -36 -10z"/>
<path d="M2040 2991 c0 -8 46 -9 54 0 4 3 -7 6 -24 7 -16 0 -30 -3 -30 -7z"/>
<path d="M266 2904 c-26 -72 -30 -110 -6 -65 15 29 80 30 87 1 3 -11 10 -20
15 -20 6 0 8 6 6 13 -3 6 -16 42 -29 80 -13 37 -28 67 -34 67 -6 0 -23 -34
-39 -76z m58 -1 c6 -20 4 -23 -18 -23 -29 0 -31 6 -15 47 11 30 19 24 33 -24z"/>
<path d="M510 2900 c0 -83 15 -110 22 -40 5 54 -2 120 -13 120 -5 0 -9 -36 -9
-80z"/>
<path d="M750 2946 c0 -19 -6 -37 -12 -39 -10 -4 -10 -6 0 -6 7 -1 12 -16 12
-41 0 -38 2 -40 31 -40 32 0 69 15 81 34 4 6 8 27 8 46 0 19 -4 40 -8 46 -12
19 -49 34 -81 34 -29 0 -31 -3 -31 -34z m100 -18 c13 -25 13 -31 0 -55 -11
-20 -25 -29 -48 -31 -30 -3 -32 -1 -32 27 0 25 4 31 23 32 l22 2 -22 4 c-17 3
-23 11 -23 29 0 22 4 25 32 22 23 -2 37 -11 48 -30z"/>
<path d="M1016 2971 c-4 -5 -2 -12 3 -15 5 -4 12 -2 15 3 4 5 2 12 -3 15 -5 4
-12 2 -15 -3z"/>
<path d="M1120 2900 c0 -83 17 -112 22 -37 3 37 6 42 28 42 22 0 26 -5 31 -45
l6 -45 1 52 c2 48 0 53 -22 59 -14 3 -30 3 -35 -1 -7 -4 -11 5 -11 24 0 17 -4
31 -10 31 -6 0 -10 -33 -10 -80z"/>
<path d="M1550 2946 c0 -19 -6 -37 -12 -39 -10 -4 -10 -6 0 -6 7 -1 12 -16 12
-41 0 -39 1 -40 34 -40 51 0 86 33 86 80 0 47 -35 80 -86 80 -32 0 -34 -2 -34
-34z m98 -18 c21 -44 -2 -82 -51 -86 -35 -3 -37 -2 -37 27 0 25 4 31 23 32
l22 0 -22 9 c-14 6 -23 18 -23 30 0 18 5 21 37 18 30 -2 41 -9 51 -30z"/>
<path d="M1870 2900 c0 -47 4 -80 10 -80 6 0 10 28 10 63 l0 62 40 -62 c22
-35 45 -63 50 -63 6 0 10 35 10 80 0 47 -4 80 -10 80 -6 0 -10 -28 -10 -62 l0
-63 -40 63 c-22 34 -45 62 -50 62 -6 0 -10 -35 -10 -80z"/>
<path d="M1730 2960 c0 -5 5 -10 11 -10 5 0 7 5 4 10 -3 6 -8 10 -11 10 -2 0
-4 -4 -4 -10z"/>
<path d="M2052 2953 c5 -6 16 -9 24 -6 22 8 17 18 -10 18 -18 0 -22 -3 -14
-12z"/>
<path d="M390 2873 c0 -63 18 -71 22 -10 3 38 6 42 31 45 26 3 27 2 27 -42 0
-25 5 -46 10 -46 14 0 12 86 -2 98 -7 6 -30 10 -50 9 l-38 -1 0 -53z"/>
<path d="M545 2920 c-4 -6 5 -10 19 -10 24 0 26 -3 26 -45 0 -25 5 -45 10 -45
14 0 12 84 -2 98 -15 15 -45 16 -53 2z"/>
<path d="M913 2923 c-27 -10 -11 -21 22 -16 27 4 35 2 35 -9 0 -11 -7 -14 -23
-11 -33 6 -60 -22 -47 -48 8 -14 20 -18 50 -17 40 1 40 1 40 43 0 22 -5 46
-12 53 -12 12 -43 15 -65 5z m57 -68 c0 -10 -10 -15 -30 -15 -20 0 -30 5 -30
15 0 10 10 15 30 15 20 0 30 -5 30 -15z"/>
<path d="M1023 2875 c0 -33 2 -45 4 -27 2 18 2 45 0 60 -2 15 -4 0 -4 -33z"/>
<path d="M1256 2917 c-39 -28 -13 -97 36 -97 22 0 58 34 58 55 0 21 -36 55
-58 55 -10 0 -26 -6 -36 -13z m69 -42 c0 -26 -4 -30 -31 -33 -34 -3 -49 16
-38 50 4 15 13 18 37 16 28 -3 32 -7 32 -33z"/>
<path d="M1387 2912 c-22 -24 -21 -55 1 -75 23 -21 56 -22 72 -2 10 12 6 13
-23 8 -28 -4 -37 -1 -46 14 -17 33 8 58 49 50 28 -6 31 -5 20 8 -17 20 -53 19
-73 -3z"/>
<path d="M1713 2923 c-23 -9 -14 -18 19 -18 17 0 33 -5 35 -11 2 -6 -7 -9 -25
-6 -18 2 -33 -2 -42 -13 -22 -27 0 -50 49 -51 l41 -2 0 38 c0 55 -32 82 -77
63z m55 -65 c-7 -20 -58 -23 -58 -4 0 11 10 16 31 16 20 0 29 -4 27 -12z"/>
<path d="M2037 2923 c-14 -13 -6 -18 25 -18 17 0 33 -6 35 -13 3 -7 -1 -10
-11 -6 -31 12 -66 -5 -66 -31 0 -25 19 -35 68 -32 19 1 22 7 22 42 0 23 -5 46
-12 53 -13 13 -50 16 -61 5z m54 -68 c0 -5 -7 -12 -16 -13 -23 -5 -47 6 -40
19 8 13 56 8 56 -6z"/>
<path d="M2140 2873 c0 -63 18 -71 22 -10 3 37 6 42 28 42 22 0 26 -5 31 -45
l6 -45 1 52 c2 56 -6 63 -65 60 -21 -1 -23 -6 -23 -54z"/>
<path d="M2275 2917 c-10 -8 -17 -26 -17 -42 0 -44 51 -72 80 -43 9 9 12 9 12
-3 0 -33 -63 -56 -72 -27 -3 9 -6 9 -12 0 -12 -20 39 -38 69 -24 23 11 25 17
25 79 l0 68 -33 2 c-19 2 -42 -3 -52 -10z m66 -23 c17 -21 0 -48 -33 -52 -28
-3 -42 18 -33 49 8 23 48 25 66 3z"/>
<path d="M643 2820 c1 -11 2 -20 4 -20 1 0 7 9 13 20 8 16 8 20 -4 20 -9 0
-14 -8 -13 -20z"/>
<path d="M280 2625 c-1 -5 -1 -23 0 -39 2 -25 -1 -28 -19 -23 -12 3 -21 1 -21
-4 0 -5 9 -9 19 -9 11 0 21 -5 23 -12 9 -25 14 17 7 57 -3 22 -7 36 -9 30z"/>
<path d="M1400 2625 c-1 -5 -1 -23 0 -39 2 -25 -1 -28 -19 -23 -12 3 -21 1
-21 -4 0 -5 9 -9 19 -9 11 0 21 -5 23 -12 9 -25 14 17 7 57 -3 22 -7 36 -9 30z"/>
<path d="M380 2596 c0 -2 7 -7 16 -10 8 -3 12 -2 9 4 -6 10 -25 14 -25 6z"/>
<path d="M1293 2553 c9 -2 25 -2 35 0 9 3 1 5 -18 5 -19 0 -27 -2 -17 -5z"/>
<path d="M390 2540 c-9 -6 -10 -10 -3 -10 6 0 15 5 18 10 8 12 4 12 -15 0z"/>
<path d="M263 2423 c9 -2 23 -2 30 0 6 3 -1 5 -18 5 -16 0 -22 -2 -12 -5z"/>
<path d="M629 2419 c-2 -29 3 -74 9 -81 4 -4 6 13 5 38 -1 43 -12 74 -14 43z"/>
<path d="M404 2376 c1 -26 6 -41 16 -43 10 -3 11 -2 3 4 -6 4 -13 24 -16 43
-4 34 -4 33 -3 -4z"/>
<path d="M485 2400 c-3 -6 1 -7 9 -4 18 7 21 14 7 14 -6 0 -13 -4 -16 -10z"/>
<path d="M570 2406 c0 -2 7 -7 16 -10 8 -3 12 -2 9 4 -6 10 -25 14 -25 6z"/>
<path d="M673 2370 c0 -25 2 -35 4 -22 2 12 2 32 0 45 -2 12 -4 2 -4 -23z"/>
<path d="M715 2400 c-3 -6 1 -7 9 -4 18 7 21 14 7 14 -6 0 -13 -4 -16 -10z"/>
<path d="M817 2403 c6 -4 13 -24 16 -43 4 -34 4 -33 3 4 -1 26 -6 41 -16 43
-10 3 -11 2 -3 -4z"/>
<path d="M905 2400 c-3 -6 1 -7 9 -4 18 7 21 14 7 14 -6 0 -13 -4 -16 -10z"/>
<path d="M1077 2403 c6 -4 13 -24 16 -43 4 -34 4 -33 3 4 -1 26 -6 41 -16 43
-10 3 -11 2 -3 -4z"/>
<path d="M1118 2403 c6 -2 18 -2 25 0 6 3 1 5 -13 5 -14 0 -19 -2 -12 -5z"/>
<path d="M1243 2370 c0 -25 2 -35 4 -22 2 12 2 32 0 45 -2 12 -4 2 -4 -23z"/>
<path d="M258 2383 c6 -2 18 -2 25 0 6 3 1 5 -13 5 -14 0 -19 -2 -12 -5z"/>
<path d="M578 2373 c7 -3 16 -2 19 1 4 3 -2 6 -13 5 -11 0 -14 -3 -6 -6z"/>
<path d="M983 2373 c9 -2 23 -2 30 0 6 3 -1 5 -18 5 -16 0 -22 -2 -12 -5z"/>
<path d="M1183 2373 c9 -2 23 -2 30 0 6 3 -1 5 -18 5 -16 0 -22 -2 -12 -5z"/>
<path d="M487 2339 c7 -7 15 -10 18 -7 3 3 -2 9 -12 12 -14 6 -15 5 -6 -5z"/>
<path d="M557 2339 c7 -7 15 -10 18 -7 3 3 -2 9 -12 12 -14 6 -15 5 -6 -5z"/>
<path d="M717 2339 c7 -7 15 -10 18 -7 3 3 -2 9 -12 12 -14 6 -15 5 -6 -5z"/>
<path d="M907 2339 c7 -7 15 -10 18 -7 3 3 -2 9 -12 12 -14 6 -15 5 -6 -5z"/>
<path d="M263 2333 c9 -2 23 -2 30 0 6 3 -1 5 -18 5 -16 0 -22 -2 -12 -5z"/>
<path d="M768 2019 c-10 -5 -18 -15 -18 -20 0 -6 7 -3 16 5 28 29 64 15 64
-24 0 -39 -36 -53 -64 -24 -9 8 -16 11 -16 5 0 -20 41 -34 66 -22 31 14 34 65
5 81 -24 12 -31 12 -53 -1z"/>
<path d="M2761 1978 c1 -29 4 -43 6 -30 2 12 8 22 12 22 5 0 16 -10 25 -22
l17 -23 -11 23 c-9 17 -8 27 1 38 15 18 -4 44 -32 44 -16 0 -19 -7 -18 -52z
m44 22 c0 -8 -8 -16 -17 -18 -13 -2 -18 3 -18 18 0 15 5 20 18 18 9 -2 17 -10
17 -18z"/>
<path d="M906 1985 c-9 -26 -7 -32 5 -12 6 10 9 21 6 23 -2 3 -7 -2 -11 -11z"/>
<path d="M940 1980 c-10 -18 -8 -20 25 -20 37 0 43 8 23 28 -18 18 -36 15 -48
-8z m45 0 c3 -5 -3 -10 -14 -10 -12 0 -21 5 -21 10 0 6 6 10 14 10 8 0 18 -4
21 -10z"/>
<path d="M1021 1960 c1 -27 3 -29 6 -10 2 14 11 30 20 37 13 10 13 12 -6 10
-17 -1 -21 -7 -20 -37z"/>
<path d="M1153 1965 c0 -22 2 -30 4 -17 2 12 2 30 0 40 -3 9 -5 -1 -4 -23z"/>
<path d="M1190 1980 c-10 -18 -8 -20 25 -20 37 0 43 8 23 28 -18 18 -36 15
-48 -8z m45 0 c3 -5 -3 -10 -14 -10 -12 0 -21 5 -21 10 0 6 6 10 14 10 8 0 18
-4 21 -10z"/>
<path d="M1261 1999 c-1 -3 4 -20 10 -37 10 -30 29 -36 29 -10 0 6 -3 8 -7 4
-4 -3 -12 6 -19 21 -7 16 -13 25 -13 22z"/>
<path d="M1305 1990 c-3 -5 -1 -10 4 -10 6 0 11 5 11 10 0 6 -2 10 -4 10 -3 0
-8 -4 -11 -10z"/>
<path d="M3145 1990 c-3 -5 -1 -10 4 -10 6 0 11 5 11 10 0 6 -2 10 -4 10 -3 0
-8 -4 -11 -10z"/>
<path d="M3225 1989 c-11 -16 -1 -19 13 -3 7 8 8 14 3 14 -5 0 -13 -5 -16 -11z"/>
<path d="M1115 1969 c-7 -22 -8 -22 -21 -4 -8 10 -14 14 -14 9 0 -6 6 -18 13
-28 12 -16 14 -16 25 9 7 15 11 30 8 32 -2 2 -7 -6 -11 -18z"/>
<path d="M2840 1958 c0 -10 2 -18 4 -18 2 0 13 -3 23 -6 16 -6 16 -5 -2 9 -20
16 -19 16 8 17 15 0 27 3 27 8 0 4 -13 7 -30 7 -22 0 -30 -5 -30 -17z"/>
<path d="M3030 1958 c0 -10 2 -18 4 -18 2 0 13 -3 23 -6 16 -6 16 -5 -2 9 -20
16 -19 16 8 17 15 0 27 3 27 8 0 4 -13 7 -30 7 -22 0 -30 -5 -30 -17z"/>
<path d="M870 1963 c0 -15 19 -37 26 -31 3 4 -1 14 -10 23 -9 9 -16 13 -16 8z"/>
<path d="M1320 1965 c0 -5 4 -16 9 -23 6 -11 10 -10 15 4 3 9 4 19 1 22 -3 3
-5 -1 -5 -9 0 -11 -2 -11 -10 1 -5 8 -10 11 -10 5z"/>
<path d="M3161 1965 c0 -5 3 -16 8 -23 7 -11 9 -10 14 3 4 9 3 14 -2 10 -5 -3
-12 1 -14 7 -3 7 -6 9 -6 3z"/>
<path d="M3252 1956 c7 -8 15 -12 17 -11 5 6 -10 25 -20 25 -5 0 -4 -6 3 -14z"/>
<path d="M2930 1949 c0 -15 18 -19 23 -6 3 8 -1 14 -9 14 -8 0 -14 -4 -14 -8z"/>
<path d="M3127 1953 c-4 -3 -7 -11 -7 -17 0 -6 5 -5 12 2 6 6 9 14 7 17 -3 3
-9 2 -12 -2z"/>
<path d="M947 1938 c2 -5 10 -8 18 -8 8 0 16 3 18 8 3 4 -5 7 -18 7 -13 0 -21
-3 -18 -7z"/>
<path d="M1197 1938 c2 -5 10 -8 18 -8 8 0 16 3 18 8 3 4 -5 7 -18 7 -13 0
-21 -3 -18 -7z"/>
<path d="M3227 1939 c7 -7 15 -10 18 -7 3 3 -2 9 -12 12 -14 6 -15 5 -6 -5z"/>
<path d="M737 1773 c-4 -3 -7 -10 -7 -15 0 -4 144 -8 321 -8 252 0 320 3 317
13 -4 9 -77 13 -315 15 -170 1 -312 -1 -316 -5z"/>
<path d="M512 1566 c-49 -17 -98 -70 -112 -121 -36 -127 88 -251 214 -215 94
26 151 124 126 215 -20 73 -98 133 -170 133 -14 0 -40 -5 -58 -12z m103 -117
c19 -17 35 -39 35 -49 0 -10 -16 -32 -36 -50 l-37 -32 -41 41 -40 41 39 40
c21 22 40 40 42 40 1 0 18 -14 38 -31z"/>
<path d="M550 1401 c0 -4 11 -6 25 -3 14 2 25 6 25 8 0 2 -11 4 -25 4 -14 0
-25 -4 -25 -9z"/>
<path d="M1288 1573 c6 -2 18 -2 25 0 6 3 1 5 -13 5 -14 0 -19 -2 -12 -5z"/>
<path d="M2018 1573 c6 -2 18 -2 25 0 6 3 1 5 -13 5 -14 0 -19 -2 -12 -5z"/>
<path d="M2748 1573 c6 -2 18 -2 25 0 6 3 1 5 -13 5 -14 0 -19 -2 -12 -5z"/>
<path d="M3478 1573 c6 -2 18 -2 25 0 6 3 1 5 -13 5 -14 0 -19 -2 -12 -5z"/>
<path d="M2711 1453 c0 -16 3 -22 6 -15 2 7 22 12 44 12 l39 0 0 -50 0 -50
-39 0 c-22 0 -42 5 -44 13 -3 6 -6 0 -6 -15 -1 -27 1 -28 49 -28 l50 0 0 80 0
80 -50 0 c-48 0 -50 -1 -49 -27z m72 10 c-13 -2 -33 -2 -45 0 -13 2 -3 4 22 4
25 0 35 -2 23 -4z m0 -130 c-13 -2 -33 -2 -45 0 -13 2 -3 4 22 4 25 0 35 -2
23 -4z"/>
<path d="M2040 1466 c0 -2 7 -7 16 -10 8 -3 12 -2 9 4 -6 10 -25 14 -25 6z"/>
<path d="M3510 1459 c0 -17 -32 -38 -60 -40 -17 -1 -20 -3 -7 -6 9 -2 17 -8
17 -13 0 -5 -8 -11 -17 -13 -13 -3 -10 -5 7 -6 28 -2 60 -23 60 -40 0 -6 8
-11 18 -10 10 0 12 3 5 6 -7 2 -13 9 -13 15 0 6 7 7 16 4 8 -3 12 -2 9 4 -3 6
-17 10 -29 10 -13 0 -29 7 -36 15 -17 20 3 45 36 45 12 0 26 4 29 10 3 6 -1 7
-9 4 -9 -3 -16 -2 -16 4 0 6 6 13 13 15 7 3 5 6 -5 6 -10 1 -18 -4 -18 -10z"/>
<path d="M1260 1401 c0 -58 1 -60 23 -52 12 5 32 5 45 0 23 -9 23 -8 20 49
l-3 57 -42 3 -43 3 0 -60z m80 5 c0 -44 0 -44 -35 -44 -35 0 -35 0 -35 44 0
44 0 44 35 44 35 0 35 0 35 -44z"/>
<path d="M1979 1443 c-13 -16 -12 -17 4 -4 9 7 17 15 17 17 0 8 -8 3 -21 -13z"/>
<path d="M2086 1427 c3 -10 9 -15 12 -12 3 3 0 11 -7 18 -10 9 -11 8 -5 -6z"/>
<path d="M2012 1408 c2 -13 10 -23 18 -23 8 0 16 10 18 23 3 17 -2 22 -18 22
-16 0 -21 -5 -18 -22z m28 2 c0 -5 -4 -10 -10 -10 -5 0 -10 5 -10 10 0 6 5 10
10 10 6 0 10 -4 10 -10z"/>
<path d="M2755 1400 c0 -26 2 -27 15 -15 13 13 13 17 0 30 -13 13 -15 11 -15
-15z"/>
<path d="M1122 1400 c0 -14 2 -19 5 -12 2 6 2 18 0 25 -3 6 -5 1 -5 -13z"/>
<path d="M1472 1400 c0 -14 2 -19 5 -12 2 6 2 18 0 25 -3 6 -5 1 -5 -13z"/>
<path d="M1852 1400 c0 -14 2 -19 5 -12 2 6 2 18 0 25 -3 6 -5 1 -5 -13z"/>
<path d="M1962 1400 c0 -14 2 -19 5 -12 2 6 2 18 0 25 -3 6 -5 1 -5 -13z"/>
<path d="M2202 1400 c0 -14 2 -19 5 -12 2 6 2 18 0 25 -3 6 -5 1 -5 -13z"/>
<path d="M2582 1400 c0 -14 2 -19 5 -12 2 6 2 18 0 25 -3 6 -5 1 -5 -13z"/>
<path d="M2932 1400 c0 -14 2 -19 5 -12 2 6 2 18 0 25 -3 6 -5 1 -5 -13z"/>
<path d="M3312 1400 c0 -14 2 -19 5 -12 2 6 2 18 0 25 -3 6 -5 1 -5 -13z"/>
<path d="M3662 1400 c0 -14 2 -19 5 -12 2 6 2 18 0 25 -3 6 -5 1 -5 -13z"/>
<path d="M2086 1373 c-6 -14 -5 -15 5 -6 7 7 10 15 7 18 -3 3 -9 -2 -12 -12z"/>
<path d="M1970 1366 c0 -2 8 -10 18 -17 15 -13 16 -12 3 4 -13 16 -21 21 -21
13z"/>
<path d="M1288 1223 c6 -2 18 -2 25 0 6 3 1 5 -13 5 -14 0 -19 -2 -12 -5z"/>
<path d="M2018 1223 c6 -2 18 -2 25 0 6 3 1 5 -13 5 -14 0 -19 -2 -12 -5z"/>
<path d="M2748 1223 c6 -2 18 -2 25 0 6 3 1 5 -13 5 -14 0 -19 -2 -12 -5z"/>
<path d="M3478 1223 c6 -2 18 -2 25 0 6 3 1 5 -13 5 -14 0 -19 -2 -12 -5z"/>
<path d="M328 1123 c7 -3 16 -2 19 1 4 3 -2 6 -13 5 -11 0 -14 -3 -6 -6z"/>
<path d="M589 1119 c-2 -27 3 -64 9 -71 4 -4 6 11 5 33 -1 39 -12 67 -14 38z"/>
<path d="M1850 1085 c0 -27 2 -46 4 -44 8 8 10 78 3 85 -4 4 -7 -14 -7 -41z"/>
<path d="M2580 1126 c0 -2 9 -6 20 -9 11 -3 18 -1 14 4 -5 9 -34 13 -34 5z"/>
<path d="M2869 1119 c-2 -27 3 -64 9 -71 4 -4 6 11 5 33 -1 39 -12 67 -14 38z"/>
<path d="M480 1106 c0 -2 7 -7 16 -10 8 -3 12 -2 9 4 -6 10 -25 14 -25 6z"/>
<path d="M633 1075 c0 -22 2 -30 4 -17 2 12 2 30 0 40 -3 9 -5 -1 -4 -23z"/>
<path d="M665 1100 c-3 -6 1 -7 9 -4 18 7 21 14 7 14 -6 0 -13 -4 -16 -10z"/>
<path d="M736 1102 c-2 -4 4 -8 14 -8 10 0 16 4 14 8 -3 4 -9 8 -14 8 -5 0
-11 -4 -14 -8z"/>
<path d="M810 1106 c0 -2 7 -7 16 -10 8 -3 12 -2 9 4 -6 10 -25 14 -25 6z"/>
<path d="M1270 1106 c0 -2 7 -7 16 -10 8 -3 12 -2 9 4 -6 10 -25 14 -25 6z"/>
<path d="M1385 1100 c-3 -6 1 -7 9 -4 18 7 21 14 7 14 -6 0 -13 -4 -16 -10z"/>
<path d="M1946 1102 c-2 -4 4 -8 14 -8 10 0 16 4 14 8 -3 4 -9 8 -14 8 -5 0
-11 -4 -14 -8z"/>
<path d="M2006 1101 c-4 -5 3 -7 14 -4 23 6 26 13 6 13 -8 0 -17 -4 -20 -9z"/>
<path d="M2115 1100 c-3 -6 1 -7 9 -4 18 7 21 14 7 14 -6 0 -13 -4 -16 -10z"/>
<path d="M2645 1100 c-3 -6 1 -7 9 -4 18 7 21 14 7 14 -6 0 -13 -4 -16 -10z"/>
<path d="M2703 1075 c0 -22 2 -30 4 -17 2 12 2 30 0 40 -3 9 -5 -1 -4 -23z"/>
<path d="M2775 1100 c-3 -6 1 -7 9 -4 18 7 21 14 7 14 -6 0 -13 -4 -16 -10z"/>
<path d="M2920 1106 c0 -2 7 -7 16 -10 8 -3 12 -2 9 4 -6 10 -25 14 -25 6z"/>
<path d="M3426 1102 c-2 -4 4 -8 14 -8 10 0 16 4 14 8 -3 4 -9 8 -14 8 -5 0
-11 -4 -14 -8z"/>
<path d="M3486 1101 c-4 -5 3 -7 14 -4 23 6 26 13 6 13 -8 0 -17 -4 -20 -9z"/>
<path d="M3596 1102 c-2 -4 4 -8 14 -8 10 0 16 4 14 8 -3 4 -9 8 -14 8 -5 0
-11 -4 -14 -8z"/>
<path d="M1197 1089 c7 -7 15 -10 18 -7 3 3 -2 9 -12 12 -14 6 -15 5 -6 -5z"/>
<path d="M3357 1089 c7 -7 15 -10 18 -7 3 3 -2 9 -12 12 -14 6 -15 5 -6 -5z"/>
<path d="M460 1075 c0 -8 9 -10 25 -7 14 2 25 6 25 7 0 1 -11 5 -25 7 -16 3
-25 1 -25 -7z"/>
<path d="M701 1074 c0 -11 3 -14 6 -6 3 7 2 16 -1 19 -3 4 -6 -2 -5 -13z"/>
<path d="M2742 1065 c0 -16 2 -22 5 -12 2 9 2 23 0 30 -3 6 -5 -1 -5 -18z"/>
<path d="M2901 1074 c0 -11 3 -14 6 -6 3 7 2 16 -1 19 -3 4 -6 -2 -5 -13z"/>
<path d="M820 1073 c19 -9 10 -25 -11 -20 -16 4 -19 3 -11 -5 13 -13 45 -2 40
14 -2 6 -10 13 -16 14 -7 1 -8 0 -2 -3z"/>
<path d="M1276 1073 c5 -5 12 -12 16 -18 4 -6 8 -2 8 8 0 9 -7 17 -17 17 -9 0
-12 -3 -7 -7z"/>
<path d="M1393 1073 c9 -2 23 -2 30 0 6 3 -1 5 -18 5 -16 0 -22 -2 -12 -5z"/>
<path d="M1943 1073 c9 -2 23 -2 30 0 6 3 -1 5 -18 5 -16 0 -22 -2 -12 -5z"/>
<path d="M2005 1070 c-8 -13 3 -30 18 -29 9 0 9 2 0 6 -18 7 -16 21 5 26 15 4
15 5 0 6 -9 0 -20 -3 -23 -9z"/>
<path d="M2610 1067 c0 -8 -8 -18 -17 -20 -17 -4 -17 -5 0 -6 18 -1 35 25 23
36 -3 4 -6 -1 -6 -10z"/>
<path d="M2653 1073 c9 -2 23 -2 30 0 6 3 -1 5 -18 5 -16 0 -22 -2 -12 -5z"/>
<path d="M3485 1070 c-8 -13 3 -30 18 -29 9 0 9 2 0 6 -18 7 -16 21 5 26 15 4
15 5 0 6 -9 0 -20 -3 -23 -9z"/>
<path d="M3593 1073 c9 -2 23 -2 30 0 6 3 -1 5 -18 5 -16 0 -22 -2 -12 -5z"/>
<path d="M1230 1062 c0 -6 -8 -13 -17 -15 -16 -4 -16 -5 -1 -6 18 -1 34 16 24
26 -3 4 -6 1 -6 -5z"/>
<path d="M3390 1062 c0 -6 -8 -13 -17 -15 -16 -4 -16 -5 -1 -6 18 -1 34 16 24
26 -3 4 -6 1 -6 -5z"/>
<path d="M667 1049 c7 -7 15 -10 18 -7 3 3 -2 9 -12 12 -14 6 -15 5 -6 -5z"/>
<path d="M1388 1048 c5 -5 16 -8 23 -6 8 3 3 7 -10 11 -17 4 -21 3 -13 -5z"/>
<path d="M1947 1049 c7 -7 15 -10 18 -7 3 3 -2 9 -12 12 -14 6 -15 5 -6 -5z"/>
<path d="M2117 1049 c7 -7 15 -10 18 -7 3 3 -2 9 -12 12 -14 6 -15 5 -6 -5z"/>
<path d="M2648 1048 c5 -5 16 -8 23 -6 8 3 3 7 -10 11 -17 4 -21 3 -13 -5z"/>
<path d="M2777 1049 c7 -7 15 -10 18 -7 3 3 -2 9 -12 12 -14 6 -15 5 -6 -5z"/>
<path d="M2930 1050 c-9 -6 -10 -10 -3 -10 6 0 15 5 18 10 8 12 4 12 -15 0z"/>
<path d="M3597 1049 c7 -7 15 -10 18 -7 3 3 -2 9 -12 12 -14 6 -15 5 -6 -5z"/>
<path d="M328 1043 c7 -3 16 -2 19 1 4 3 -2 6 -13 5 -11 0 -14 -3 -6 -6z"/>
<path d="M2673 925 c0 -27 2 -38 4 -22 2 15 2 37 0 50 -2 12 -4 0 -4 -28z"/>
<path d="M2620 946 c0 -2 7 -7 16 -10 8 -3 12 -2 9 4 -6 10 -25 14 -25 6z"/>
<path d="M2745 940 c-3 -6 1 -7 9 -4 18 7 21 14 7 14 -6 0 -13 -4 -16 -10z"/>
<path d="M2816 942 c-2 -4 4 -8 14 -8 10 0 16 4 14 8 -3 4 -9 8 -14 8 -5 0
-11 -4 -14 -8z"/>
<path d="M2712 905 c0 -16 2 -22 5 -12 2 9 2 23 0 30 -3 6 -5 -1 -5 -18z"/>
<path d="M2870 918 c0 -5 11 -8 25 -8 14 0 25 3 25 8 0 4 -11 7 -25 7 -14 0
-25 -3 -25 -7z"/>
<path d="M2630 890 c-9 -6 -10 -10 -3 -10 6 0 15 5 18 10 8 12 4 12 -15 0z"/>
<path d="M2747 889 c7 -7 15 -10 18 -7 3 3 -2 9 -12 12 -14 6 -15 5 -6 -5z"/>
<path d="M3190 486 c0 -2 7 -7 16 -10 8 -3 12 -2 9 4 -6 10 -25 14 -25 6z"/>
<path d="M309 452 c-32 -27 -29 -69 12 -131 18 -29 35 -47 38 -40 2 7 17 33
33 58 34 55 35 75 3 106 -29 30 -55 32 -86 7z m79 -14 c7 -7 12 -23 12 -36 0
-25 -36 -92 -48 -92 -14 0 -52 67 -52 91 0 32 17 49 50 49 14 0 31 -5 38 -12z"/>
<path d="M335 410 c-8 -14 3 -30 21 -30 8 0 14 9 14 20 0 21 -24 28 -35 10z"/>
<path d="M1633 455 c0 -8 4 -12 9 -9 5 3 6 10 3 15 -9 13 -12 11 -12 -6z"/>
<path d="M2373 455 c0 -8 4 -12 9 -9 5 3 6 10 3 15 -9 13 -12 11 -12 -6z"/>
<path d="M1160 452 c0 -5 7 -9 15 -9 8 0 12 4 9 9 -3 4 -9 8 -15 8 -5 0 -9 -4
-9 -8z"/>
<path d="M1843 405 c0 -45 1 -52 6 -26 8 48 31 53 31 7 0 -20 5 -36 10 -36 12
0 13 50 1 69 -5 8 -16 11 -24 8 -11 -4 -17 1 -20 16 -2 12 -4 -5 -4 -38z"/>
<path d="M1936 452 c-3 -5 1 -9 9 -9 8 0 12 4 9 9 -3 4 -7 8 -9 8 -2 0 -6 -4
-9 -8z"/>
<path d="M2582 405 c1 -47 2 -52 7 -25 4 22 12 35 21 35 9 0 18 -13 22 -35 l6
-35 -1 40 c-2 33 -6 40 -22 40 -11 0 -23 9 -27 20 -3 11 -6 -7 -6 -40z"/>
<path d="M2676 452 c-2 -4 4 -9 15 -9 11 -1 17 2 14 8 -7 11 -22 12 -29 1z"/>
<path d="M3200 446 c7 -7 13 -7 20 0 6 6 3 10 -10 10 -13 0 -16 -4 -10 -10z"/>
<path d="M730 439 c-13 -9 -12 -10 2 -5 14 4 18 -3 21 -42 l3 -47 2 53 c2 53
-2 60 -28 41z"/>
<path d="M810 435 c0 -24 4 -30 18 -27 17 4 27 -27 14 -40 -8 -8 -16 -7 -28 3
-15 12 -17 12 -12 -1 2 -8 16 -15 29 -15 19 0 25 6 27 28 3 22 -1 30 -17 34
-28 7 -27 21 2 26 19 4 18 4 -5 6 -19 1 -28 -4 -28 -14z"/>
<path d="M885 438 c-2 -7 -3 -29 -2 -48 2 -30 5 -35 27 -35 23 0 25 4 23 40
-1 22 -2 43 -2 48 -2 12 -41 8 -46 -5z m38 -13 c1 -5 -6 -11 -15 -13 -11 -2
-18 3 -18 13 0 17 30 18 33 0z m2 -45 c0 -8 -8 -16 -17 -18 -13 -2 -18 3 -18
18 0 15 5 20 18 18 9 -2 17 -10 17 -18z"/>
<path d="M1072 403 l-2 -53 33 1 c29 2 29 2 5 6 -24 4 -27 9 -31 51 l-3 47 -2
-52z"/>
<path d="M1252 403 l-2 -53 33 1 c29 2 29 2 5 6 -24 4 -27 9 -31 51 l-3 47 -2
-52z"/>
<path d="M1513 400 c0 -30 2 -43 4 -27 3 21 10 27 28 27 18 0 25 -6 28 -27 2
-16 4 -3 4 27 0 30 -2 45 -4 33 -3 -16 -11 -23 -28 -23 -17 0 -25 7 -28 23 -2
12 -4 -3 -4 -33z"/>
<path d="M1762 438 c-17 -17 -15 -63 3 -78 18 -15 47 -10 53 10 5 13 3 13 -11
1 -25 -20 -47 -6 -47 29 0 35 22 49 47 29 14 -12 16 -12 11 1 -6 19 -40 24
-56 8z"/>
<path d="M2133 400 c0 -30 2 -43 4 -27 2 15 2 39 0 55 -2 15 -4 2 -4 -28z"/>
<path d="M2253 400 c0 -30 2 -43 4 -27 3 21 10 27 28 27 18 0 25 -6 28 -27 2
-16 4 -3 4 27 0 30 -2 45 -4 33 -3 -16 -11 -23 -28 -23 -17 0 -25 7 -28 23 -2
12 -4 -3 -4 -33z"/>
<path d="M2502 438 c-17 -17 -15 -63 3 -78 18 -15 47 -10 53 10 5 13 3 13 -11
1 -25 -20 -47 -6 -47 29 0 35 22 49 47 29 14 -12 16 -12 11 1 -6 19 -40 24
-56 8z"/>
<path d="M2880 431 c0 -11 -6 -22 -12 -24 -10 -4 -10 -6 0 -6 6 -1 12 -12 12
-26 0 -20 5 -25 25 -25 34 0 53 39 37 75 -15 31 -62 36 -62 6z m54 -13 c8 -13
8 -23 0 -35 -17 -27 -44 -29 -44 -4 0 12 6 21 13 22 10 0 10 2 0 6 -7 2 -13
11 -13 20 0 19 30 13 44 -9z"/>
<path d="M3081 398 c2 -52 2 -52 8 -13 l6 40 25 -37 c14 -21 28 -38 33 -38 4
0 7 23 7 50 0 28 -4 50 -10 50 -5 0 -10 -17 -10 -37 l0 -38 -22 38 c-12 20
-26 37 -30 37 -4 0 -7 -24 -7 -52z"/>
<path d="M966 421 c-3 -5 3 -7 14 -4 11 3 20 0 20 -6 0 -6 -6 -11 -14 -11 -19
0 -36 -23 -28 -37 4 -7 18 -11 30 -10 20 1 23 6 20 37 -3 34 -28 54 -42 31z
m34 -40 c0 -14 -18 -23 -30 -16 -6 4 -8 11 -5 16 8 12 35 12 35 0z"/>
<path d="M1151 416 c-16 -19 -11 -46 11 -60 12 -7 21 -7 28 0 8 8 4 10 -11 10
-12 -1 -24 5 -26 12 -3 7 5 12 22 12 20 0 26 4 23 17 -4 23 -31 28 -47 9z m39
-6 c0 -5 -9 -10 -21 -10 -11 0 -17 5 -14 10 3 6 13 10 21 10 8 0 14 -4 14 -10z"/>
<path d="M1331 417 c-16 -16 -14 -42 5 -58 21 -18 47 -1 55 37 5 26 3 29 -21
31 -15 1 -32 -3 -39 -10z m44 -27 c0 -15 -6 -26 -16 -28 -19 -3 -31 21 -22 43
9 25 38 13 38 -15z"/>
<path d="M1413 390 c0 -25 2 -35 4 -22 2 12 2 32 0 45 -2 12 -4 2 -4 -23z"/>
<path d="M1615 421 c-3 -6 0 -8 8 -5 8 3 18 1 21 -4 3 -6 -6 -13 -20 -16 -35
-9 -28 -41 9 -42 26 -1 28 1 25 35 -3 36 -28 55 -43 32z m35 -40 c0 -14 -18
-23 -30 -16 -6 4 -8 11 -5 16 8 12 35 12 35 0z"/>
<path d="M1683 390 c0 -25 2 -35 4 -22 2 12 2 32 0 45 -2 12 -4 2 -4 -23z"/>
<path d="M1926 421 c-3 -5 3 -7 14 -4 11 3 20 0 20 -6 0 -6 -6 -11 -14 -11
-19 0 -36 -23 -28 -37 4 -7 18 -11 30 -10 20 1 23 6 20 37 -3 34 -28 54 -42
31z m34 -40 c0 -14 -18 -23 -30 -16 -6 4 -8 11 -5 16 8 12 35 12 35 0z"/>
<path d="M1993 395 c2 -36 5 -40 30 -43 26 -3 27 -2 26 40 -2 43 -2 43 -8 8
-4 -22 -12 -35 -21 -35 -9 0 -18 13 -22 35 l-6 35 1 -40z"/>
<path d="M2355 421 c-3 -6 0 -8 8 -5 8 3 18 1 21 -4 3 -6 -6 -13 -20 -16 -35
-9 -28 -41 9 -42 26 -1 28 1 25 35 -3 36 -28 55 -43 32z m35 -40 c0 -14 -18
-23 -30 -16 -6 4 -8 11 -5 16 8 12 35 12 35 0z"/>
<path d="M2423 390 c0 -25 2 -35 4 -22 2 12 2 32 0 45 -2 12 -4 2 -4 -23z"/>
<path d="M2666 421 c-3 -5 3 -7 14 -4 11 3 20 1 20 -5 0 -5 -9 -12 -21 -15
-30 -8 -21 -41 12 -45 25 -3 26 -1 20 35 -6 37 -32 56 -45 34z m34 -46 c0 -8
-7 -15 -15 -15 -8 0 -15 7 -15 15 0 8 7 15 15 15 8 0 15 -7 15 -15z"/>
<path d="M2731 408 c-2 -40 9 -58 35 -58 22 0 24 4 23 43 l-2 42 -6 -35 c-4
-22 -12 -35 -21 -35 -9 0 -17 13 -21 35 -5 29 -7 31 -8 8z"/>
<path d="M2976 421 c-3 -5 3 -7 14 -4 11 3 20 0 20 -6 0 -6 -6 -11 -14 -11
-19 0 -36 -23 -28 -37 4 -7 18 -11 30 -10 20 1 23 6 20 37 -3 34 -28 54 -42
31z m34 -40 c0 -14 -18 -23 -30 -16 -6 4 -8 11 -5 16 8 12 35 12 35 0z"/>
<path d="M3186 421 c-3 -5 3 -7 14 -4 11 3 20 1 20 -5 0 -5 -9 -12 -21 -15
-30 -8 -21 -41 12 -45 25 -3 26 -1 20 35 -6 37 -32 56 -45 34z m34 -46 c0 -8
-7 -15 -15 -15 -8 0 -15 7 -15 15 0 8 7 15 15 15 8 0 15 -7 15 -15z"/>
<path d="M3251 386 c1 -42 3 -41 13 7 9 38 34 35 39 -5 4 -33 4 -33 3 2 -1 31
-4 35 -28 36 -26 1 -28 -1 -27 -40z"/>
<path d="M3334 416 c-12 -31 0 -61 24 -60 12 0 21 -4 19 -10 -2 -6 -13 -11
-25 -10 -12 0 -19 -3 -16 -8 9 -14 42 -9 48 8 3 9 6 32 6 53 0 32 -3 37 -25
39 -15 1 -28 -4 -31 -12z m41 -26 c0 -13 -6 -25 -12 -27 -16 -6 -27 21 -19 43
9 23 31 11 31 -16z"/>
<path d="M2181 344 c0 -11 3 -14 6 -6 3 7 2 16 -1 19 -3 4 -6 -2 -5 -13z"/>
<path d="M730 225 c0 -17 4 -23 15 -19 18 7 32 -23 17 -38 -8 -8 -16 -7 -29 2
-17 13 -17 13 -1 -4 22 -25 48 -14 48 20 0 17 -6 28 -20 31 -27 7 -25 21 3 26
19 4 18 4 -5 6 -23 1 -28 -3 -28 -24z"/>
<path d="M810 235 c0 -24 4 -30 18 -27 17 4 27 -27 14 -40 -8 -8 -16 -7 -28 3
-15 12 -17 12 -12 -1 2 -8 16 -15 29 -15 19 0 25 6 27 28 3 22 -1 30 -17 34
-28 7 -27 21 2 26 19 4 18 4 -5 6 -19 1 -28 -4 -28 -14z"/>
<path d="M887 243 c-14 -13 -7 -84 8 -89 33 -13 56 35 39 80 -6 16 -35 22 -47
9z m38 -44 c0 -24 -5 -34 -15 -34 -16 0 -25 37 -16 62 10 26 31 8 31 -28z"/>
<path d="M959 226 c-16 -33 2 -79 29 -74 13 3 17 13 17 48 0 54 -27 69 -46 26z
m41 -26 c0 -43 -23 -57 -35 -20 -9 27 3 60 21 60 10 0 14 -12 14 -40z"/>
<path d="M1039 226 c-16 -33 2 -79 29 -74 13 3 17 13 17 48 0 54 -27 69 -46
26z m41 -26 c0 -43 -23 -57 -35 -20 -9 27 3 60 21 60 10 0 14 -12 14 -40z"/>
<path d="M1122 238 c-30 -30 -3 -98 33 -84 12 4 15 17 13 48 -3 45 -22 60 -46
36z m38 -38 c0 -43 -23 -57 -35 -20 -9 27 3 60 21 60 10 0 14 -12 14 -40z"/>
<path d="M1253 239 c3 -8 11 -31 18 -51 7 -21 15 -38 19 -38 3 0 12 17 19 38
8 20 16 43 19 51 3 9 1 12 -6 8 -6 -4 -13 -21 -17 -37 -8 -38 -22 -38 -30 0
-4 16 -11 33 -17 36 -6 4 -8 1 -5 -7z"/>
<path d="M1449 238 c-3 -32 9 -88 19 -88 6 0 7 45 3 93 -1 12 -21 8 -22 -5z"/>
<path d="M1340 190 c0 -22 5 -40 10 -40 6 0 10 18 10 40 0 22 -4 40 -10 40 -5
0 -10 -18 -10 -40z"/>
<path d="M1384 216 c-11 -29 1 -61 24 -64 12 -2 22 1 22 6 0 5 -7 9 -16 8 -9
0 -19 5 -21 12 -3 7 5 12 21 12 28 0 33 9 14 28 -16 16 -37 15 -44 -2z m41 -6
c3 -5 -3 -10 -14 -10 -12 0 -21 5 -21 10 0 6 6 10 14 10 8 0 18 -4 21 -10z"/>
<path d="M1501 185 l2 -40 6 34 c8 48 31 53 31 7 0 -20 5 -36 10 -36 12 0 13
49 2 67 -4 7 -18 11 -30 10 -19 -1 -22 -7 -21 -42z"/>
<path d="M1586 221 c-3 -5 3 -7 14 -4 11 3 20 0 20 -6 0 -6 -6 -11 -14 -11
-19 0 -36 -23 -28 -37 4 -7 18 -11 30 -10 20 1 23 6 20 37 -3 34 -28 54 -42
31z m34 -40 c0 -14 -18 -23 -30 -16 -6 4 -8 11 -5 16 8 12 35 12 35 0z"/>
<path d="M1651 186 l2 -41 6 35 c4 22 12 35 21 35 9 0 17 -13 21 -35 l6 -35 2
38 c1 49 28 51 34 2 l4 -35 -1 37 -1 38 -47 1 -48 1 1 -41z"/>
<path d="M1191 144 c0 -11 3 -14 6 -6 3 7 2 16 -1 19 -3 4 -6 -2 -5 -13z"/>
</g>
</svg>
