<?xml version="1.0" standalone="no"?>
<!DOCTYPE svg PUBLIC "-//W3C//DTD SVG 20010904//EN"
 "http://www.w3.org/TR/2001/REC-SVG-20010904/DTD/svg10.dtd">
<svg version="1.0" xmlns="http://www.w3.org/2000/svg"
 width="564.000000pt" height="564.000000pt" viewBox="0 0 564.000000 564.000000"
 preserveAspectRatio="xMidYMid meet">

<g transform="translate(0.000000,564.000000) scale(0.100000,-0.100000)"
fill="#000000" stroke="none">
<path d="M0 3195 c0 -2429 1 -2445 20 -2445 11 0 19 3 19 7 -1 5 -1 19 0 33 1
22 3 23 12 7 5 -9 7 -22 3 -28 -4 -7 -1 -10 7 -7 8 3 13 13 12 24 -1 10 5 27
13 38 13 19 14 19 14 2 0 -12 5 -16 15 -12 13 4 13 2 5 -14 -13 -25 -13 -30 4
-24 8 3 17 -2 20 -13 3 -10 3 5 1 32 -4 50 -4 50 10 20 12 -22 14 -24 11 -8
-6 32 2 29 42 -14 23 -26 32 -32 28 -18 -8 29 26 50 54 33 11 -7 21 -17 23
-23 2 -5 3 -2 2 8 -2 11 3 17 16 17 24 0 25 17 2 23 -14 3 -11 6 9 11 30 9 36
20 17 32 -7 4 -16 -1 -21 -10 -14 -25 -27 -19 -15 8 7 13 14 23 18 21 3 -2 3
9 1 25 -2 17 -8 28 -12 25 -5 -3 -5 -15 -2 -28 5 -21 5 -21 -12 -4 -12 12 -15
21 -8 30 5 7 12 25 15 41 l5 28 -23 -28 -22 -28 -5 27 c-4 18 -1 27 8 27 7 0
11 6 8 14 -4 9 3 16 18 19 13 3 -3 3 -34 0 -40 -4 -58 -2 -58 6 0 7 6 11 12
10 7 -1 20 1 28 4 13 5 54 13 84 16 4 1 5 12 2 25 -5 19 -1 26 14 31 12 4 27
2 34 -4 21 -17 26 -1 9 26 -13 19 -13 27 -4 36 10 9 12 9 9 -3 -1 -9 2 -17 7
-18 6 -1 10 2 10 7 0 21 16 23 22 3 9 -35 23 -26 24 16 1 20 3 29 6 20 3 -11
14 -18 28 -18 29 0 43 18 21 26 -23 9 -20 27 4 21 11 -3 18 0 17 7 -1 6 8 10
21 9 13 -2 25 4 28 12 4 8 9 13 13 10 5 -2 32 -6 60 -9 52 -5 53 -4 47 19 -4
14 -1 27 6 31 8 5 9 2 5 -9 -7 -18 8 -33 18 -17 10 16 28 12 21 -5 -4 -10 1
-15 15 -15 15 0 19 5 15 16 -3 9 -2 12 5 9 5 -4 16 -2 23 4 10 9 15 8 20 -4 3
-9 0 -15 -9 -15 -8 0 -15 -4 -15 -10 0 -19 24 -10 47 17 l23 28 -9 -26 c-11
-31 -6 -39 26 -39 13 0 23 -5 23 -10 0 -14 70 -5 80 10 6 9 13 7 29 -9 21 -21
30 -47 12 -37 -7 5 -21 -14 -21 -28 0 -10 84 2 88 12 5 17 22 5 22 -18 0 -15
18 -30 36 -30 2 0 1 12 -2 26 -5 20 -3 25 7 22 9 -3 13 -17 12 -37 -1 -17 2
-29 7 -26 5 3 8 21 6 39 -2 26 1 33 12 28 8 -2 18 1 22 9 5 7 12 10 16 6 4 -4
0 -13 -9 -20 -13 -9 -16 -20 -11 -44 6 -28 8 -30 25 -20 24 15 24 24 2 30 -12
3 -11 4 3 2 30 -2 47 21 38 53 -8 28 -10 37 -13 62 -2 11 -5 10 -11 -5 -7 -15
-9 -16 -9 -4 -1 22 31 49 36 32 7 -20 23 -15 23 7 0 11 8 24 18 28 13 5 11 8
-13 12 l-30 6 33 14 c17 8 32 18 32 22 0 12 38 10 45 -2 3 -5 11 -10 16 -10 6
0 7 5 4 10 -12 19 6 31 21 15 9 -8 22 -15 30 -15 8 0 14 -6 14 -14 0 -19 52
-36 73 -24 10 5 23 6 30 1 6 -4 20 -6 31 -4 11 1 17 -2 14 -10 -7 -20 -24 -21
-42 -4 -13 14 -16 14 -16 2 0 -21 41 -29 67 -12 12 8 24 11 28 6 3 -5 -1 -12
-7 -14 -7 -3 -3 -6 9 -6 12 -1 25 -6 28 -11 10 -16 65 -12 65 5 0 17 16 20 25
5 7 -11 35 -2 35 11 0 5 -8 9 -17 10 -12 0 -8 4 10 11 15 5 25 13 22 18 -3 4
6 15 20 24 15 10 26 12 30 6 3 -6 -1 -10 -9 -10 -9 0 -16 -4 -16 -10 0 -5 10
-10 21 -10 19 0 21 4 16 33 -3 17 -3 26 0 20 6 -16 53 -17 53 -2 0 5 5 7 11 3
8 -5 8 -9 -1 -14 -22 -13 7 -21 33 -9 20 9 32 8 58 -5 23 -12 35 -13 40 -5 5
8 8 8 14 -1 4 -7 -1 -14 -15 -17 -13 -3 -19 -11 -16 -19 3 -8 1 -14 -4 -14 -6
0 -10 5 -10 10 0 6 -4 10 -10 10 -21 0 -9 -20 17 -26 20 -6 31 -2 45 16 14 18
22 20 30 12 9 -9 9 -12 -1 -12 -7 0 -9 -5 -6 -10 9 -15 23 -12 42 9 9 11 21
17 26 14 5 -3 -1 -14 -14 -24 -18 -14 -20 -19 -8 -19 20 0 80 -30 62 -30 -7 0
-13 -4 -13 -10 0 -15 41 -12 54 4 9 13 14 11 30 -11 18 -25 18 -25 -2 -19 -11
4 -32 1 -47 -6 -25 -11 -29 -10 -43 10 -16 25 -39 28 -77 10 -18 -8 -22 -14
-13 -20 18 -11 30 -10 23 2 -4 6 6 10 24 10 16 0 34 -6 38 -13 4 -8 22 -17 38
-21 19 -4 25 -3 17 2 -11 7 -10 10 3 16 22 8 27 8 22 -1 -3 -5 12 -8 32 -7 44
1 142 34 135 46 -3 4 1 5 8 3 20 -8 298 73 331 96 15 11 27 15 27 8 0 -7 9 -9
26 -5 18 5 41 -2 81 -24 31 -16 58 -28 60 -26 9 8 -87 57 -122 63 l-37 6 34
17 c55 27 70 31 62 18 -10 -16 46 -1 67 18 9 8 31 16 49 17 23 1 46 14 73 40
21 20 43 34 49 31 12 -8 49 26 42 38 -3 4 -2 7 3 6 4 -2 20 10 35 25 17 16 38
27 55 27 15 0 35 5 43 11 11 8 7 9 -17 5 -44 -7 -132 10 -155 31 -25 22 -25
96 1 122 22 22 146 61 195 61 20 0 59 -11 86 -25 62 -32 112 -32 153 -2 42 31
76 43 172 61 60 11 84 20 98 38 10 13 52 59 92 103 85 93 105 119 125 160 8
17 22 41 31 55 9 14 19 44 22 67 6 49 61 176 93 215 12 15 25 47 29 70 4 24 8
55 11 69 10 69 50 169 83 214 40 54 52 77 57 113 1 12 14 46 29 75 14 29 27
63 30 75 2 12 6 26 9 30 3 5 6 25 8 45 1 21 5 37 9 37 4 0 5 8 3 18 -2 9 1 27
8 38 37 61 49 86 45 91 -3 2 -13 -12 -23 -33 -10 -20 -20 -32 -22 -25 -3 8 0
16 5 20 5 3 17 34 28 69 10 35 23 66 28 69 5 3 3 9 -4 14 -9 6 -10 12 -4 17
20 14 35 51 24 57 -6 4 -6 11 -1 18 12 15 27 77 23 96 -1 8 2 10 11 5 11 -6
11 -5 0 8 -9 11 -10 18 -2 23 6 3 8 10 6 14 -6 9 20 98 32 115 12 15 13 58 1
51 -14 -9 -11 7 6 25 8 9 17 32 20 51 l6 34 -15 -25 c-18 -29 -20 -23 -6 14 6
17 6 26 0 26 -19 0 -10 22 23 54 21 22 50 36 87 45 50 12 61 11 120 -9 79 -26
179 -85 244 -143 l48 -43 -26 -19 c-29 -22 -35 -38 -9 -28 13 5 15 2 10 -11
-4 -10 -7 -20 -7 -22 0 -2 -12 -4 -26 -4 -19 0 -25 -4 -22 -17 2 -10 11 -17
21 -17 20 2 23 -12 5 -19 -10 -4 -10 -8 1 -15 10 -8 6 -11 -18 -17 -17 -3 -31
-11 -31 -17 0 -6 6 -8 13 -5 6 3 21 8 32 12 17 6 18 5 3 -4 -9 -7 -14 -19 -11
-30 3 -12 -4 -28 -18 -42 -15 -15 -17 -20 -6 -16 47 19 52 19 30 -1 -23 -20
-16 -51 8 -37 10 6 11 5 4 -3 -6 -6 -25 -12 -42 -14 -17 -1 -29 -6 -27 -10 3
-5 10 -5 16 -2 6 4 9 1 6 -7 -7 -22 -46 -23 -51 -2 -3 12 -5 8 -6 -9 -1 -27
12 -35 44 -28 5 1 7 -2 2 -6 -4 -4 1 -16 10 -26 15 -16 15 -21 3 -28 -19 -12
-33 -2 -27 21 6 23 1 24 -19 4 -10 -9 -11 -15 -4 -15 6 0 10 -6 7 -12 -2 -7
-10 -12 -16 -10 -7 1 -9 -3 -6 -9 4 -6 15 -9 25 -6 10 2 24 1 31 -4 10 -6 8
-9 -9 -9 -13 0 -31 -7 -39 -16 -18 -18 -26 -64 -12 -64 6 0 7 -5 4 -10 -5 -8
-11 -7 -21 1 -11 9 -14 9 -14 -1 0 -7 -7 -10 -15 -6 -9 3 -19 -3 -25 -15 -12
-22 -35 -15 -26 8 3 8 1 11 -4 8 -6 -3 -7 -18 -4 -32 4 -16 3 -24 -3 -20 -5 3
-8 -6 -5 -24 3 -19 0 -29 -8 -29 -10 0 -10 -3 0 -15 10 -13 9 -15 -11 -15
l-24 0 24 -13 c29 -15 29 -31 1 -35 -25 -4 -27 -22 -2 -22 14 0 15 -2 2 -10
-12 -8 -11 -10 8 -10 18 0 22 -6 22 -30 0 -23 3 -28 17 -23 12 5 14 3 9 -8 -4
-8 -1 -6 7 3 17 22 24 23 24 3 0 -9 -11 -18 -24 -21 -12 -4 -23 -10 -23 -14 0
-5 9 -6 20 -3 11 3 20 0 20 -6 0 -6 -11 -11 -25 -11 -14 0 -25 5 -25 11 0 6
-7 4 -15 -5 -19 -19 -19 -32 0 -16 8 7 15 8 15 2 0 -5 -10 -17 -22 -26 -26
-19 -36 -8 86 -88 93 -60 139 -108 176 -182 33 -66 39 -135 16 -189 -7 -18
-53 -93 -103 -167 -120 -182 -133 -204 -133 -231 -1 -38 -90 -184 -130 -212
-22 -15 -40 -50 -40 -76 0 -10 -3 -21 -7 -24 -5 -2 -3 -3 3 -1 13 3 84 -87 84
-106 0 -7 -19 7 -41 31 -23 24 -38 38 -35 32 10 -18 5 -17 -45 11 -25 13 -88
31 -144 41 -122 22 -149 34 -80 35 28 1 44 4 37 7 -8 3 -44 2 -80 -2 l-67 -7
50 -14 c28 -8 94 -23 148 -34 54 -11 110 -27 125 -37 72 -44 102 -67 102 -78
0 -7 7 -16 16 -19 14 -5 14 -9 3 -23 -12 -15 -12 -16 6 -9 16 6 18 5 8 -5 -7
-7 -13 -20 -13 -28 0 -14 1 -14 10 -1 5 8 10 10 10 5 0 -18 -22 -34 -38 -28
-10 5 -13 2 -8 -6 6 -9 -1 -11 -31 -6 l-38 7 50 -26 c56 -29 139 -106 163
-151 20 -39 42 -122 42 -159 0 -29 -1 -29 -29 16 -42 66 -73 99 -88 94 -7 -3
-15 0 -19 6 -5 7 -2 8 7 4 8 -4 5 0 -6 8 -11 9 -25 14 -33 11 -7 -2 -15 2 -19
11 -5 13 -7 13 -14 2 -5 -8 -9 -9 -9 -2 0 7 -18 11 -50 10 -42 -2 -50 0 -50
16 0 10 -5 18 -11 18 -6 0 -9 -6 -6 -14 7 -17 -13 -26 -59 -26 -24 0 -32 4
-28 14 3 8 1 17 -5 21 -7 3 -11 -2 -11 -14 0 -12 -3 -21 -7 -22 -5 0 -15 -2
-23 -4 -8 -2 -37 -8 -65 -14 -27 -5 -58 -13 -68 -16 -13 -5 -16 -3 -11 8 3 8
1 18 -5 22 -7 4 -11 -3 -11 -18 0 -19 -8 -26 -39 -35 -51 -16 -62 -15 -55 3 4
8 1 15 -5 15 -6 0 -11 -8 -11 -18 0 -13 -20 -25 -72 -44 -111 -41 -128 -44
-129 -22 -1 14 -3 12 -8 -6 -8 -29 -91 -61 -91 -34 0 8 -5 14 -11 14 -6 0 -9
-8 -7 -18 4 -14 -5 -22 -39 -34 -40 -14 -44 -14 -53 1 -9 15 -9 15 -10 -1 0
-19 -10 -27 -41 -33 -11 -2 -29 -7 -40 -10 -14 -5 -17 -3 -13 9 3 9 1 16 -5
16 -6 0 -11 -8 -11 -18 0 -14 -12 -21 -45 -29 -41 -9 -45 -9 -45 8 0 11 -6 19
-14 19 -9 0 -12 -7 -9 -19 6 -25 -17 -30 -152 -38 -96 -5 -135 -1 -300 27
-153 27 -218 33 -333 33 -114 1 -142 3 -138 14 3 7 2 13 -3 13 -5 0 -11 -8
-14 -19 -3 -13 -18 -20 -52 -25 -140 -22 -316 -73 -424 -125 -35 -16 -69 -27
-75 -24 -6 3 -8 3 -4 -2 4 -4 -6 -18 -21 -31 -32 -27 -50 -32 -31 -9 11 13 10
14 -4 9 -9 -3 -17 -11 -17 -18 -3 -27 -5 -31 -14 -31 -5 0 -9 6 -9 13 2 18 -2
15 -20 -12 -11 -18 -13 -27 -4 -32 6 -4 8 -3 4 4 -3 6 -2 13 4 17 5 3 10 -1
10 -10 0 -8 -8 -19 -17 -23 -10 -4 -19 -13 -21 -21 -3 -12 -1 -12 15 0 10 8 7
0 -7 -17 -14 -17 -28 -29 -32 -27 -5 2 -8 -1 -8 -6 0 -6 6 -11 13 -11 8 0 7
-4 -3 -10 -13 -9 -13 -10 0 -10 12 0 13 -2 1 -9 -11 -7 -11 -9 0 -14 11 -4 11
-6 0 -6 -11 -1 -10 -5 5 -17 10 -8 13 -13 7 -9 -16 7 -16 4 -3 -29 6 -16 6
-27 -1 -31 -5 -4 -9 -3 -8 2 4 21 -2 34 -13 27 -6 -4 -8 -3 -5 3 4 6 0 41 -8
79 -10 48 -11 72 -4 81 6 7 9 18 6 25 -3 8 -9 3 -15 -12 -6 -14 -11 -19 -11
-11 -1 8 -4 12 -7 9 -3 -4 -1 -16 6 -27 6 -12 8 -26 4 -33 -4 -6 -12 1 -20 18
-7 16 -13 22 -13 14 -1 -11 -13 -15 -46 -16 -24 0 -42 3 -39 8 3 4 22 9 42 9
31 1 33 2 12 8 -14 3 -34 12 -45 18 -17 11 -18 14 -5 23 8 5 11 10 5 10 -5 0
-4 4 3 8 7 5 10 16 7 25 -5 12 -17 15 -56 11 -28 -3 -49 0 -49 5 0 6 19 12 43
14 35 3 33 4 -13 4 -30 0 -64 -4 -74 -10 -30 -15 -115 -14 -121 1 -7 19 -7 20
13 25 16 4 16 5 0 6 -22 1 -23 17 -2 25 12 5 13 8 2 20 -7 8 -16 11 -21 7 -8
-8 -19 -63 -18 -94 0 -14 -3 -16 -13 -8 -10 9 -17 5 -30 -13 -13 -20 -23 -25
-51 -22 -47 3 -45 -12 3 -17 32 -4 31 -4 -8 -3 -30 1 -44 5 -43 14 2 6 -4 12
-12 12 -8 0 -15 -7 -15 -15 0 -8 -9 -19 -20 -25 -23 -12 -27 -50 -5 -50 22 0
18 -17 -5 -23 -11 -3 -20 -1 -20 4 0 5 -7 9 -15 9 -18 0 -19 12 -3 28 9 9 9
12 0 12 -7 0 -12 -4 -12 -10 0 -15 -48 -12 -53 3 -2 6 -8 9 -12 5 -4 -4 3 -16
16 -27 14 -11 20 -23 15 -28 -5 -4 -11 -2 -13 5 -6 17 -23 15 -23 -3 0 -22
-17 -18 -30 5 -12 22 -30 18 -30 -6 0 -8 4 -13 9 -10 5 4 7 -4 4 -15 -4 -12
-14 -24 -25 -26 -10 -3 -18 -11 -18 -18 0 -7 -9 -15 -20 -18 -21 -5 -19 4 8
35 13 15 12 17 -7 15 -12 -1 -21 -4 -21 -8 0 -4 -8 -10 -17 -12 -17 -4 -17 -5
0 -6 18 -1 24 -21 6 -21 -8 0 -8 -4 0 -14 9 -11 9 -15 -1 -20 -7 -3 1 -3 17 1
25 5 28 3 18 -8 -7 -7 -13 -19 -13 -26 0 -17 27 -17 33 0 2 6 8 8 13 4 5 -4 2
-12 -6 -18 -13 -8 -11 -13 9 -29 l23 -20 -28 -1 -29 -1 30 -13 c22 -10 34 -10
43 -2 10 8 16 7 23 -4 8 -12 10 -12 19 1 5 8 7 21 5 29 -5 11 -3 12 10 1 8 -7
15 -19 15 -26 0 -8 5 -14 10 -14 6 0 10 7 10 15 0 8 5 15 10 15 6 0 10 -7 10
-15 0 -21 18 -19 23 3 4 14 5 13 6 -4 1 -23 43 -50 60 -40 14 9 14 39 0 53 -8
8 -7 13 1 18 6 4 17 2 23 -4 6 -6 21 -11 33 -11 12 0 25 -6 28 -12 3 -9 8 -8
16 5 13 20 50 23 68 5 9 -9 12 -9 12 0 0 7 -5 12 -11 12 -5 0 -7 5 -3 11 7 12
-15 59 -28 59 -4 0 -8 -7 -8 -15 0 -8 5 -15 10 -15 6 0 10 -7 10 -15 0 -8 -4
-15 -10 -15 -14 0 -32 39 -26 56 3 8 0 14 -6 14 -7 0 -9 -14 -5 -40 5 -36 3
-40 -16 -40 -13 0 -17 3 -11 8 6 4 14 26 17 50 4 36 3 42 -10 38 -8 -3 -22 -6
-31 -7 -14 0 -13 -2 3 -9 18 -8 18 -9 2 -9 -41 -2 -69 61 -30 64 43 3 36 15
-8 15 -38 1 -41 2 -24 12 29 16 36 30 30 56 -8 31 11 27 24 -5 l11 -28 -3 32
c-4 38 0 40 20 16 14 -17 14 -17 9 0 -4 12 -2 17 6 15 7 -3 15 -15 16 -27 2
-15 0 -21 -7 -17 -6 4 -11 3 -11 -2 0 -6 7 -12 15 -16 10 -4 15 1 15 15 0 11
5 17 10 14 6 -3 10 -1 10 4 0 6 -5 11 -11 11 -5 0 -7 5 -4 10 3 6 15 10 26 10
10 0 19 6 19 13 0 8 3 9 8 1 4 -6 14 -14 22 -17 9 -4 4 -6 -10 -4 -17 1 -26
-4 -28 -18 -3 -11 -12 -25 -21 -32 -15 -11 -15 -12 2 -13 9 0 17 -4 17 -10 0
-5 4 -10 10 -10 5 0 6 7 3 17 -4 11 -3 14 5 9 17 -10 15 -23 -8 -44 l-21 -19
21 -6 c11 -3 20 -12 20 -21 0 -11 9 -16 30 -16 32 0 40 14 15 27 -9 6 -11 13
-5 23 16 26 35 -6 32 -54 -1 -40 15 -71 37 -71 3 0 5 -4 3 -8 -1 -5 3 -7 10
-5 7 3 13 12 13 21 0 8 4 19 8 23 4 4 7 0 7 -10 0 -12 6 -16 18 -12 9 2 27 7
40 11 13 4 22 2 22 -4 0 -6 -11 -11 -25 -11 -16 0 -25 -6 -25 -15 0 -18 -17
-20 -22 -4 -2 7 -12 -1 -22 -16 -20 -31 -12 -50 10 -21 11 16 17 17 26 8 10
-10 10 -15 -2 -22 -20 -12 -6 -23 19 -15 23 7 28 31 9 38 -10 3 -10 7 1 20 19
24 30 21 41 -9 8 -21 16 -25 34 -22 17 4 23 1 19 -9 -3 -8 2 -13 17 -13 11 0
18 -4 15 -10 -3 -5 -1 -10 4 -10 6 0 11 5 11 10 0 14 33 13 48 -2 19 -19 14
-25 -15 -22 -18 2 -20 1 -8 -3 11 -3 23 -10 27 -17 6 -8 8 -7 8 2 0 6 5 12 11
12 6 0 9 -6 6 -13 -3 -7 3 -13 13 -13 10 0 16 4 13 9 -3 5 1 13 8 18 19 12 29
11 29 -2 0 -5 -4 -7 -10 -4 -5 3 -10 1 -10 -5 0 -6 7 -13 16 -17 13 -5 13 -8
2 -15 -9 -7 -3 -8 17 -4 l30 5 -27 -12 c-29 -11 -37 -27 -15 -27 18 0 67 -24
67 -32 0 -12 -28 -10 -35 2 -3 5 -13 10 -21 10 -18 0 -37 18 -47 43 -8 20 -28
19 -35 -2 -2 -7 5 -15 17 -18 12 -3 21 -13 21 -23 0 -10 6 -21 13 -24 6 -3 2
-3 -11 0 -12 3 -22 1 -22 -5 0 -6 -8 -11 -17 -11 -20 0 -49 50 -30 50 7 0 5 5
-3 10 -11 7 -16 4 -21 -13 -3 -12 -1 -28 4 -35 7 -9 6 -11 -7 -6 -9 3 -16 14
-16 23 0 13 -9 17 -37 18 -21 1 -45 -3 -53 -8 -10 -6 -1 -8 28 -9 36 0 43 -3
40 -18 -2 -10 -12 -16 -23 -15 -11 1 -28 -10 -39 -24 -23 -31 -35 -123 -17
-123 7 0 9 -5 5 -11 -4 -8 -9 -8 -17 0 -17 17 -30 13 -24 -8 5 -20 -28 -37
-39 -20 -3 5 -1 9 4 9 14 0 23 43 12 54 -6 6 -10 19 -10 30 0 16 -3 17 -12 8
-10 -10 -10 -17 0 -33 13 -21 7 -44 -9 -34 -5 3 -6 -1 -3 -9 8 -21 -24 -21
-54 0 -20 14 -22 14 -22 -3 0 -11 -5 -24 -12 -31 -9 -9 -9 -15 0 -24 15 -15
16 -28 2 -28 -5 0 -13 12 -16 26 l-6 25 -20 -21 c-12 -12 -27 -19 -35 -16 -9
4 -22 1 -29 -5 -10 -8 -14 -8 -14 0 0 15 -37 14 -44 -1 -3 -7 -4 0 -1 15 5 26
4 27 -14 17 -14 -7 -18 -16 -14 -28 6 -15 5 -15 -10 -4 -14 12 -17 11 -22 -11
-5 -18 -12 -23 -26 -20 -25 7 -25 23 1 23 11 0 20 5 20 10 0 14 -16 13 -40 -2
-17 -11 -22 -10 -30 2 -8 12 -10 12 -16 -3 -3 -9 -1 -24 6 -32 7 -9 10 -18 6
-22 -3 -3 -6 0 -6 8 0 12 -2 12 -9 0 -5 -7 -14 -10 -21 -6 -9 6 -9 9 1 16 24
14 0 23 -26 9 -32 -17 -32 -26 0 -34 16 -4 25 -13 25 -26 0 -17 7 -20 43 -20
24 0 48 5 55 12 9 9 12 9 12 0 0 -9 473 -12 2100 -12 l2100 0 0 777 c0 640 -3
787 -14 832 -35 134 -83 440 -101 646 -4 33 -8 71 -11 84 -5 21 -3 22 11 8 9
-10 15 -33 15 -62 0 -86 16 -37 18 56 2 99 12 138 12 48 0 -30 5 -90 10 -134
6 -44 14 -111 19 -150 6 -48 8 5 5 173 -4 229 -15 323 -41 364 -4 7 -13 42
-20 78 -11 56 -12 58 -9 18 2 -27 0 -48 -5 -48 -5 0 -6 -6 -3 -13 2 -7 0 -24
-5 -38 -9 -23 -10 -22 -11 11 0 19 -5 53 -10 74 -10 45 3 81 26 72 11 -4 14 7
14 59 0 35 -3 66 -7 68 -5 3 -7 -18 -7 -46 1 -33 0 -39 -3 -18 -3 27 -7 31
-15 20 -7 -11 -9 -9 -5 9 3 12 1 22 -3 22 -5 0 -11 17 -13 38 -2 24 -5 13 -7
-33 l-3 -70 -8 75 c-8 78 -18 393 -19 635 -1 126 13 603 23 795 3 41 3 56 0
33 -5 -49 -10 -51 -48 -21 -43 34 -314 148 -367 154 -44 6 -52 3 -91 -28 -117
-95 -243 -153 -412 -189 -49 -10 -94 -19 -99 -19 -12 0 2 -62 16 -71 6 -4 12
-30 12 -58 1 -28 5 -51 9 -51 5 0 5 -5 2 -10 -5 -8 -11 -7 -21 1 -8 6 -17 9
-21 5 -3 -3 -1 -6 6 -6 8 0 6 -8 -5 -25 -15 -23 -15 -25 0 -31 10 -4 15 -12
13 -18 -3 -7 4 -13 14 -13 19 -2 104 -67 104 -81 1 -4 6 -17 13 -29 21 -39 -3
-26 -90 47 -98 82 -99 83 -134 150 -35 67 -44 151 -20 194 23 41 119 113 169
127 22 6 60 26 84 44 41 31 86 46 179 60 22 3 52 14 66 23 14 9 51 34 84 56
32 21 69 48 81 59 20 17 31 19 91 14 105 -10 256 -64 334 -118 l26 -19 6 72
c3 40 8 111 11 158 l6 86 -53 19 c-35 13 -72 18 -109 16 -34 -1 -70 3 -92 13
-46 19 -87 7 -137 -39 -79 -72 -132 -107 -226 -151 -54 -25 -118 -55 -142 -67
-48 -25 -112 -74 -112 -87 0 -15 45 4 75 32 37 34 62 43 80 28 10 -9 14 -7 18
7 4 15 5 14 6 -4 1 -18 -11 -26 -69 -48 -43 -17 -75 -35 -82 -48 -16 -30 -37
-44 -76 -52 -18 -3 -40 -9 -49 -12 -8 -3 4 15 28 40 31 34 43 57 46 84 4 42
34 106 67 147 22 28 23 28 161 51 130 22 135 24 211 93 37 34 72 62 76 62 4 0
8 5 8 11 0 5 -4 7 -10 4 -5 -3 -7 0 -4 8 3 8 -3 21 -13 28 -22 17 -102 108
-114 130 -7 14 -4 17 16 15 25 -1 36 -16 13 -16 -7 0 -5 -5 5 -11 9 -5 17 -17
17 -24 0 -8 3 -14 8 -12 4 1 9 -2 10 -8 8 -22 25 -36 32 -25 4 6 12 0 20 -15
10 -19 19 -24 34 -19 21 6 21 6 1 -10 -16 -13 -17 -15 -3 -10 11 4 20 0 24
-10 3 -9 10 -13 15 -10 5 3 9 0 9 -5 0 -6 7 -11 15 -11 8 0 15 -4 15 -9 0 -16
32 -22 49 -9 15 12 15 11 1 -6 -14 -18 -13 -19 2 -13 10 3 20 1 24 -5 4 -7 9
-6 15 3 6 9 9 10 9 2 0 -9 19 -11 40 -3 3 1 13 2 23 1 9 -1 17 3 17 8 0 6 11
11 25 11 14 0 25 5 25 11 0 6 7 9 15 5 30 -11 43 54 70 349 14 160 28 305 31
322 l5 33 -642 0 c-441 0 -647 -4 -661 -11 -11 -6 -18 -7 -15 -2 4 6 -7 10
-24 11 -24 1 -28 -2 -19 -13 8 -9 8 -15 0 -20 -5 -3 -10 -1 -10 4 0 16 -30 13
-36 -3 -3 -8 -13 -13 -22 -11 -9 1 -11 0 -4 -2 6 -3 12 -8 12 -13 0 -12 -29
-76 -30 -65 -1 20 -30 -29 -30 -52 0 -24 -15 -31 -23 -10 -2 7 -10 0 -17 -15
-7 -16 -19 -28 -27 -28 -7 0 -13 -7 -13 -17 0 -14 2 -15 17 -1 10 8 27 18 38
22 16 5 14 1 -7 -18 -15 -14 -23 -26 -17 -28 14 -5 1 -35 -17 -42 -12 -5 -14
-1 -8 16 6 20 5 21 -10 9 -9 -7 -16 -20 -16 -28 0 -7 -7 -16 -15 -19 -8 -4
-12 -10 -9 -15 3 -5 9 -7 14 -4 4 3 11 -2 14 -10 4 -13 2 -13 -14 -5 -25 13
-26 13 -26 -9 0 -11 5 -19 10 -18 5 1 11 -7 13 -18 3 -16 2 -17 -6 -5 -14 20
-41 4 -60 -35 -9 -18 -16 -24 -21 -15 -4 7 -10 -1 -15 -22 -4 -18 -9 -27 -12
-20 -2 6 -9 12 -14 12 -5 0 -9 -6 -9 -12 1 -7 29 -26 63 -43 34 -16 64 -32 67
-35 3 -3 21 -14 40 -24 19 -11 44 -24 55 -30 38 -22 201 -140 239 -175 80 -73
145 -147 164 -186 36 -73 36 -78 -8 -136 -22 -30 -38 -60 -35 -67 3 -7 1 -11
-4 -8 -5 3 -22 -10 -37 -30 -16 -19 -34 -41 -39 -47 -43 -49 -96 -128 -90
-136 3 -6 0 -9 -8 -6 -8 4 -26 -12 -45 -37 -17 -24 -48 -62 -69 -84 -21 -23
-45 -52 -53 -64 -8 -12 -27 -39 -41 -59 -14 -20 -68 -99 -120 -176 -52 -77
-96 -142 -99 -145 -5 -5 -62 -94 -109 -170 -11 -19 -32 -57 -46 -85 -14 -27
-32 -61 -40 -75 -8 -14 -17 -42 -20 -63 -8 -48 -90 -134 -160 -166 -46 -21
-54 -22 -98 -11 -27 7 -51 9 -54 6 -4 -3 -15 1 -25 11 -10 9 -18 13 -18 10 0
-4 -8 1 -19 11 -10 9 -32 28 -49 40 -18 13 -50 43 -73 65 -23 23 -46 41 -51
39 -5 -1 -6 2 -3 9 8 12 -29 51 -39 41 -4 -3 -4 1 -1 9 3 9 -1 22 -10 29 -13
11 -15 8 -15 -20 0 -39 82 -138 173 -207 62 -46 189 -113 217 -113 19 0 60
-28 60 -41 0 -26 -620 -1 -739 31 -19 5 -39 6 -44 3 -6 -3 -7 -1 -3 5 4 7 1
12 -9 12 -8 0 -24 14 -34 31 -13 22 -21 27 -27 18 -5 -9 -9 -8 -14 7 -9 23 -2
44 14 44 6 0 18 29 27 65 13 53 14 65 3 65 -7 0 -18 -9 -24 -19 -13 -25 -13
-34 0 -26 6 3 10 1 10 -5 0 -7 -6 -10 -12 -7 -7 2 -12 12 -12 21 3 33 -13 14
-29 -36 -10 -29 -20 -61 -24 -70 -4 -13 0 -18 13 -18 15 0 16 -2 5 -9 -9 -6
-12 -21 -9 -45 2 -20 0 -36 -4 -36 -4 0 -8 -7 -8 -15 0 -8 -6 -15 -14 -15 -15
0 -38 23 -35 36 1 5 1 19 0 32 -1 21 -2 22 -17 8 -20 -21 -52 -22 -35 -2 9 11
9 15 -1 19 -10 4 -10 7 1 15 11 8 11 10 0 14 -11 4 -10 10 4 31 10 15 13 27 8
27 -14 0 -32 -54 -33 -99 -1 -108 116 -185 312 -205 92 -9 324 -11 337 -3 8 5
13 4 13 -3 0 -7 17 -8 51 -4 37 5 51 4 48 -4 -2 -7 -39 -57 -83 -112 -43 -56
-77 -103 -75 -104 2 -2 78 -30 169 -61 187 -65 247 -90 308 -128 23 -15 44
-27 47 -27 18 0 53 152 68 300 2 19 4 6 5 -30 2 -76 -12 -175 -34 -233 -9 -23
-17 -58 -18 -77 -5 -66 -58 -245 -78 -265 l-20 -20 11 23 c16 31 8 40 -63 72
-51 23 -436 173 -681 265 -177 67 -454 185 -620 264 -167 80 -258 117 -385
157 -76 23 -209 75 -304 119 -62 28 -81 33 -89 23 -6 -9 -7 -8 -3 4 4 13 -3
22 -24 33 -33 17 -52 20 -30 4 12 -9 12 -10 -3 -5 -10 3 -24 6 -30 6 -8 0 -7
4 2 9 11 7 9 10 -8 16 -14 4 -30 0 -47 -14 -24 -19 -54 -19 -54 -1 0 19 33 40
54 35 17 -5 18 -4 6 4 -8 6 -23 8 -34 5 -12 -4 -16 -2 -12 5 4 6 2 11 -4 11
-7 0 -10 -6 -7 -14 3 -8 -3 -22 -14 -32 -22 -20 -22 -20 -9 26 8 30 7 33 -4
18 -7 -10 -16 -18 -19 -18 -3 0 -4 8 -2 18 1 9 0 11 -2 5 -5 -15 -33 -18 -33
-4 0 5 -9 11 -20 14 -11 3 -18 2 -15 -3 3 -4 -2 -10 -10 -14 -8 -3 -15 -1 -15
4 0 5 -11 12 -25 16 -14 3 -25 10 -25 15 0 5 -8 6 -18 3 -14 -5 -14 -3 2 10
22 18 14 21 -15 6 -12 -7 -19 -7 -19 -1 0 6 -7 7 -17 4 -12 -5 -14 -3 -8 7 5
8 3 11 -6 8 -8 -3 -20 1 -27 8 -7 7 -20 10 -29 7 -11 -4 -14 -3 -9 5 4 7 3 12
-3 12 -5 0 -12 -8 -14 -17 -3 -13 -5 -11 -6 6 -1 24 -1 24 -17 5 -14 -18 -15
-18 -9 6 6 24 5 24 -9 6 -16 -19 -16 -19 -17 5 -1 14 -3 18 -6 8 -4 -18 -8
-17 -123 15 -69 20 -85 20 -104 0 -15 -14 -16 -11 -16 28 0 45 20 87 61 125
49 46 78 75 105 103 14 16 42 35 62 41 62 21 234 -3 584 -82 l137 -31 45 22
c25 12 51 18 57 14 6 -3 15 0 20 7 6 11 38 13 148 11 115 -3 144 -1 163 12 12
9 41 16 63 16 63 0 125 23 138 50 13 25 44 45 87 55 18 4 33 21 54 64 15 33
48 78 72 101 24 23 41 47 37 52 -3 7 -1 8 5 4 7 -4 22 2 34 13 14 14 33 20 54
18 18 -1 30 -5 28 -8 -1 -3 16 -21 39 -40 81 -66 74 -63 103 -40 58 46 190 67
224 36 19 -17 20 -17 39 6 12 15 16 30 11 39 -8 17 -3 40 10 40 4 0 10 -7 13
-14 4 -10 1 -13 -9 -9 -10 4 -12 0 -8 -11 10 -26 18 -19 49 38 16 30 32 51 35
46 9 -15 33 7 27 24 -4 9 -2 16 4 16 6 0 9 6 6 13 -2 6 -10 11 -16 9 -6 -1
-11 2 -11 8 0 13 13 13 26 0 16 -16 38 -3 81 48 59 71 81 106 75 121 -2 8 0
11 6 8 5 -4 15 -1 21 7 8 10 6 27 -8 69 -11 32 -16 57 -11 57 4 0 11 -6 14
-12 3 -7 3 -3 0 10 -6 23 11 31 19 10 3 -8 6 -5 6 6 1 15 -4 17 -24 12 -14 -4
-25 -2 -25 3 0 5 -8 12 -17 14 -12 3 -8 5 9 6 49 2 37 16 -13 15 -49 -1 -64 8
-32 20 14 6 14 8 -3 21 -18 14 -17 15 11 9 19 -4 25 -2 17 3 -7 6 -10 18 -6
29 5 15 4 16 -5 4 -5 -8 -13 -11 -18 -7 -10 10 18 28 35 22 15 -6 16 17 0 33
-9 9 -8 12 5 12 9 0 17 7 17 15 0 8 5 15 10 15 6 0 10 7 10 15 0 9 10 15 23
16 12 0 16 3 10 6 -20 8 -16 43 5 43 11 0 27 9 36 19 16 18 58 23 71 9 10 -9
75 17 75 30 0 10 3 10 15 -2 8 -8 13 -25 11 -38 -3 -18 -9 -22 -30 -20 -31 3
-33 -3 -5 -18 24 -13 53 4 45 27 -3 7 -1 13 5 13 6 0 8 7 5 16 -3 8 -2 13 3
10 5 -3 18 18 29 47 11 28 23 60 27 70 5 13 2 17 -14 17 -12 0 -21 4 -21 10 0
5 7 7 16 3 13 -5 15 -1 10 18 l-7 24 16 -25 16 -25 -7 24 c-4 15 -2 21 4 17
16 -10 24 12 12 31 -10 16 -11 16 -5 -2 3 -11 3 -16 -1 -12 -5 4 -9 27 -10 50
l-2 42 18 -40 17 -40 6 35 c4 20 20 67 37 105 16 39 25 72 19 73 -14 5 -11 19
8 38 17 17 17 18 -2 10 -16 -6 -18 -5 -7 5 20 21 39 -5 21 -28 -13 -17 -13
-17 6 -2 11 9 30 20 43 24 12 3 20 11 17 16 -4 5 3 22 14 38 11 15 18 31 15
34 -3 3 -2 12 2 19 4 7 9 21 9 32 1 10 10 25 19 31 12 9 13 14 5 17 -9 3 -7
11 5 31 10 14 15 31 11 37 -3 5 -2 10 4 10 9 0 21 24 21 43 0 4 11 29 25 57
14 27 25 57 25 66 0 9 9 18 19 21 31 8 31 28 1 30 -25 2 -30 -4 -50 -50 -12
-29 -30 -70 -40 -93 -11 -22 -24 -61 -31 -87 -6 -26 -15 -44 -20 -42 -4 3 -11
-10 -15 -29 -3 -20 -12 -40 -20 -47 -8 -6 -14 -17 -14 -23 0 -29 -22 -86 -31
-80 -17 10 -72 -17 -60 -29 14 -14 14 -30 1 -22 -13 8 -13 -1 1 -28 10 -21 10
-21 -5 -3 -9 11 -16 14 -16 8 0 -7 -5 -12 -10 -12 -6 0 -4 11 5 24 15 23 12
56 -6 56 -4 0 -6 -7 -3 -15 4 -11 2 -13 -9 -10 -16 7 -18 36 -2 47 6 4 -9 8
-31 8 -32 0 -45 -5 -57 -22 l-15 -23 -10 25 c-10 24 -11 24 -11 -9 -1 -27 -4
-32 -13 -23 -18 18 -30 14 -19 -7 8 -14 7 -22 -4 -31 -12 -10 -15 -9 -15 4 0
9 -7 16 -15 16 -8 0 -15 -4 -15 -10 0 -5 5 -10 11 -10 8 0 8 -4 0 -13 -13 -17
5 -38 25 -30 10 4 12 0 8 -11 -8 -20 -13 -20 -37 2 -11 9 -17 11 -13 5 4 -8 1
-13 -8 -13 -9 0 -16 5 -16 11 0 6 -9 8 -21 4 -19 -6 -20 -5 -8 7 7 8 21 13 31
10 12 -3 18 1 18 11 0 16 -35 13 -46 -4 -3 -5 -14 -9 -25 -9 -25 0 -25 -17 1
-25 16 -5 18 -9 7 -26 -6 -10 -16 -19 -21 -19 -4 0 -3 7 4 15 10 12 9 15 -8
15 -11 0 -22 -6 -25 -12 -3 -10 -7 -10 -21 1 -14 12 -19 11 -34 -3 -10 -9 -23
-16 -28 -16 -5 1 2 10 15 20 19 17 21 23 11 35 -7 8 -18 15 -24 15 -6 0 -5 -4
3 -9 10 -7 8 -12 -10 -24 -26 -19 -38 -15 -20 6 9 11 8 17 -3 26 -9 7 -17 8
-20 2 -3 -5 0 -12 6 -15 7 -4 2 -4 -12 0 -14 3 -36 8 -50 10 -38 8 -143 12
-157 6 -22 -7 -14 -22 11 -22 27 0 53 -24 36 -35 -5 -3 -10 1 -10 9 0 10 -9
16 -25 16 -29 0 -55 38 -35 50 7 4 10 14 7 21 -3 9 -11 -1 -21 -23 -10 -24
-23 -38 -34 -37 -14 0 -14 2 3 9 17 7 18 9 4 14 -9 4 -20 6 -25 5 -21 -4 -26
2 -13 17 10 13 10 17 -1 24 -7 4 -19 6 -26 3 -6 -2 -15 1 -19 8 -6 8 2 10 29
7 37 -4 38 6 1 15 -18 4 -18 5 2 6 16 1 21 6 17 16 -5 11 -2 14 12 9 16 -6 17
-5 7 7 -21 22 -15 37 12 31 14 -2 25 0 25 6 0 5 10 12 22 15 12 4 20 8 17 11
-3 3 -22 0 -42 -6 -42 -13 -60 -4 -32 16 10 7 15 18 11 24 -5 8 1 12 17 12 31
0 48 20 41 47 -4 16 0 24 18 33 21 10 21 10 6 -3 -21 -17 -23 -33 -5 -40 9 -3
9 -7 0 -17 -6 -7 -9 -19 -6 -27 4 -11 9 -8 18 9 6 13 9 30 5 38 -4 8 1 28 11
45 19 31 27 18 9 -15 -8 -15 -7 -19 8 -17 13 1 17 7 14 23 -3 16 2 24 17 29
11 3 20 11 18 18 -1 6 7 13 18 15 28 5 44 22 21 22 -9 0 -14 5 -11 10 3 6 15
10 26 10 14 0 19 7 19 30 0 17 5 30 10 30 6 0 10 9 10 21 0 15 5 19 16 15 12
-5 14 -1 9 15 -5 14 -3 19 3 15 6 -3 13 -2 17 4 4 7 -490 10 -1525 10 l-1530
0 0 -2445z m4180 2411 c0 -3 -4 -8 -10 -11 -5 -3 -10 -1 -10 4 0 6 5 11 10 11
6 0 10 -2 10 -4z m1128 -94 c-6 -29 -13 -50 -16 -47 -2 2 1 27 8 55 7 28 14
49 16 47 3 -2 -1 -27 -8 -55z m-2341 16 c-3 -7 -5 -2 -5 12 0 14 2 19 5 13 2
-7 2 -19 0 -25z m1206 6 c-4 -11 -9 -12 -19 -3 -18 15 -18 14 5 16 14 1 18 -3
14 -13z m-93 -154 c-8 -6 -22 -10 -30 -10 -8 0 -4 6 10 13 27 15 44 12 20 -3z
m-1290 -46 c0 -2 -9 -4 -21 -4 -11 0 -18 4 -14 10 5 8 35 3 35 -6z m886 -10
c-4 -9 -9 -15 -11 -12 -3 3 -3 13 1 22 4 9 9 15 11 12 3 -3 3 -13 -1 -22z
m384 -14 c0 -5 -7 -10 -16 -10 -8 0 -12 5 -9 10 3 6 10 10 16 10 5 0 9 -4 9
-10z m-1353 -86 c-3 -3 -12 -4 -19 -1 -8 3 -5 6 6 6 11 1 17 -2 13 -5z m736
-44 c-3 -11 -9 -17 -15 -14 -5 3 -4 12 3 20 16 19 18 18 12 -6z m497 -14 c0
-2 -8 -10 -17 -17 -16 -13 -17 -12 -4 4 13 16 21 21 21 13z m-400 -91 c0 -12
-19 -12 -23 0 -4 9 -1 12 9 8 7 -3 14 -7 14 -8z m-830 1 c0 -3 -4 -8 -10 -11
-5 -3 -10 -1 -10 4 0 6 5 11 10 11 6 0 10 -2 10 -4z m237 -5 c8 7 13 8 13 1 0
-5 10 -13 23 -17 20 -6 20 -8 3 -12 -10 -3 -22 1 -27 8 -11 18 -21 6 -13 -15
3 -9 17 -16 33 -16 20 0 23 -2 11 -10 -10 -6 -11 -10 -2 -10 6 0 12 -5 12 -12
0 -6 -9 -3 -20 7 -11 10 -20 14 -20 9 0 -5 -4 -3 -9 5 -7 11 -13 12 -23 3 -11
-9 -14 -4 -13 28 0 24 4 35 9 30 6 -6 15 -5 23 1z m-140 -41 c3 -10 2 -11 -4
-4 -4 6 -15 14 -23 17 -11 5 -9 6 4 4 11 -1 21 -9 23 -17z m100 14 c-3 -3 -12
-4 -19 -1 -8 3 -5 6 6 6 11 1 17 -2 13 -5z m375 -16 c-7 -7 -12 -8 -12 -2 0 6
3 14 7 17 3 4 9 5 12 2 2 -3 -1 -11 -7 -17z m-242 -8 c0 -5 -5 -10 -11 -10 -5
0 -7 5 -4 10 3 6 8 10 11 10 2 0 4 -4 4 -10z m452 -42 c-6 -6 -15 -8 -19 -4
-4 4 -1 11 7 16 19 12 27 3 12 -12z m1693 2 c-3 -5 -12 -10 -18 -10 -7 0 -6 4
3 10 19 12 23 12 15 0z m-2222 -13 c3 -8 1 -20 -5 -28 -8 -11 -9 -11 -5 2 3 9
0 22 -6 28 -8 8 -8 11 0 11 6 0 13 -6 16 -13z m1887 -27 c-6 -11 -13 -20 -16
-20 -2 0 0 9 6 20 6 11 13 20 16 20 2 0 0 -9 -6 -20z m-2065 -10 c3 -5 -1 -10
-10 -10 -9 0 -13 5 -10 10 3 6 8 10 10 10 2 0 7 -4 10 -10z m-8 -26 c-3 -3
-12 -4 -19 -1 -8 3 -5 6 6 6 11 1 17 -2 13 -5z m2150 0 c31 -8 18 -34 -17 -34
-16 0 -32 5 -36 11 -3 6 -9 7 -13 2 -3 -5 -30 -24 -59 -42 -29 -18 -59 -43
-67 -54 -8 -11 -17 -18 -20 -15 -8 7 49 64 106 105 44 33 65 38 106 27z
m-2057 -8 c0 -3 -4 -8 -10 -11 -5 -3 -10 -1 -10 4 0 6 5 11 10 11 6 0 10 -2
10 -4z m-160 -26 c0 -5 -2 -10 -4 -10 -3 0 -8 5 -11 10 -3 6 -1 10 4 10 6 0
11 -4 11 -10z m645 -11 c11 -16 1 -19 -13 -3 -7 8 -8 14 -3 14 5 0 13 -5 16
-11z m1845 -15 c0 -3 -13 -10 -30 -15 -16 -6 -30 -15 -30 -20 0 -5 -9 -18 -20
-29 -12 -12 -20 -15 -20 -7 0 11 -60 -51 -60 -63 0 -3 -5 -12 -10 -20 -8 -13
-11 -12 -22 3 -13 17 -14 17 -14 -2 0 -11 4 -17 8 -15 4 3 8 1 8 -4 0 -6 -22
-15 -49 -22 -34 -8 -52 -19 -61 -36 -8 -13 -20 -24 -29 -24 -14 0 -14 2 -1 10
13 9 13 10 0 10 -9 1 -6 5 8 10 12 5 22 14 22 20 0 6 -4 9 -8 6 -5 -3 -9 1 -9
9 0 8 9 15 19 15 10 0 28 10 41 23 12 12 25 21 30 20 4 -2 7 2 7 9 0 6 3 9 6
6 9 -9 75 39 107 77 20 25 37 35 65 38 20 2 38 4 40 5 1 1 2 0 2 -4z m77 -10
c-3 -3 -12 -4 -19 -1 -8 3 -5 6 6 6 11 1 17 -2 13 -5z m-1877 -24 c0 -5 -5
-10 -11 -10 -5 0 -7 5 -4 10 3 6 8 10 11 10 2 0 4 -4 4 -10z m30 -15 c0 -8 -5
-15 -10 -15 -6 0 -10 -6 -9 -12 5 -30 -13 -67 -32 -65 -10 1 -19 7 -19 15 0 7
5 10 10 7 13 -8 13 11 -1 37 -10 19 -9 20 11 15 16 -4 24 -1 27 14 6 22 23 26
23 4z m-103 -92 c-3 -10 -5 -4 -5 12 0 17 2 24 5 18 2 -7 2 -21 0 -30z m1543
-52 c0 -16 -37 -37 -47 -27 -8 8 10 35 25 39 10 3 18 5 20 6 1 0 2 -7 2 -18z
m-1765 -71 c-3 -5 -10 -10 -16 -10 -5 0 -9 5 -9 10 0 6 7 10 16 10 8 0 12 -4
9 -10z m-45 -64 c0 -3 -4 -8 -10 -11 -5 -3 -10 -1 -10 4 0 6 5 11 10 11 6 0
10 -2 10 -4z m23 -172 c8 -9 -3 -34 -16 -34 -6 0 -7 3 -4 7 4 3 2 12 -4 20 -9
10 -8 13 3 13 8 0 17 -3 21 -6z m-33 -68 c0 -3 -4 -8 -10 -11 -5 -3 -10 -1
-10 4 0 6 5 11 10 11 6 0 10 -2 10 -4z m-60 -36 c0 -5 -2 -10 -4 -10 -3 0 -8
5 -11 10 -3 6 -1 10 4 10 6 0 11 -4 11 -10z m123 -13 c4 15 5 15 6 -3 1 -22
-23 -39 -40 -28 -5 3 -9 15 -9 26 0 20 1 20 19 4 18 -17 19 -17 24 1z m-23
-66 c0 -4 -11 -20 -25 -35 -14 -15 -25 -31 -25 -37 0 -5 -4 -9 -10 -9 -16 0
-12 22 8 37 15 13 15 13 -6 3 -33 -16 -38 -6 -8 13 21 14 24 22 19 54 l-6 38
27 -28 c14 -15 26 -32 26 -36z m-80 -106 c0 -8 -4 -15 -10 -15 -5 0 -7 7 -4
15 4 8 8 15 10 15 2 0 4 -7 4 -15z m1495 5 c-3 -5 -10 -10 -16 -10 -5 0 -9 5
-9 10 0 6 7 10 16 10 8 0 12 -4 9 -10z m-1595 -85 c0 -5 -5 -3 -10 5 -5 8 -10
20 -10 25 0 6 5 3 10 -5 5 -8 10 -19 10 -25z m-240 -15 c0 -5 -2 -10 -4 -10
-3 0 -8 5 -11 10 -3 6 -1 10 4 10 6 0 11 -4 11 -10z m-145 -29 c-6 -5 -25 10
-25 20 0 5 6 4 14 -3 8 -7 12 -15 11 -17z m358 9 c-3 -12 -8 -19 -11 -16 -5 6
5 36 12 36 2 0 2 -9 -1 -20z m-328 -47 c10 14 19 16 51 8 l39 -9 -42 -1 c-23
-1 -45 -6 -48 -12 -9 -14 -4 -18 36 -24 l34 -6 -30 14 -30 14 47 -1 c27 -1 43
-2 38 -4 -18 -6 -11 -24 8 -19 9 3 35 8 57 11 28 4 34 3 20 -4 -18 -8 -16 -9
9 -9 41 -1 23 -15 -22 -17 -28 -2 -32 0 -17 6 17 7 15 9 -12 9 -20 1 -36 -5
-42 -16 -9 -16 -10 -16 -11 -1 0 13 -7 15 -38 11 -32 -4 -43 0 -70 25 -18 17
-32 33 -32 38 0 4 9 -1 21 -12 20 -18 21 -18 34 -1z m134 -6 c12 -15 12 -17
-3 -11 -9 3 -16 13 -16 22 0 8 1 13 3 11 1 -2 9 -12 16 -22z m-199 -7 c0 -5
-4 -10 -10 -10 -5 0 -10 5 -10 10 0 6 5 10 10 10 6 0 10 -4 10 -10z m-197 -25
c-3 -9 -8 -14 -10 -11 -3 3 -2 9 2 15 9 16 15 13 8 -4z m204 -17 c-3 -8 -6 -5
-6 6 -1 11 2 17 5 13 3 -3 4 -12 1 -19z m-233 -9 c-3 -5 -10 -7 -15 -3 -5 3
-7 10 -3 15 3 5 10 7 15 3 5 -3 7 -10 3 -15z m181 11 c3 -5 2 -10 -4 -10 -5 0
-13 5 -16 10 -3 6 -2 10 4 10 5 0 13 -4 16 -10z m95 1 c0 -6 -4 -13 -10 -16
-5 -3 -10 1 -10 9 0 9 5 16 10 16 6 0 10 -4 10 -9z m254 -16 c3 -8 1 -15 -4
-15 -6 0 -10 7 -10 15 0 8 2 15 4 15 2 0 6 -7 10 -15z m2420 7 c3 -5 -1 -9 -9
-9 -8 0 -12 4 -9 9 3 4 7 8 9 8 2 0 6 -4 9 -8z m-2607 -18 c-3 -3 -12 -4 -19
-1 -8 3 -5 6 6 6 11 1 17 -2 13 -5z m-357 -20 c0 -8 -19 -13 -24 -6 -3 5 1 9
9 9 8 0 15 -2 15 -3z m300 -9 c-7 -9 -15 -13 -19 -10 -3 3 1 10 9 15 21 14 24
12 10 -5z m2460 -486 c0 -4 -7 -6 -15 -3 -8 4 -15 10 -15 15 0 4 7 6 15 3 8
-4 15 -10 15 -15z m-4487 -66 c-7 -2 -21 -2 -30 0 -10 3 -4 5 12 5 17 0 24 -2
18 -5z m272 -63 c-3 -5 -1 -10 6 -10 7 0 10 -2 7 -5 -3 -3 -13 -2 -22 1 -14 5
-15 9 -4 15 17 11 20 11 13 -1z m1787 -25 c-2 -14 -8 -25 -12 -25 -5 0 -16 -7
-25 -16 -9 -9 -19 -13 -23 -9 -4 4 -1 10 6 12 6 3 12 13 12 24 0 10 4 19 10
19 5 0 8 -6 7 -12 -2 -7 1 -3 7 10 13 30 24 28 18 -3z m1052 -21 c7 -18 -10
-54 -26 -54 -7 0 -6 5 2 15 7 8 10 24 7 35 -6 24 8 27 17 4z m-2614 -34 c0 -5
-4 -10 -10 -10 -5 0 -10 5 -10 10 0 6 5 10 10 10 6 0 10 -4 10 -10z m40 -20
c8 -5 11 -10 5 -10 -5 0 -17 5 -25 10 -8 5 -10 10 -5 10 6 0 17 -5 25 -10z
m147 -39 c1 -14 -5 -18 -23 -17 -28 1 -28 0 -8 20 20 21 29 20 31 -3z m1243
-21 c0 -5 -8 -10 -17 -10 -15 0 -16 2 -3 10 19 12 20 12 20 0z m-1168 -7 c-10
-4 -10 -8 -1 -19 15 -18 2 -18 -17 0 -14 14 -5 24 21 24 6 0 4 -2 -3 -5z
m2343 -50 c-9 -37 -18 -20 -9 19 4 18 9 27 11 20 3 -7 2 -24 -2 -39z m1325 37
c0 -5 -5 -10 -11 -10 -5 0 -7 5 -4 10 3 6 8 10 11 10 2 0 4 -4 4 -10z m-3620
-20 c-8 -5 -19 -10 -25 -10 -5 0 -3 5 5 10 8 5 20 10 25 10 6 0 3 -5 -5 -10z
m2289 -132 l-2 -83 -8 63 c-4 35 -13 69 -18 76 -12 14 -5 26 16 26 10 0 13
-20 12 -82z m1898 -460 c-3 -8 -6 -5 -6 6 -1 11 2 17 5 13 3 -3 4 -12 1 -19z
m-594 -781 c3 -7 -3 -13 -14 -14 -15 -1 -16 1 -6 12 15 18 14 18 20 2z m-4628
-77 c3 -5 1 -10 -4 -10 -6 0 -11 5 -11 10 0 6 2 10 4 10 3 0 8 -4 11 -10z m42
-70 c0 -22 -4 -40 -9 -40 -4 0 -8 18 -8 40 0 22 4 40 8 40 5 0 9 -18 9 -40z
m-33 15 c3 -8 1 -15 -4 -15 -6 0 -10 7 -10 15 0 8 2 15 4 15 2 0 6 -7 10 -15z
m-39 -46 c-5 -22 -4 -29 4 -25 7 5 9 -4 6 -26 -4 -29 -4 -30 4 -8 l9 25 2 -25
c1 -18 3 -21 8 -10 8 17 32 25 32 11 0 -5 10 -7 23 -4 20 4 20 3 4 -7 -9 -6
-15 -15 -12 -21 4 -5 1 -9 -4 -9 -6 0 -11 5 -11 10 0 6 -7 10 -15 10 -8 0 -15
-7 -15 -15 0 -28 -28 -15 -35 15 -8 35 -22 39 -28 8 -3 -17 -5 -14 -6 10 0 18
4 32 11 32 6 0 0 10 -13 21 -23 20 -23 21 -3 15 15 -4 24 -2 28 9 10 27 18 16
11 -16z m755 21 c0 -5 -4 -10 -10 -10 -5 0 -10 5 -10 10 0 6 5 10 10 10 6 0
10 -4 10 -10z m344 -15 c6 -17 -27 -38 -52 -32 -11 3 -6 7 16 12 26 6 30 10
21 21 -7 9 -8 14 -1 14 5 0 12 -7 16 -15z m41 -5 c3 -5 2 -10 -4 -10 -5 0 -13
5 -16 10 -3 6 -2 10 4 10 5 0 13 -4 16 -10z m545 6 c0 -3 -4 -8 -10 -11 -5 -3
-10 -1 -10 4 0 6 5 11 10 11 6 0 10 -2 10 -4z m-1637 -20 c3 -8 0 -17 -8 -20
-14 -5 -28 17 -18 28 10 10 21 7 26 -8z m72 4 c-3 -5 -10 -10 -16 -10 -5 0 -9
5 -9 10 0 6 7 10 16 10 8 0 12 -4 9 -10z m-185 -15 c0 -8 -2 -15 -4 -15 -2 0
-6 7 -10 15 -3 8 -1 15 4 15 6 0 10 -7 10 -15z m240 5 c0 -5 -2 -10 -4 -10 -3
0 -8 5 -11 10 -3 6 -1 10 4 10 6 0 11 -4 11 -10z m1650 0 c0 -5 -7 -7 -15 -4
-8 4 -15 8 -15 10 0 2 7 4 15 4 8 0 15 -4 15 -10z m-223 -6 c-3 -3 -12 -4 -19
-1 -8 3 -5 6 6 6 11 1 17 -2 13 -5z m-1500 -10 c-3 -3 -12 -4 -19 -1 -8 3 -5
6 6 6 11 1 17 -2 13 -5z m43 -14 c0 -5 -4 -10 -10 -10 -5 0 -10 5 -10 10 0 6
5 10 10 10 6 0 10 -4 10 -10z m1220 0 c0 -5 -4 -10 -10 -10 -5 0 -10 5 -10 10
0 6 5 10 10 10 6 0 10 -4 10 -10z m35 0 c3 -5 1 -10 -4 -10 -6 0 -11 5 -11 10
0 6 2 10 4 10 3 0 8 -4 11 -10z m-1155 -36 c0 -21 -17 -17 -23 5 -3 14 -1 18
9 14 8 -3 14 -11 14 -19z m-115 -4 c-3 -5 -10 -10 -16 -10 -5 0 -9 5 -9 10 0
6 7 10 16 10 8 0 12 -4 9 -10z m1368 -5 c-1 -5 -7 -11 -15 -13 -10 -3 -9 -1 1
6 11 8 9 11 -10 15 l-24 5 25 -1 c14 -1 24 -6 23 -12z m-1203 -5 c0 -5 -2 -10
-4 -10 -3 0 -8 5 -11 10 -3 6 -1 10 4 10 6 0 11 -4 11 -10z m1720 6 c0 -2 -9
-6 -20 -9 -11 -3 -18 -1 -14 4 5 9 34 13 34 5z m-1853 -22 c-3 -3 -12 -4 -19
-1 -8 3 -5 6 6 6 11 1 17 -2 13 -5z m116 -7 l25 -13 -29 -11 c-16 -6 -29 -7
-29 -2 0 5 5 9 11 9 8 0 8 5 -1 15 -15 18 -10 19 23 2z m1887 3 c0 -5 -4 -10
-10 -10 -5 0 -10 5 -10 10 0 6 5 10 10 10 6 0 10 -4 10 -10z m-40 -38 c0 11 5
15 14 12 8 -3 24 -1 35 6 12 6 21 7 21 3 0 -12 -39 -35 -49 -28 -5 2 -14 -2
-21 -10 -18 -22 -27 -19 -39 16 -15 45 -14 46 14 13 19 -22 25 -25 25 -12z
m-1405 0 c-3 -3 -11 0 -18 7 -9 10 -8 11 6 5 10 -3 15 -9 12 -12z m265 -11 c0
-6 -4 -13 -10 -16 -5 -3 -10 1 -10 9 0 9 5 16 10 16 6 0 10 -4 10 -9z m-147
-8 c-7 -2 -19 -2 -25 0 -7 3 -2 5 12 5 14 0 19 -2 13 -5z m185 -28 c-3 -3 -9
2 -12 12 -6 14 -5 15 5 6 7 -7 10 -15 7 -18z m-1001 -91 c-3 -3 -12 -4 -19 -1
-8 3 -5 6 6 6 11 1 17 -2 13 -5z m42 -26 c0 -13 -3 -17 -6 -10 -2 6 -9 12 -14
12 -6 0 -7 -5 -3 -11 4 -7 0 -9 -14 -5 -11 4 -23 2 -27 -4 -8 -13 -25 -13 -25
0 0 6 14 13 30 17 17 3 30 9 30 14 0 5 7 9 15 9 9 0 15 -9 14 -22z m1841 -122
c0 -2 -8 -10 -17 -17 -16 -13 -17 -12 -4 4 13 16 21 21 21 13z m-470 -36 c0
-5 -4 -10 -10 -10 -5 0 -10 5 -10 10 0 6 5 10 10 10 6 0 10 -4 10 -10z m140
-8 c0 -5 -13 -7 -30 -4 -16 2 -30 6 -30 8 0 2 14 4 30 4 17 0 30 -4 30 -8z
m-275 -12 c3 -5 1 -10 -4 -10 -6 0 -11 5 -11 10 0 6 2 10 4 10 3 0 8 -4 11
-10z m90 0 c3 -5 1 -10 -4 -10 -6 0 -11 5 -11 10 0 6 2 10 4 10 3 0 8 -4 11
-10z m120 -11 c11 -17 -1 -21 -15 -4 -8 9 -8 15 -2 15 6 0 14 -5 17 -11z
m-235 -9 c0 -5 -4 -10 -10 -10 -5 0 -10 5 -10 10 0 6 5 10 10 10 6 0 10 -4 10
-10z m80 6 c0 -3 -4 -8 -10 -11 -5 -3 -10 -1 -10 4 0 6 5 11 10 11 6 0 10 -2
10 -4z m210 -16 c0 -5 -4 -10 -10 -10 -5 0 -10 5 -10 10 0 6 5 10 10 10 6 0
10 -4 10 -10z m-250 -10 c0 -5 -7 -10 -15 -10 -8 0 -15 5 -15 10 0 6 7 10 15
10 8 0 15 -4 15 -10z m-156 -9 c3 -5 21 -6 38 -2 36 7 78 3 78 -7 0 -4 -21 -7
-47 -7 -27 0 -65 -4 -86 -8 -38 -8 -38 -8 -20 12 20 22 29 25 37 12z m4156
-36 c0 -11 -29 -11 -33 -1 -4 10 1 12 14 9 10 -3 19 -7 19 -8z m-5346 -10 c-7
-16 -24 -21 -24 -6 0 8 7 13 27 20 1 1 0 -6 -3 -14z m73 9 c-3 -3 -12 -4 -19
-1 -8 3 -5 6 6 6 11 1 17 -2 13 -5z m1290 -26 c-3 -8 -6 -5 -6 6 -1 11 2 17 5
13 3 -3 4 -12 1 -19z m233 12 c0 -5 -5 -10 -11 -10 -5 0 -7 5 -4 10 3 6 8 10
11 10 2 0 4 -4 4 -10z m25 -10 c3 -5 1 -10 -4 -10 -6 0 -11 5 -11 10 0 6 2 10
4 10 3 0 8 -4 11 -10z m65 0 c0 -5 -2 -10 -4 -10 -3 0 -8 5 -11 10 -3 6 -1 10
4 10 6 0 11 -4 11 -10z m-480 -10 c0 -5 -4 -10 -9 -10 -6 0 -13 5 -16 10 -3 6
1 10 9 10 9 0 16 -4 16 -10z m-102 -12 c15 -15 16 -38 2 -38 -5 0 -10 7 -10
15 0 8 -4 15 -10 15 -5 0 -10 -4 -10 -10 0 -5 -5 -10 -10 -10 -6 0 -5 8 2 20
15 23 20 24 36 8z m-1308 -2 c0 -3 -4 -8 -10 -11 -5 -3 -10 -1 -10 4 0 6 5 11
10 11 6 0 10 -2 10 -4z m1350 -10 c0 -3 -4 -8 -10 -11 -5 -3 -10 -1 -10 4 0 6
5 11 10 11 6 0 10 -2 10 -4z m-143 -12 c-3 -3 -12 -4 -19 -1 -8 3 -5 6 6 6 11
1 17 -2 13 -5z m6 -21 c-7 -2 -21 -2 -30 0 -10 3 -4 5 12 5 17 0 24 -2 18 -5z
m537 -50 c0 -11 -63 -63 -77 -63 -7 0 -13 10 -13 21 0 16 5 20 20 16 22 -6 28
8 8 17 -7 3 -3 3 9 1 12 -3 24 -1 28 5 7 11 25 14 25 3z m-420 -17 c0 -3 -4
-8 -10 -11 -5 -3 -10 -1 -10 4 0 6 5 11 10 11 6 0 10 -2 10 -4z m111 -36 c10
0 19 -4 19 -8 0 -19 -14 -20 -43 -6 -23 12 -27 18 -16 25 8 5 15 4 17 -1 2 -6
12 -10 23 -10z m-224 -20 c-2 -24 -17 -15 -17 11 0 11 4 18 9 14 6 -3 9 -14 8
-25z m33 16 c0 -3 -4 -8 -10 -11 -5 -3 -10 -1 -10 4 0 6 5 11 10 11 6 0 10 -2
10 -4z m40 -6 c13 -8 13 -10 -2 -10 -9 0 -20 5 -23 10 -8 13 5 13 25 0z m83
-58 c10 -10 14 -22 10 -25 -7 -8 -43 21 -43 35 0 14 16 9 33 -10z m497 8 c0
-5 -6 -10 -14 -10 -8 0 -18 5 -21 10 -3 6 3 10 14 10 12 0 21 -4 21 -10z m198
-27 c12 -12 13 -18 4 -21 -7 -2 -9 -9 -6 -14 4 -7 2 -8 -5 -4 -6 4 -9 12 -5
17 3 5 0 16 -6 24 -17 21 -2 19 18 -2z m-118 -3 c0 -5 -4 -10 -9 -10 -6 0 -13
5 -16 10 -3 6 1 10 9 10 9 0 16 -4 16 -10z m73 -48 c-8 -8 -17 -11 -21 -8 -3
4 0 12 8 17 12 8 10 9 -7 4 -22 -6 -39 8 -28 24 3 6 18 3 34 -7 25 -14 27 -18
14 -30z m87 -34 c0 -5 -9 -4 -20 2 -11 6 -18 15 -14 21 6 11 34 -7 34 -23z
m127 -34 c-5 -5 -57 13 -57 20 0 3 14 0 31 -6 16 -6 28 -12 26 -14z m-110 -16
c-3 -8 -6 -5 -6 6 -1 11 2 17 5 13 3 -3 4 -12 1 -19z m-47 -62 c0 -3 -4 -8
-10 -11 -5 -3 -10 -1 -10 4 0 6 5 11 10 11 6 0 10 -2 10 -4z m60 -6 c-20 -13
-43 -13 -35 0 3 6 16 10 28 10 18 0 19 -2 7 -10z m-210 -26 c0 -8 -4 -12 -10
-9 -5 3 -10 10 -10 16 0 5 5 9 10 9 6 0 10 -7 10 -16z m70 -4 c-26 -7 -40 -4
-40 9 0 4 15 5 33 2 31 -4 31 -5 7 -11z m89 -6 c14 -12 -19 -1 -35 12 -18 14
-18 14 6 3 14 -6 27 -13 29 -15z m-192 -61 c-8 -18 -13 -20 -24 -12 -10 9 -17
8 -28 -1 -28 -23 -29 -1 -2 26 21 21 27 23 27 10 0 -28 20 -17 21 12 0 23 1
24 8 7 5 -11 4 -30 -2 -42z m243 47 c0 -5 -2 -10 -4 -10 -3 0 -8 5 -11 10 -3
6 -1 10 4 10 6 0 11 -4 11 -10z m-163 -42 c-3 -8 -6 -5 -6 6 -1 11 2 17 5 13
3 -3 4 -12 1 -19z m-47 -31 c0 -5 -4 -6 -9 -3 -5 4 -12 0 -14 -6 -3 -7 -6 -4
-6 8 -1 11 2 24 6 27 7 7 23 -11 23 -26z m20 23 c4 6 7 -2 6 -19 -1 -33 -11
-29 -20 9 -3 14 -3 19 0 11 5 -10 8 -10 14 -1z m84 -9 c-17 -16 -57 -24 -52
-10 2 7 12 13 22 15 10 1 20 5 24 8 3 3 8 4 11 1 2 -3 0 -9 -5 -14z m-157 -47
c-3 -3 -12 -4 -19 -1 -8 3 -5 6 6 6 11 1 17 -2 13 -5z m-32 -34 c3 -5 1 -10
-4 -10 -6 0 -11 5 -11 10 0 6 2 10 4 10 3 0 8 -4 11 -10z m-124 -19 c20 -16
22 -22 11 -33 -11 -11 -12 -10 -7 3 8 21 -44 37 -56 17 -4 -7 -11 -9 -15 -5
-9 9 15 37 31 37 7 0 23 -9 36 -19z m99 -16 c11 -13 10 -14 -4 -9 -9 3 -16 10
-16 15 0 13 6 11 20 -6z m-463 -91 c-3 -3 -12 -4 -19 -1 -8 3 -5 6 6 6 11 1
17 -2 13 -5z"/>
<path d="M5107 4803 c-4 -3 -7 -11 -7 -17 0 -6 5 -5 12 2 6 6 9 14 7 17 -3 3
-9 2 -12 -2z"/>
<path d="M3387 4749 c6 -23 9 -24 16 -5 3 8 0 17 -7 19 -10 4 -12 -1 -9 -14z"/>
<path d="M3053 4160 c0 -24 2 -26 14 -14 12 12 12 16 0 28 -12 12 -14 10 -14
-14z"/>
<path d="M5590 5620 c0 -14 6 -20 23 -19 20 0 20 1 3 8 -14 5 -16 10 -8 15 7
4 17 4 22 1 6 -3 10 -1 10 4 0 6 -11 11 -25 11 -18 0 -25 -5 -25 -20z"/>
<path d="M5585 5562 c3 -7 5 -16 5 -18 0 -3 5 -2 10 1 6 3 10 1 10 -4 0 -6 5
-11 10 -11 18 0 11 30 -7 31 -12 1 -10 4 7 9 23 8 22 8 -8 7 -23 -1 -31 -5
-27 -15z"/>
<path d="M4106 5553 c-6 -14 -5 -15 5 -6 7 7 10 15 7 18 -3 3 -9 -2 -12 -12z"/>
<path d="M3676 5477 c3 -10 9 -15 12 -12 3 3 0 11 -7 18 -10 9 -11 8 -5 -6z"/>
<path d="M3976 5475 c-11 -8 -15 -15 -9 -15 6 0 16 7 23 15 16 19 11 19 -14 0z"/>
<path d="M5600 5410 c0 -5 7 -10 16 -10 8 0 12 5 9 10 -3 6 -10 10 -16 10 -5
0 -9 -4 -9 -10z"/>
<path d="M5597 5383 c-4 -3 -7 -11 -7 -17 0 -6 5 -5 12 2 6 6 9 14 7 17 -3 3
-9 2 -12 -2z"/>
<path d="M5571 5337 c-1 -10 -5 -15 -11 -12 -6 4 -7 -1 -3 -11 6 -15 7 -15 15
0 5 9 7 22 4 29 -2 7 -5 4 -5 -6z"/>
<path d="M3000 5309 c0 -5 5 -7 10 -4 6 3 10 8 10 11 0 2 -4 4 -10 4 -5 0 -10
-5 -10 -11z"/>
<path d="M2818 5243 c7 -3 16 -2 19 1 4 3 -2 6 -13 5 -11 0 -14 -3 -6 -6z"/>
<path d="M2995 5230 c3 -5 8 -10 11 -10 2 0 4 5 4 10 0 6 -5 10 -11 10 -5 0
-7 -4 -4 -10z"/>
<path d="M3540 5220 c0 -5 5 -10 11 -10 5 0 7 5 4 10 -3 6 -8 10 -11 10 -2 0
-4 -4 -4 -10z"/>
<path d="M2825 5210 c-3 -5 -1 -10 4 -10 6 0 11 5 11 10 0 6 -2 10 -4 10 -3 0
-8 -4 -11 -10z"/>
<path d="M2783 5203 c-13 -2 -23 -8 -23 -13 0 -4 10 -10 23 -13 12 -2 30 -8
40 -12 10 -4 17 -3 17 4 0 6 -9 11 -21 11 -15 0 -19 5 -15 15 3 8 4 14 3 14
-1 -1 -12 -4 -24 -6z"/>
<path d="M2856 5185 c-6 -22 28 -64 41 -51 4 4 0 12 -10 17 -22 13 -22 35 1
48 15 9 15 10 -5 8 -13 -1 -24 -10 -27 -22z"/>
<path d="M3115 5190 c3 -5 8 -10 11 -10 2 0 4 5 4 10 0 6 -5 10 -11 10 -5 0
-7 -4 -4 -10z"/>
<path d="M2940 5170 c-21 -7 -21 -8 -5 -9 11 0 27 4 35 9 18 11 5 11 -30 0z"/>
<path d="M3197 5159 c7 -7 15 -10 18 -7 3 3 -2 9 -12 12 -14 6 -15 5 -6 -5z"/>
<path d="M3245 5140 c-3 -5 -1 -10 4 -10 6 0 11 5 11 10 0 6 -2 10 -4 10 -3 0
-8 -4 -11 -10z"/>
<path d="M2747 5133 c-4 -3 -7 -11 -7 -17 0 -6 5 -5 12 2 6 6 9 14 7 17 -3 3
-9 2 -12 -2z"/>
<path d="M2946 5132 c-5 -9 20 -32 28 -25 3 4 6 10 6 14 0 10 -28 20 -34 11z"/>
<path d="M3217 5133 c-4 -3 -7 -11 -7 -17 0 -6 5 -5 12 2 6 6 9 14 7 17 -3 3
-9 2 -12 -2z"/>
<path d="M2820 5120 c0 -5 5 -10 10 -10 6 0 10 5 10 10 0 6 -4 10 -10 10 -5 0
-10 -4 -10 -10z"/>
<path d="M3185 5120 c-5 -7 -20 -10 -39 -6 -21 4 -26 3 -16 -3 12 -9 12 -11
-3 -16 -14 -6 -14 -9 -2 -21 13 -14 45 -9 45 6 0 5 7 16 16 25 9 9 14 18 11
21 -3 3 -8 0 -12 -6z"/>
<path d="M3090 5110 c0 -5 5 -10 10 -10 6 0 10 5 10 10 0 6 -4 10 -10 10 -5 0
-10 -4 -10 -10z"/>
<path d="M3315 4660 c28 -12 37 -12 30 0 -3 6 -16 10 -28 9 -21 0 -21 -1 -2
-9z"/>
<path d="M3200 4642 c0 -25 16 -37 23 -18 3 8 -1 20 -9 26 -11 10 -14 9 -14
-8z"/>
<path d="M3300 4598 c0 -4 7 -13 15 -22 12 -12 13 -20 3 -41 -7 -16 -17 -24
-26 -20 -13 5 -13 3 -2 -11 12 -14 16 -11 33 22 19 36 19 37 -2 58 -12 11 -21
18 -21 14z"/>
<path d="M5482 4465 c0 -16 2 -22 5 -12 2 9 2 23 0 30 -3 6 -5 -1 -5 -18z"/>
<path d="M3195 4440 c-2 -3 0 -11 4 -18 5 -8 10 -6 18 7 9 14 8 18 -3 18 -8 0
-17 -3 -19 -7z"/>
<path d="M3250 4440 c-9 -6 -10 -10 -3 -10 6 0 15 5 18 10 8 12 4 12 -15 0z"/>
<path d="M3913 4420 c-3 -12 -19 -28 -35 -36 -27 -14 -31 -14 -50 3 -19 17
-20 17 -29 0 -6 -9 -21 -17 -34 -17 -14 0 -25 -4 -25 -10 0 -5 -16 -12 -35
-16 -52 -9 -43 -26 10 -18 48 7 64 -9 23 -22 -32 -10 -152 -7 -156 4 -1 4 -16
6 -33 4 -29 -4 -29 -5 -13 -23 10 -11 30 -19 49 -19 17 0 53 -6 78 -14 25 -7
48 -12 50 -9 9 8 72 -81 94 -131 16 -38 26 -50 40 -48 26 5 27 9 11 25 -8 8
-22 37 -32 63 -10 27 -22 59 -28 70 -19 41 77 154 131 154 26 0 38 25 21 45
-17 21 -31 19 -37 -5z"/>
<path d="M3145 4390 c-3 -5 -1 -10 4 -10 6 0 11 5 11 10 0 6 -2 10 -4 10 -3 0
-8 -4 -11 -10z"/>
<path d="M3199 4378 c-14 -26 -22 -109 -8 -88 5 8 9 28 9 43 0 16 5 37 10 48
6 10 8 19 6 19 -3 0 -11 -10 -17 -22z"/>
<path d="M3160 4308 c0 -36 4 -35 14 5 4 16 2 27 -4 27 -5 0 -10 -14 -10 -32z"/>
<path d="M3139 4298 c-6 -21 -6 -44 0 -61 8 -21 8 -21 20 2 14 26 5 44 -10 21
-7 -11 -8 -7 -3 13 3 15 3 27 0 27 -3 0 -6 -1 -7 -2z"/>
<path d="M5566 4285 c-3 -9 -6 -24 -5 -33 0 -9 5 -4 10 12 9 32 6 48 -5 21z"/>
<path d="M5579 4242 c-2 -44 -3 -49 -11 -58 -4 -4 -3 -13 3 -21 9 -10 8 -17
-1 -28 -11 -13 -8 -15 14 -13 28 3 35 25 14 46 -8 8 -8 12 -1 12 8 0 8 13 1
42 -12 54 -18 60 -19 20z"/>
<path d="M5541 4214 c0 -11 3 -14 6 -6 3 7 2 16 -1 19 -3 4 -6 -2 -5 -13z"/>
<path d="M5570 4091 c-15 -29 -12 -41 10 -41 17 0 20 -8 23 -72 3 -63 3 -59 5
30 2 84 -1 102 -13 102 -8 0 -19 -9 -25 -19z"/>
<path d="M5567 3979 c2 -72 12 -92 14 -28 1 24 3 54 4 67 1 12 -3 22 -9 22 -7
0 -10 -21 -9 -61z"/>
<path d="M5170 3976 c0 -2 7 -7 16 -10 8 -3 12 -2 9 4 -6 10 -25 14 -25 6z"/>
<path d="M5551 3904 c0 -11 3 -14 6 -6 3 7 2 16 -1 19 -3 4 -6 -2 -5 -13z"/>
<path d="M5537 3773 c-4 -3 -7 -11 -7 -17 0 -6 5 -5 12 2 6 6 9 14 7 17 -3 3
-9 2 -12 -2z"/>
<path d="M5131 3734 c0 -11 3 -14 6 -6 3 7 2 16 -1 19 -3 4 -6 -2 -5 -13z"/>
<path d="M2708 3713 c7 -3 16 -2 19 1 4 3 -2 6 -13 5 -11 0 -14 -3 -6 -6z"/>
<path d="M5486 3682 c-3 -5 8 -28 25 -53 16 -24 29 -40 29 -34 0 14 26 -26 38
-60 9 -26 11 -27 11 -7 1 30 -23 88 -55 129 -25 33 -38 40 -48 25z"/>
<path d="M5597 3633 c-4 -3 -7 -16 -7 -27 0 -18 2 -19 11 -6 7 11 8 6 4 -19
-5 -23 -4 -31 4 -27 14 9 14 66 0 66 -5 0 -7 5 -4 10 7 11 2 13 -8 3z"/>
<path d="M2610 3559 c0 -5 6 -12 14 -15 18 -7 37 -59 26 -70 -5 -5 1 -38 13
-74 l23 -65 59 -22 c80 -29 175 -30 175 -1 0 5 -5 6 -11 3 -6 -4 -5 2 2 14 20
32 -5 88 -64 143 -67 62 -95 77 -107 58 -7 -12 -12 -12 -22 -2 -6 6 -22 12
-34 12 -13 0 -25 4 -28 9 -8 13 -46 21 -46 10z m150 -54 c-7 -9 -10 -18 -6
-22 3 -4 13 2 21 13 8 11 15 14 15 7 0 -7 7 -13 15 -13 17 0 18 -5 6 -28 -6
-11 -4 -21 5 -30 8 -7 14 -8 14 -2 0 5 5 10 10 10 14 0 12 -13 -5 -36 -14 -19
-15 -19 -21 3 -3 12 -14 25 -23 28 -9 3 -29 17 -46 31 -16 14 -37 30 -45 34
-24 14 -4 23 21 10 18 -10 24 -9 31 5 6 9 12 14 15 11 3 -3 0 -12 -7 -21z
m103 -103 c-3 -12 -9 -22 -14 -22 -12 0 -11 7 3 30 15 24 19 21 11 -8z m47
-64 c0 -5 -4 -7 -9 -4 -5 4 -12 0 -14 -6 -3 -7 -6 -3 -6 9 -1 16 3 21 14 17 8
-4 15 -10 15 -16z m-140 -8 c8 -5 11 -10 5 -10 -5 0 -17 5 -25 10 -8 5 -10 10
-5 10 6 0 17 -5 25 -10z"/>
<path d="M2780 3470 c0 -5 5 -10 10 -10 6 0 10 5 10 10 0 6 -4 10 -10 10 -5 0
-10 -4 -10 -10z"/>
<path d="M2538 3422 c2 -37 6 -68 7 -70 2 -2 16 -2 32 0 l28 3 -35 67 -36 68
4 -68z"/>
<path d="M2167 3403 c-4 -21 -9 -52 -13 -69 l-6 -31 60 -6 c45 -5 80 -1 139
14 43 11 82 25 88 30 13 13 1 11 -85 -12 -53 -14 -90 -18 -125 -13 -27 3 -52
8 -54 10 -2 2 0 24 6 48 5 25 7 50 3 56 -4 6 -10 -6 -13 -27z"/>
<path d="M2274 3395 c-10 -8 -14 -15 -8 -15 6 0 17 7 24 15 16 19 9 19 -16 0z"/>
<path d="M1660 3344 c0 -5 9 -18 21 -27 11 -10 18 -25 15 -32 -3 -8 0 -17 6
-21 7 -5 8 -2 3 6 -18 29 16 2 52 -43 65 -79 109 -186 84 -202 -5 -3 -22 0
-37 5 -15 6 -29 9 -31 6 -5 -5 115 -46 134 -46 7 0 13 5 13 11 0 5 -4 8 -9 4
-5 -3 -12 -1 -15 4 -4 5 -2 12 4 16 5 3 10 11 10 16 0 6 -4 7 -10 4 -5 -3 -10
0 -10 9 0 8 6 17 13 20 6 3 1 3 -12 0 -20 -5 -23 -3 -18 10 5 11 3 15 -5 10
-7 -5 -9 0 -6 14 4 12 2 20 -2 17 -12 -8 -33 33 -24 47 4 6 3 8 -4 4 -5 -3
-20 9 -31 26 -33 52 -141 161 -141 142z"/>
<path d="M2095 3291 c-3 -5 -2 -12 3 -15 5 -3 9 1 9 9 0 17 -3 19 -12 6z"/>
<path d="M976 3144 c-11 -8 -16 -14 -10 -14 13 0 39 18 34 24 -3 2 -14 -2 -24
-10z"/>
<path d="M1010 3139 c0 -5 5 -7 10 -4 6 3 10 8 10 11 0 2 -4 4 -10 4 -5 0 -10
-5 -10 -11z"/>
<path d="M1440 3140 c8 -5 20 -10 25 -10 6 0 3 5 -5 10 -8 5 -19 10 -25 10 -5
0 -3 -5 5 -10z"/>
<path d="M1035 3131 c-3 -5 -1 -12 5 -16 5 -3 10 1 10 9 0 18 -6 21 -15 7z"/>
<path d="M2446 3103 c-6 -14 -5 -15 5 -6 7 7 10 15 7 18 -3 3 -9 -2 -12 -12z"/>
<path d="M1548 3103 c7 -3 16 -2 19 1 4 3 -2 6 -13 5 -11 0 -14 -3 -6 -6z"/>
<path d="M4905 3080 c-3 -6 1 -7 9 -4 18 7 21 14 7 14 -6 0 -13 -4 -16 -10z"/>
<path d="M1135 3049 c-11 -17 1 -21 15 -4 8 9 8 15 2 15 -6 0 -14 -5 -17 -11z"/>
<path d="M1995 3020 c-3 -11 -11 -20 -16 -20 -6 0 -7 -5 -4 -10 4 -7 -3 -9
-22 -5 l-28 6 28 -16 c16 -9 35 -14 43 -11 8 3 13 2 10 -3 -6 -9 127 -61 155
-61 25 0 42 51 31 91 -6 19 -11 28 -11 21 -1 -7 -5 -11 -11 -7 -5 3 -7 13 -4
23 5 14 4 14 -4 3 -6 -8 -8 -20 -5 -28 3 -7 1 -13 -5 -13 -6 0 -15 12 -21 28
l-11 27 3 -31 c2 -23 0 -31 -10 -27 -7 3 -11 9 -8 13 12 20 -58 28 -81 9 -14
-11 -24 -1 -17 17 3 8 3 14 0 14 -3 0 -9 -9 -12 -20z m184 -51 c-19 -12 -29
-11 -29 2 0 5 5 7 10 4 6 -3 10 -1 10 5 0 6 5 8 11 4 8 -4 7 -9 -2 -15z m3
-26 c-6 -3 -10 -9 -6 -14 3 -5 0 -9 -5 -9 -6 0 -11 4 -11 8 0 12 23 32 29 25
3 -3 0 -8 -7 -10z"/>
<path d="M1935 3010 c-3 -5 -1 -10 4 -10 6 0 11 5 11 10 0 6 -2 10 -4 10 -3 0
-8 -4 -11 -10z"/>
<path d="M2201 2923 c0 -6 -4 -20 -7 -30 -5 -14 -4 -15 5 -7 7 7 11 20 8 30
-3 11 -5 14 -6 7z"/>
<path d="M5603 2815 c0 -33 2 -45 4 -27 2 18 2 45 0 60 -2 15 -4 0 -4 -33z"/>
<path d="M5602 2720 c0 -19 2 -27 5 -17 2 9 2 25 0 35 -3 9 -5 1 -5 -18z"/>
<path d="M5610 2656 c-3 -2 -2 -56 1 -118 4 -62 10 -221 14 -353 3 -132 9
-242 12 -245 10 -9 -10 670 -20 713 -2 5 -5 6 -7 3z"/>
<path d="M5540 2220 c0 -5 4 -10 9 -10 6 0 13 5 16 10 3 6 -1 10 -9 10 -9 0
-16 -4 -16 -10z"/>
<path d="M3865 1867 c-19 -20 -58 -42 -100 -57 -93 -34 -228 -102 -233 -118
-2 -7 11 -3 30 10 35 24 91 50 188 87 80 32 137 68 143 91 3 11 4 20 4 19 -1
0 -16 -15 -32 -32z"/>
<path d="M4728 1883 c7 -3 16 -2 19 1 4 3 -2 6 -13 5 -11 0 -14 -3 -6 -6z"/>
<path d="M3735 1840 c-16 -7 -17 -9 -3 -9 9 -1 20 4 23 9 7 11 7 11 -20 0z"/>
<path d="M3470 1789 c0 -5 5 -7 10 -4 6 3 10 8 10 11 0 2 -4 4 -10 4 -5 0 -10
-5 -10 -11z"/>
<path d="M3375 1768 c-16 -5 -46 -13 -65 -18 -33 -7 -33 -8 16 -9 38 -1 58 4
75 19 26 21 20 23 -26 8z"/>
<path d="M3515 1750 c-8 -13 15 -13 35 0 12 8 11 10 -7 10 -12 0 -25 -4 -28
-10z"/>
<path d="M4333 1750 c-34 -14 -28 -21 7 -9 17 6 30 13 30 15 0 6 -12 4 -37 -6z"/>
<path d="M4135 1661 c-61 -31 -144 -78 -185 -103 -160 -96 -268 -133 -377
-126 -41 3 -58 1 -47 -5 9 -5 44 -9 78 -9 88 0 209 43 335 120 59 35 150 86
203 113 53 27 99 53 103 59 9 14 11 15 -110 -49z"/>
<path d="M3429 1673 c-11 -3 -15 -11 -12 -23 7 -27 -71 -82 -105 -73 -20 5
-23 3 -17 -8 7 -11 6 -12 -6 -2 -19 15 -39 3 -37 -23 2 -20 4 -21 38 -7 32 14
194 114 188 117 -2 1 -10 6 -18 12 -8 6 -22 9 -31 7z m-154 -123 c3 -5 1 -10
-4 -10 -6 0 -11 5 -11 10 0 6 2 10 4 10 3 0 8 -4 11 -10z"/>
<path d="M3540 1621 c0 -18 86 -105 93 -93 4 6 -7 27 -24 47 -34 38 -69 62
-69 46z"/>
<path d="M4758 1603 c7 -3 16 -2 19 1 4 3 -2 6 -13 5 -11 0 -14 -3 -6 -6z"/>
<path d="M1460 1369 c0 -5 5 -7 10 -4 6 3 10 8 10 11 0 2 -4 4 -10 4 -5 0 -10
-5 -10 -11z"/>
<path d="M2020 1370 c0 -5 9 -10 20 -10 11 0 20 5 20 10 0 6 -9 10 -20 10 -11
0 -20 -4 -20 -10z"/>
<path d="M4200 1330 c0 -5 5 -10 10 -10 6 0 10 5 10 10 0 6 -4 10 -10 10 -5 0
-10 -4 -10 -10z"/>
<path d="M1850 1318 c0 -7 5 -20 10 -28 8 -12 10 -9 10 13 0 15 -4 27 -10 27
-5 0 -10 -6 -10 -12z"/>
<path d="M1886 1305 c-3 -9 0 -15 9 -15 8 0 15 7 15 15 0 8 -4 15 -9 15 -5 0
-11 -7 -15 -15z"/>
<path d="M1921 1304 c0 -11 3 -14 6 -6 3 7 2 16 -1 19 -3 4 -6 -2 -5 -13z"/>
<path d="M1810 1286 c0 -2 7 -9 15 -16 12 -10 15 -10 15 4 0 9 -7 16 -15 16
-8 0 -15 -2 -15 -4z"/>
<path d="M1911 1271 c-9 -6 -10 -11 -2 -15 8 -5 7 -11 -2 -20 -6 -8 -15 -12
-19 -10 -3 2 -4 -6 -1 -17 4 -14 0 -25 -12 -31 -14 -8 -15 -12 -4 -19 21 -13
29 -11 23 6 -4 8 -1 15 6 15 7 0 10 8 8 18 -3 10 1 23 8 30 18 17 25 15 17 -4
-5 -14 -3 -14 13 -5 27 15 54 37 54 44 0 3 -9 3 -20 0 -11 -3 -20 0 -20 6 0
13 -29 14 -49 2z m39 -11 c8 -5 12 -12 9 -15 -8 -8 -39 5 -39 16 0 11 11 11
30 -1z"/>
<path d="M2135 1270 c3 -5 8 -10 11 -10 2 0 4 5 4 10 0 6 -5 10 -11 10 -5 0
-7 -4 -4 -10z"/>
<path d="M1760 1260 c0 -5 7 -10 15 -10 8 0 15 5 15 10 0 6 -7 10 -15 10 -8 0
-15 -4 -15 -10z"/>
<path d="M1877 1263 c-4 -6 -20 -13 -36 -16 -23 -5 -28 -10 -24 -26 3 -12 9
-18 14 -16 4 3 6 11 3 18 -3 8 6 13 22 15 32 2 38 6 32 23 -3 9 -7 10 -11 2z"/>
<path d="M680 1250 c0 -5 5 -10 10 -10 6 0 10 5 10 10 0 6 -4 10 -10 10 -5 0
-10 -4 -10 -10z"/>
<path d="M996 1225 c-23 -36 -20 -42 9 -15 26 24 32 40 16 40 -5 0 -16 -11
-25 -25z"/>
<path d="M2031 1241 c-11 -7 -11 -9 0 -13 8 -3 11 -9 6 -13 -4 -5 -13 -3 -19
3 -17 17 -48 15 -48 -3 0 -8 -4 -15 -10 -15 -5 0 -10 -7 -10 -15 0 -8 -6 -15
-12 -16 -7 0 -4 -5 7 -10 17 -8 16 -9 -7 -6 -19 3 -28 0 -28 -9 0 -8 -6 -11
-15 -8 -11 5 -15 -1 -15 -25 0 -35 7 -40 18 -12 6 15 12 17 32 9 18 -7 21 -11
11 -17 -9 -6 -5 -10 13 -13 15 -3 23 -1 20 4 -4 6 2 8 12 6 12 -2 18 -11 17
-23 -1 -11 0 -14 3 -7 4 8 11 5 24 -10 10 -13 15 -27 11 -33 -4 -5 -11 -19
-14 -30 -5 -15 -3 -14 11 5 9 14 36 46 60 72 30 32 37 45 24 41 -13 -3 -29 6
-50 28 -17 18 -30 35 -28 36 2 2 19 -4 39 -12 21 -8 37 -13 37 -10 0 10 -71
34 -85 29 -22 -9 -18 6 7 28 18 15 19 21 9 27 -11 7 -11 10 0 14 8 3 10 6 4 6
-5 0 -16 -3 -24 -8z m-41 -51 c-9 -6 -4 -12 16 -24 34 -18 29 -20 -14 -5 -31
11 -31 11 -15 36 11 16 19 21 21 13 3 -7 -1 -16 -8 -20z m-35 -60 c3 -5 -3
-10 -14 -10 -12 0 -21 5 -21 10 0 6 6 10 14 10 8 0 18 -4 21 -10z m113 -15
c12 -14 27 -25 33 -25 6 0 4 -7 -5 -15 -8 -8 -18 -15 -22 -15 -3 0 -1 7 6 15
10 13 9 15 -11 15 -13 0 -19 -4 -14 -8 10 -6 11 -19 7 -46 -1 -5 -9 -3 -17 4
-9 7 -14 19 -11 27 3 8 2 11 -3 8 -5 -3 -12 4 -16 15 -4 11 -11 18 -16 15 -5
-4 -14 -3 -21 1 -8 5 -6 10 8 15 12 4 26 1 37 -9 9 -8 20 -12 25 -7 4 4 1 10
-5 12 -14 5 -18 23 -5 23 5 0 18 -11 30 -25z"/>
<path d="M953 1233 c-15 -5 -17 -23 -4 -23 5 0 11 7 15 15 3 8 4 15 3 14 -1 0
-8 -3 -14 -6z"/>
<path d="M1340 1229 c0 -5 5 -7 10 -4 6 3 10 8 10 11 0 2 -4 4 -10 4 -5 0 -10
-5 -10 -11z"/>
<path d="M2190 1236 c0 -2 7 -6 15 -10 8 -3 15 -1 15 4 0 6 -7 10 -15 10 -8 0
-15 -2 -15 -4z"/>
<path d="M1846 1189 c-3 -17 -10 -28 -15 -24 -5 3 -12 1 -16 -5 -3 -5 0 -10 8
-10 15 0 47 41 47 60 0 23 -18 8 -24 -21z"/>
<path d="M2258 1176 c-67 -35 -88 -42 -99 -33 -11 10 -11 9 0 -5 11 -15 11
-18 1 -18 -8 0 -11 -2 -8 -5 3 -3 32 10 64 28 33 19 76 40 97 48 20 7 37 17
37 21 0 12 1 12 -92 -36z"/>
<path d="M2201 1194 c0 -11 3 -14 6 -6 3 7 2 16 -1 19 -3 4 -6 -2 -5 -13z"/>
<path d="M1100 1166 c0 -2 7 -7 16 -10 8 -3 12 -2 9 4 -6 10 -25 14 -25 6z"/>
<path d="M1303 1161 c-15 -11 -12 -61 3 -61 8 0 14 5 14 10 0 6 9 10 20 10 25
0 26 -17 3 -24 -15 -4 -15 -5 1 -3 31 3 30 26 -1 38 l-28 12 25 7 25 6 -27 6
c-15 3 -30 2 -35 -1z"/>
<path d="M1035 1150 c3 -5 8 -10 11 -10 2 0 4 5 4 10 0 6 -5 10 -11 10 -5 0
-7 -4 -4 -10z"/>
<path d="M1390 1140 c0 -5 5 -10 11 -10 5 0 7 5 4 10 -3 6 -8 10 -11 10 -2 0
-4 -4 -4 -10z"/>
<path d="M1846 1143 c-11 -11 -6 -23 9 -23 8 0 15 4 15 9 0 13 -16 22 -24 14z"/>
<path d="M2108 1123 c6 -2 18 -2 25 0 6 3 1 5 -13 5 -14 0 -19 -2 -12 -5z"/>
<path d="M1580 1110 c0 -5 5 -10 10 -10 6 0 10 5 10 10 0 6 -4 10 -10 10 -5 0
-10 -4 -10 -10z"/>
<path d="M1846 1085 c-3 -9 0 -15 8 -15 7 0 13 7 13 15 0 8 -4 15 -8 15 -4 0
-9 -7 -13 -15z"/>
<path d="M1385 1080 c-3 -5 1 -10 9 -10 9 0 16 5 16 10 0 6 -4 10 -9 10 -6 0
-13 -4 -16 -10z"/>
<path d="M1555 1069 c-4 -6 -5 -13 -2 -16 7 -7 27 6 27 18 0 12 -17 12 -25 -2z"/>
<path d="M1646 1073 c-20 -3 -25 -7 -17 -13 16 -9 51 -1 51 11 0 5 -1 8 -2 8
-2 -1 -16 -4 -32 -6z"/>
<path d="M1750 1070 c0 -5 5 -10 10 -10 6 0 10 5 10 10 0 6 -4 10 -10 10 -5 0
-10 -4 -10 -10z"/>
<path d="M1420 1061 c0 -6 5 -13 11 -17 6 -3 9 -14 6 -24 -3 -13 2 -17 26 -16
17 1 32 6 34 12 2 7 -5 10 -21 7 -21 -4 -26 0 -32 21 -6 25 -24 37 -24 17z"/>
<path d="M1517 1063 c-4 -3 -7 -11 -7 -17 0 -6 5 -5 12 2 6 6 9 14 7 17 -3 3
-9 2 -12 -2z"/>
<path d="M1780 1060 c0 -5 9 -10 20 -10 11 0 20 5 20 10 0 6 -9 10 -20 10 -11
0 -20 -4 -20 -10z"/>
<path d="M1376 1036 c10 -8 21 -12 24 -10 5 6 -21 24 -34 24 -6 0 -1 -6 10
-14z"/>
<path d="M1663 1042 c-38 -6 -19 -63 20 -61 l22 0 -22 11 c-13 6 -23 15 -23
20 0 12 28 10 32 -3 2 -7 9 -10 16 -8 20 7 -21 45 -45 41z"/>
<path d="M1760 1037 c0 -10 5 -17 11 -17 5 0 7 -5 3 -11 -5 -8 -9 -8 -14 1 -8
13 -30 5 -30 -11 0 -14 58 -11 63 4 4 10 6 10 6 0 1 -15 37 -17 46 -3 3 6 -1
10 -9 10 -33 0 -14 18 27 26 l42 8 -33 4 c-22 2 -40 -3 -53 -14 -18 -16 -20
-16 -39 1 -18 16 -20 16 -20 2z"/>
<path d="M1530 1020 c0 -5 5 -10 10 -10 6 0 10 5 10 10 0 6 -4 10 -10 10 -5 0
-10 -4 -10 -10z"/>
<path d="M1507 991 c-2 -11 -2 -22 0 -25 8 -8 43 13 43 25 0 6 -5 7 -11 3 -6
-3 -15 -1 -19 6 -5 8 -9 5 -13 -9z"/>
<path d="M1997 966 c-3 -8 -2 -18 3 -21 13 -8 20 9 11 24 -6 10 -10 9 -14 -3z"/>
<path d="M1405 951 c-7 -13 19 -26 34 -17 5 4 12 2 15 -2 8 -14 51 -7 51 9 0
17 -90 26 -100 10z"/>
<path d="M1966 921 c-4 -5 3 -7 14 -4 23 6 26 13 6 13 -8 0 -17 -4 -20 -9z"/>
<path d="M930 911 c0 -6 5 -13 10 -16 6 -3 10 1 10 9 0 9 -4 16 -10 16 -5 0
-10 -4 -10 -9z"/>
<path d="M1355 900 c3 -5 8 -10 11 -10 2 0 4 5 4 10 0 6 -5 10 -11 10 -5 0 -7
-4 -4 -10z"/>
<path d="M1870 890 c0 -5 9 -10 21 -10 11 0 17 5 14 10 -3 6 -13 10 -21 10 -8
0 -14 -4 -14 -10z"/>
<path d="M1150 842 c0 -4 9 -8 19 -8 11 0 17 4 15 8 -7 10 -34 10 -34 0z"/>
<path d="M1121 830 c0 -8 4 -22 9 -30 12 -18 12 -2 0 25 -6 13 -9 15 -9 5z"/>
<path d="M84 781 c1 -16 4 -27 9 -24 10 6 9 53 -2 53 -4 0 -8 -13 -7 -29z"/>
<path d="M1160 803 c0 -5 8 -17 17 -28 14 -18 15 -18 9 -2 -3 10 -6 23 -6 28
0 5 -4 9 -10 9 -5 0 -10 -3 -10 -7z"/>
<path d="M180 781 c0 -5 7 -11 15 -15 8 -3 15 -1 15 3 0 5 -7 11 -15 15 -8 3
-15 1 -15 -3z"/>
<path d="M1495 770 c-3 -5 -1 -10 4 -10 6 0 11 5 11 10 0 6 -2 10 -4 10 -3 0
-8 -4 -11 -10z"/>
<path d="M160 760 c0 -6 7 -10 15 -10 8 0 15 2 15 4 0 2 -7 6 -15 10 -8 3 -15
1 -15 -4z"/>
<path d="M1458 763 c7 -3 16 -2 19 1 4 3 -2 6 -13 5 -11 0 -14 -3 -6 -6z"/>
<path d="M315 750 c-3 -6 1 -7 9 -4 18 7 21 14 7 14 -6 0 -13 -4 -16 -10z"/>
<path d="M1040 730 c0 -5 5 -10 11 -10 5 0 7 5 4 10 -3 6 -8 10 -11 10 -2 0
-4 -4 -4 -10z"/>
<path d="M1500 730 c0 -5 5 -10 10 -10 6 0 10 5 10 10 0 6 -4 10 -10 10 -5 0
-10 -4 -10 -10z"/>
<path d="M1440 710 c0 -5 4 -10 9 -10 6 0 13 5 16 10 3 6 -1 10 -9 10 -9 0
-16 -4 -16 -10z"/>
<path d="M1560 687 c14 -6 28 -16 32 -22 4 -5 6 0 5 13 -1 18 -7 22 -32 21
l-30 0 25 -12z"/>
<path d="M1620 659 c0 -5 5 -7 10 -4 6 3 10 8 10 11 0 2 -4 4 -10 4 -5 0 -10
-5 -10 -11z"/>
<path d="M1605 630 c-8 -13 4 -32 16 -25 12 8 12 35 0 35 -6 0 -13 -4 -16 -10z"/>
<path d="M1650 625 c0 -8 5 -15 10 -15 6 0 10 7 10 15 0 8 -4 15 -10 15 -5 0
-10 -7 -10 -15z"/>
<path d="M1831 574 c0 -11 3 -14 6 -6 3 7 2 16 -1 19 -3 4 -6 -2 -5 -13z"/>
<path d="M1440 563 c0 -5 11 -13 25 -20 22 -10 25 -9 25 8 0 14 -7 19 -25 19
-14 0 -25 -3 -25 -7z"/>
<path d="M1830 529 c-8 -10 -21 -19 -30 -19 -10 0 -7 -7 10 -20 17 -13 20 -20
10 -20 -13 0 -13 -1 0 -10 8 -5 15 -20 15 -32 0 -13 6 -23 13 -22 6 1 35 2 62
3 28 0 50 5 50 11 0 6 -25 8 -62 5 -40 -2 -50 -1 -28 3 21 4 35 13 35 22 0 8
6 15 13 15 6 0 12 3 12 8 0 4 -2 7 -5 7 -3 0 -11 0 -19 0 -8 0 -16 -8 -18 -17
-3 -10 -6 -1 -9 20 -3 20 -1 37 3 37 4 0 8 -4 8 -10 0 -5 7 -10 15 -10 12 0
10 5 -5 20 -28 28 -40 17 -40 -38 0 -32 -3 -42 -9 -33 -10 15 -7 63 3 80 12
19 -11 19 -24 0z"/>
<path d="M1498 513 c7 -3 16 -2 19 1 4 3 -2 6 -13 5 -11 0 -14 -3 -6 -6z"/>
<path d="M1980 440 c-8 -5 -10 -10 -5 -10 6 0 17 5 25 10 8 5 11 10 5 10 -5 0
-17 -5 -25 -10z"/>
<path d="M1800 400 c0 -5 7 -10 16 -10 11 0 15 -6 11 -20 -6 -22 -2 -23 28
-10 13 6 15 9 5 9 -8 1 -21 10 -28 21 -13 21 -32 27 -32 10z"/>
<path d="M1790 340 c0 -5 5 -10 10 -10 6 0 10 5 10 10 0 6 -4 10 -10 10 -5 0
-10 -4 -10 -10z"/>
<path d="M1780 300 c0 -5 7 -10 15 -10 8 0 15 5 15 10 0 6 -7 10 -15 10 -8 0
-15 -4 -15 -10z"/>
<path d="M1817 283 c-11 -11 -8 -63 4 -63 7 0 10 12 7 30 -2 16 0 32 6 34 8 3
8 5 0 5 -6 1 -14 -2 -17 -6z"/>
<path d="M1570 169 c-24 -7 -22 -10 10 -13 8 0 14 -9 14 -18 -1 -10 2 -18 7
-18 10 0 11 18 1 41 -5 11 -14 13 -32 8z"/>
<path d="M1265 160 c-3 -5 -1 -10 4 -10 6 0 11 5 11 10 0 6 -2 10 -4 10 -3 0
-8 -4 -11 -10z"/>
<path d="M1335 140 c3 -5 10 -10 16 -10 5 0 9 5 9 10 0 6 -7 10 -16 10 -8 0
-12 -4 -9 -10z"/>
<path d="M1545 130 c3 -5 10 -10 16 -10 5 0 9 5 9 10 0 6 -7 10 -16 10 -8 0
-12 -4 -9 -10z"/>
<path d="M1036 121 c-9 -15 5 -41 22 -41 13 0 13 2 -1 18 -10 10 -14 22 -10
25 3 4 4 7 0 7 -3 0 -8 -4 -11 -9z"/>
<path d="M1270 120 c-10 -6 -11 -10 -2 -10 6 0 12 -5 12 -11 0 -5 -4 -8 -9 -4
-5 3 -12 1 -16 -5 -8 -12 15 -13 34 -1 7 5 10 14 6 21 -5 9 -1 10 16 5 19 -5
21 -4 9 4 -19 13 -31 13 -50 1z"/>
<path d="M930 88 c0 -4 5 -8 10 -8 6 0 10 -4 10 -10 0 -5 -9 -10 -21 -10 -11
0 -17 -4 -14 -10 3 -5 1 -10 -6 -10 -7 0 -5 -8 6 -20 17 -19 30 -20 132 -19
104 1 130 7 103 24 -8 5 -7 11 1 21 9 11 7 14 -10 14 -11 0 -21 -4 -21 -10 0
-5 -4 -10 -10 -10 -5 0 -10 9 -10 20 0 22 -20 26 -37 9 -9 -9 -19 -6 -40 9
-29 20 -93 27 -93 10z m70 -18 c0 -5 -2 -10 -4 -10 -3 0 -8 5 -11 10 -3 6 -1
10 4 10 6 0 11 -4 11 -10z m-49 -39 c-12 -12 -21 -16 -21 -10 0 12 32 40 38
34 2 -2 -6 -13 -17 -24z"/>
<path d="M1200 60 c0 -5 7 -10 15 -10 8 0 15 5 15 10 0 6 -7 10 -15 10 -8 0
-15 -4 -15 -10z"/>
<path d="M1240 50 c0 -5 7 -10 15 -10 8 0 15 -9 15 -20 0 -11 5 -20 10 -20 16
0 11 32 -7 46 -22 16 -33 17 -33 4z"/>
<path d="M1170 20 c0 -15 8 -18 45 -18 67 0 53 27 -17 34 -22 2 -28 -2 -28
-16z"/>
<path d="M1302 20 c0 -14 2 -19 5 -12 2 6 2 18 0 25 -3 6 -5 1 -5 -13z"/>
</g>
</svg>
