<?xml version="1.0" standalone="no"?>
<!DOCTYPE svg PUBLIC "-//W3C//DTD SVG 20010904//EN"
 "http://www.w3.org/TR/2001/REC-SVG-20010904/DTD/svg10.dtd">
<svg version="1.0" xmlns="http://www.w3.org/2000/svg"
 width="563.000000pt" height="375.000000pt" viewBox="0 0 563.000000 375.000000"
 preserveAspectRatio="xMidYMid meet">

<g transform="translate(0.000000,375.000000) scale(0.100000,-0.100000)"
fill="#000000" stroke="none">
<path d="M3635 2450 c-3 -6 5 -14 18 -19 15 -6 32 -28 47 -63 12 -29 34 -78
47 -108 54 -122 53 -116 35 -134 -10 -10 -12 -16 -4 -16 7 0 12 6 13 13 1 6 4
1 8 -13 6 -23 88 -79 117 -80 20 0 -4 93 -57 217 -59 137 -84 174 -63 92 16
-61 12 -73 -10 -31 -12 22 -21 29 -35 25 -16 -4 -24 3 -38 33 -35 78 -63 108
-78 84z m125 -156 c0 -8 4 -13 9 -9 5 3 13 0 17 -6 4 -8 3 -9 -4 -5 -7 4 -12
3 -12 -3 0 -5 4 -12 9 -15 9 -6 22 -46 15 -46 -4 0 -54 96 -54 105 0 4 5 3 10
0 6 -3 10 -13 10 -21z"/>
<path d="M3700 2444 c0 -5 7 -18 15 -28 8 -11 15 -16 15 -10 0 5 -7 18 -15 28
-8 11 -15 16 -15 10z"/>
<path d="M3540 2429 c11 -8 4 -9 -27 -5 -31 5 -43 3 -43 -7 0 -16 -72 -48 -85
-37 -5 5 -26 0 -45 -10 -19 -11 -30 -19 -23 -20 7 0 10 -6 8 -12 -4 -10 10
-13 52 -13 63 0 146 -33 193 -78 36 -33 102 -77 117 -77 16 0 43 52 43 81 0
51 -88 177 -113 162 -6 -4 -8 0 -4 10 5 14 -1 17 -41 17 -36 0 -43 -3 -32 -11z"/>
<path d="M3735 2369 c-4 -6 -5 -13 -2 -16 7 -7 27 6 27 18 0 12 -17 12 -25 -2z"/>
<path d="M3256 2315 c-10 -8 -23 -12 -27 -9 -14 8 -11 -2 11 -39 26 -44 19
-117 -11 -117 -21 0 -89 31 -89 40 0 4 -6 7 -14 7 -10 0 -11 -9 -5 -36 13 -57
11 -71 -15 -82 -20 -10 -28 -8 -47 10 -13 12 -25 17 -27 11 -6 -17 -22 -11
-22 8 0 9 -4 23 -9 30 -5 9 -8 -7 -6 -40 1 -44 8 -62 41 -107 46 -63 296 -342
372 -414 48 -46 51 -52 37 -67 -14 -16 -13 -21 12 -51 21 -26 22 -30 5 -14
-22 18 -24 18 -50 2 -15 -9 -47 -27 -70 -39 -24 -12 -39 -24 -33 -26 20 -7 11
-32 -11 -33 -13 0 -18 -3 -12 -5 12 -5 323 58 400 81 l52 15 -4 47 c-3 25 -8
51 -12 57 -19 32 -144 136 -162 136 -22 0 -55 -46 -65 -91 -13 -58 -28 -54
-106 29 -201 213 -204 217 -178 220 36 6 49 21 49 56 0 66 64 105 116 71 14
-9 32 -14 41 -11 19 8 12 54 -18 123 -32 74 -20 80 44 21 81 -73 117 -101 123
-95 3 3 -12 18 -33 33 -21 16 -55 46 -76 66 -21 21 -41 38 -45 38 -4 0 -13 10
-21 21 -12 20 -11 21 7 17 19 -5 20 -4 9 16 -7 11 -18 25 -24 29 -7 4 -13 13
-13 18 0 17 -62 68 -75 62 -7 -2 -15 2 -17 11 -3 13 -6 13 -22 1z m-197 -287
c11 -10 21 -27 21 -38 0 -11 11 -27 25 -36 25 -16 60 -74 45 -74 -12 0 -150
177 -143 183 3 4 11 1 18 -6 7 -7 22 -20 34 -29z m311 -645 c0 -1 -10 -7 -21
-14 -13 -6 -19 -7 -15 -1 3 6 0 12 -6 15 -7 2 -1 4 14 3 16 0 28 -2 28 -3z"/>
<path d="M3410 2286 c0 -2 7 -7 16 -10 8 -3 12 -2 9 4 -6 10 -25 14 -25 6z"/>
<path d="M3555 2200 c33 -35 63 -42 43 -11 -7 11 -16 17 -20 15 -5 -3 -11 2
-14 10 -3 9 -13 16 -22 16 -11 0 -8 -8 13 -30z"/>
<path d="M2969 2188 c-7 -25 -5 -36 6 -31 8 2 11 11 8 19 -5 12 -12 18 -14 12z"/>
<path d="M3436 2146 c3 -9 10 -16 14 -16 5 0 27 -18 50 -40 23 -22 45 -40 49
-40 4 0 18 -12 32 -26 28 -30 113 -94 125 -94 10 0 -15 22 -101 90 -38 30 -81
66 -95 79 -14 12 -37 32 -52 43 -22 15 -27 16 -22 4z"/>
<path d="M3681 2106 c36 -35 165 -113 274 -167 248 -122 452 -139 652 -53 l82
35 43 -19 c24 -11 61 -38 83 -61 24 -24 49 -41 63 -41 13 0 21 -4 18 -9 -3 -5
9 -11 27 -14 36 -6 119 -36 100 -37 -7 0 -13 -5 -13 -11 0 -8 13 -10 38 -6 32
4 28 1 -33 -29 -71 -34 -83 -46 -20 -20 44 19 105 28 105 17 0 -11 43 -22 52
-13 8 8 -17 134 -32 163 -6 11 -14 18 -18 15 -4 -3 -17 9 -27 25 -23 33 -42
44 -42 23 0 -8 5 -14 11 -14 6 0 4 -5 -4 -11 -13 -9 -13 -10 2 -6 9 3 21 0 27
-7 8 -9 7 -13 -2 -13 -6 0 -19 -2 -27 -4 -9 -3 -16 5 -18 21 -5 40 -25 84 -46
101 -21 17 -15 39 12 39 9 0 28 -11 42 -25 l26 -25 1 23 c0 12 -1 16 -4 9 -4
-10 -8 -10 -19 -1 -19 15 -8 29 22 29 28 0 28 1 11 43 -18 42 -43 63 -59 49
-7 -5 -47 -27 -88 -49 -41 -22 -84 -44 -95 -50 -26 -13 -86 -34 -105 -36 -8
-1 -23 -9 -32 -17 -23 -18 -131 -57 -166 -59 -7 -1 -11 -4 -9 -8 3 -5 -20 -9
-50 -9 -31 -1 -58 -6 -62 -12 -3 -5 -36 -12 -72 -16 -62 -7 -67 -6 -72 13 -5
21 -26 25 -103 21 -20 -1 -41 7 -60 23 -16 13 -51 34 -79 47 -27 12 -97 45
-155 73 -58 27 -111 50 -117 50 -7 0 -13 4 -13 9 0 5 -4 6 -10 3 -5 -3 -10 -2
-10 3 0 5 -10 12 -22 15 -18 5 -19 4 -7 -7z m1429 -266 c0 -5 -5 -10 -11 -10
-5 0 -7 5 -4 10 3 6 8 10 11 10 2 0 4 -4 4 -10z m-33 -6 c-3 -3 -12 -4 -19 -1
-8 3 -5 6 6 6 11 1 17 -2 13 -5z"/>
<path d="M3580 1994 c0 -17 15 -32 75 -78 33 -25 65 -49 70 -53 33 -26 156
-102 190 -117 22 -11 67 -32 99 -47 33 -16 64 -29 69 -29 5 0 43 -16 85 -36
72 -34 77 -35 106 -21 l31 14 -45 20 c-25 11 -65 28 -90 38 -60 24 -150 64
-173 76 -11 6 -21 8 -25 5 -3 -3 16 -15 42 -26 25 -12 44 -25 41 -30 -16 -26
-362 179 -450 268 -14 13 -25 21 -25 16z m568 -314 c42 -17 88 -37 102 -45
l25 -15 -30 6 c-16 4 -58 19 -93 35 -35 16 -70 29 -78 29 -8 0 -14 5 -14 10 0
14 1 14 88 -20z"/>
<path d="M5073 1970 c6 -44 26 -95 34 -87 7 8 -16 98 -29 112 -6 6 -8 -3 -5
-25z"/>
<path d="M3025 1960 c10 -11 20 -20 22 -20 2 0 -2 9 -9 20 -7 11 -17 20 -22
20 -5 0 -1 -9 9 -20z"/>
<path d="M3060 1910 c6 -11 16 -20 22 -20 6 0 3 9 -7 20 -10 11 -20 20 -22 20
-2 0 1 -9 7 -20z"/>
<path d="M3725 1910 c3 -5 11 -10 16 -10 6 0 7 5 4 10 -3 6 -11 10 -16 10 -6
0 -7 -4 -4 -10z"/>
<path d="M3760 1894 c0 -8 91 -73 115 -83 5 -2 22 -12 37 -22 32 -23 62 -25
33 -3 -11 9 -37 23 -57 32 -21 9 -38 20 -38 24 0 5 -5 8 -11 8 -6 0 -26 12
-45 26 -19 15 -34 22 -34 18z"/>
<path d="M3102 1860 c7 -11 16 -20 20 -20 5 0 3 9 -4 20 -7 11 -16 20 -20 20
-5 0 -3 -9 4 -20z"/>
<path d="M2448 1863 c7 -3 16 -2 19 1 4 3 -2 6 -13 5 -11 0 -14 -3 -6 -6z"/>
<path d="M2997 1821 c-38 -21 -73 -44 -78 -52 -5 -8 -9 -9 -9 -4 0 7 -3 7 -8
0 -25 -35 -173 -89 -330 -120 -89 -18 -198 -52 -250 -79 -17 -9 -35 -17 -39
-17 -5 -1 -33 -17 -63 -37 -47 -30 -52 -31 -31 -9 27 30 136 84 236 118 85 28
81 25 66 43 -12 14 -63 13 -101 -2 -16 -6 -19 -7 -95 -21 -69 -13 -167 -68
-161 -89 3 -10 8 -29 11 -44 4 -15 13 -29 21 -32 8 -3 52 14 97 38 99 53 169
77 302 106 172 37 327 79 335 90 12 17 142 110 154 110 13 0 43 -31 94 -96 33
-42 174 -184 184 -184 4 0 21 -14 38 -32 17 -17 33 -29 36 -26 3 3 -39 49 -93
101 -70 69 -98 103 -99 121 -2 30 10 34 25 9 6 -10 11 -13 11 -7 0 14 -102
124 -115 124 -5 0 9 -18 30 -40 26 -27 40 -51 41 -70 l2 -30 -31 33 c-16 17
-48 56 -70 85 -22 28 -40 52 -41 51 0 0 -32 -17 -69 -38z"/>
<path d="M4955 1710 c-3 -5 -1 -10 4 -10 6 0 11 5 11 10 0 6 -2 10 -4 10 -3 0
-8 -4 -11 -10z"/>
<path d="M3270 1681 c0 -5 7 -15 17 -22 15 -13 15 -12 4 9 -12 23 -21 28 -21
13z"/>
<path d="M4845 1670 c-13 -6 -15 -9 -5 -9 8 0 22 4 30 9 18 12 2 12 -25 0z"/>
<path d="M2030 1631 c0 -5 5 -13 10 -16 6 -3 10 -2 10 4 0 5 -4 13 -10 16 -5
3 -10 2 -10 -4z"/>
<path d="M2081 1603 c-1 -41 -14 -57 -24 -30 -3 6 -6 0 -6 -14 -1 -33 -40 -69
-74 -69 -28 0 -37 -7 -97 -76 -34 -39 -79 -66 -131 -79 -24 -6 -30 -1 -64 54
-47 75 -58 80 -17 7 17 -30 28 -56 25 -59 -6 -6 -42 34 -61 68 -8 14 -11 15
-12 5 0 -8 18 -37 40 -65 43 -55 41 -69 -14 -70 -32 -1 -34 0 -31 29 2 17 1
26 -1 20 -8 -20 -42 -4 -41 19 0 12 -3 30 -7 40 -5 10 -4 17 2 17 5 0 15 -13
22 -30 7 -16 16 -30 21 -30 10 0 -7 36 -39 83 -19 28 -39 25 -22 -3 5 -8 5
-19 0 -25 -14 -17 5 -73 42 -125 18 -25 37 -48 42 -51 37 -23 85 -66 86 -76 0
-7 5 -13 11 -13 5 0 7 -5 3 -12 -5 -8 -2 -9 10 -5 14 6 15 4 5 -16 -25 -48
-37 -55 -82 -47 -23 5 -46 6 -51 3 -5 -4 -6 -1 -2 5 9 14 -5 22 -51 26 -21 2
-60 14 -88 26 -34 15 -87 25 -170 32 -66 6 -121 14 -123 19 -2 5 -35 9 -72 9
-38 0 -131 9 -207 20 -76 11 -156 23 -178 26 -22 3 -57 10 -77 15 -42 11 -91
3 -81 -14 4 -6 -4 -8 -23 -3 -17 4 -24 3 -16 -2 9 -6 2 -16 -27 -35 -45 -30
-111 -115 -128 -165 -11 -30 -10 -33 15 -46 45 -23 162 -55 247 -66 256 -35
288 -38 304 -30 9 4 37 17 62 29 26 11 64 40 87 66 34 38 41 53 40 86 0 23 4
45 10 51 13 13 123 11 211 -3 72 -11 154 -43 173 -67 8 -9 8 -13 2 -9 -18 11
-24 -16 -13 -60 8 -29 7 -49 -5 -83 -8 -24 -13 -46 -10 -49 3 -3 177 -9 387
-14 339 -7 614 -5 861 7 44 2 89 1 100 -3 12 -4 50 -4 86 -1 l65 7 -70 3 c-38
1 -83 6 -100 10 -28 7 -29 8 -5 10 14 1 19 4 13 7 -7 2 -29 -1 -49 -7 -29 -10
-38 -9 -52 3 -20 17 -54 19 -46 3 3 -6 -2 -2 -10 8 -9 11 -19 17 -23 13 -3 -4
2 -16 12 -27 25 -28 13 -25 -37 9 -24 16 -47 27 -52 24 -5 -4 -6 -2 -3 4 3 5
-10 22 -30 39 -183 149 -248 222 -321 357 -33 62 -63 128 -67 147 -4 19 -12
46 -18 60 -10 26 -18 61 -20 93 -1 10 -7 15 -14 13 -7 -3 -13 6 -16 22 -3 18
-4 13 -6 -15z m-241 -253 c0 -5 -5 -10 -11 -10 -5 0 -7 5 -4 10 3 6 8 10 11
10 2 0 4 -4 4 -10z m-70 -30 c0 -5 -7 -10 -16 -10 -8 0 -12 5 -9 10 3 6 10 10
16 10 5 0 9 -4 9 -10z m-50 -10 c0 -5 -2 -10 -4 -10 -3 0 -8 5 -11 10 -3 6 -1
10 4 10 6 0 11 -4 11 -10z m21 -142 c15 -28 5 -21 -21 15 -15 20 -17 27 -6 18
9 -8 22 -23 27 -33z m-361 -44 c50 -7 149 -46 155 -62 2 -7 1 -11 -3 -10 -89
43 -142 57 -244 64 -51 4 -100 11 -108 16 -14 9 114 4 200 -8z m1337 -279 c0
-8 -4 -12 -9 -9 -4 3 -8 9 -8 15 0 5 4 9 8 9 5 0 9 -7 9 -15z"/>
<path d="M1840 1611 c-40 -16 -45 -22 -45 -50 -1 -37 2 -38 27 -6 11 14 26 25
34 25 8 0 13 4 12 9 -2 5 6 17 17 25 26 20 10 19 -45 -3z"/>
<path d="M3320 1626 c0 -7 109 -116 116 -116 9 0 -30 45 -73 84 -24 21 -43 36
-43 32z"/>
<path d="M4780 1600 c-25 -10 -40 -19 -34 -19 14 -1 84 28 84 34 0 6 3 7 -50
-15z"/>
<path d="M4670 1560 c0 -13 30 -13 50 0 11 7 7 10 -17 10 -18 0 -33 -4 -33
-10z"/>
<path d="M1647 1502 c7 -17 22 -32 35 -32 13 0 -2 25 -22 38 -17 10 -18 9 -13
-6z"/>
<path d="M4430 1509 c0 -5 5 -7 10 -4 6 3 10 8 10 11 0 2 -4 4 -10 4 -5 0 -10
-5 -10 -11z"/>
<path d="M4546 1513 c-3 -4 15 -13 41 -20 26 -7 53 -15 58 -16 6 -2 64 -16
130 -31 66 -15 152 -37 190 -48 39 -11 75 -21 80 -23 6 -1 21 -7 35 -12 139
-60 185 -67 84 -13 -57 30 -39 32 21 3 28 -14 29 -14 14 1 -20 21 -119 59
-119 46 0 -6 5 -10 10 -10 6 0 10 -4 10 -9 0 -6 -33 1 -72 15 -40 13 -73 24
-73 23 0 -1 -18 4 -40 10 -152 41 -344 91 -352 91 -5 0 -13 -3 -17 -7z"/>
<path d="M4702 1504 c10 -10 20 -15 24 -12 3 4 -5 12 -18 18 -22 12 -22 12 -6
-6z"/>
<path d="M4851 1492 c0 -4 4 -16 9 -27 8 -18 9 -18 10 5 l1 25 15 -29 c11 -20
18 -25 24 -17 5 10 9 9 13 -3 4 -11 16 -15 37 -12 16 2 30 -1 30 -5 0 -5 4 -9
10 -9 5 0 6 9 1 22 -5 15 -18 23 -35 25 -15 1 -34 7 -41 13 -15 12 -75 22 -74
12z"/>
<path d="M4350 1480 c-9 -6 -10 -10 -3 -10 6 0 15 5 18 10 8 12 4 12 -15 0z"/>
<path d="M1710 1456 c0 -2 7 -6 15 -10 8 -3 15 -1 15 4 0 6 -7 10 -15 10 -8 0
-15 -2 -15 -4z"/>
<path d="M4220 1429 c0 -5 5 -7 10 -4 6 3 10 8 10 11 0 2 -4 4 -10 4 -5 0 -10
-5 -10 -11z"/>
<path d="M5020 1420 c0 -5 5 -10 11 -10 5 0 7 5 4 10 -3 6 -8 10 -11 10 -2 0
-4 -4 -4 -10z"/>
<path d="M5050 1410 c0 -5 5 -10 10 -10 6 0 10 5 10 10 0 6 -4 10 -10 10 -5 0
-10 -4 -10 -10z"/>
<path d="M4058 1363 c7 -3 16 -2 19 1 4 3 -2 6 -13 5 -11 0 -14 -3 -6 -6z"/>
<path d="M4018 1353 c7 -3 16 -2 19 1 4 3 -2 6 -13 5 -11 0 -14 -3 -6 -6z"/>
<path d="M3975 1340 c-3 -5 -1 -10 4 -10 6 0 11 5 11 10 0 6 -2 10 -4 10 -3 0
-8 -4 -11 -10z"/>
<path d="M4025 1317 c-44 -18 -97 -45 -117 -59 -20 -14 -54 -28 -75 -32 -55
-9 -70 -20 -54 -40 8 -10 9 -16 3 -16 -6 0 -14 4 -17 10 -4 6 -17 4 -35 -5
-19 -10 -53 -14 -96 -13 l-68 2 -46 -53 c-44 -50 -50 -53 -81 -47 -19 4 -44 8
-56 9 -11 1 -19 5 -16 10 8 14 -15 7 -32 -9 -38 -38 -53 -96 -16 -61 11 10 13
9 8 -5 -5 -13 0 -16 23 -16 16 1 35 -4 43 -10 7 -6 30 -12 50 -14 20 -1 37 -6
37 -10 0 -4 -4 -8 -9 -8 -5 0 -14 -14 -21 -30 -13 -31 -38 -43 -81 -39 -43 4
-125 -3 -104 -9 12 -3 -12 -11 -60 -18 l-80 -13 90 5 c50 3 153 9 230 14 77 5
216 14 309 20 94 6 175 15 182 21 8 7 14 6 18 -3 5 -11 7 -11 12 0 5 10 9 10
22 0 13 -11 15 -10 9 5 -4 11 -2 17 8 17 8 0 15 -4 15 -10 0 -6 30 -10 73 -9
39 0 67 3 60 5 -21 9 26 74 58 81 44 9 107 68 115 109 3 19 10 37 15 40 20 12
8 56 -23 85 -18 16 -51 47 -73 68 -38 37 -88 61 -124 61 -9 0 -52 -15 -96 -33z
m-136 -292 c0 -5 -9 1 -19 14 -11 13 -20 28 -20 35 0 6 9 0 20 -14 11 -14 20
-29 19 -35z m-36 -102 c-13 -2 -35 -2 -50 0 -16 2 -5 4 22 4 28 0 40 -2 28 -4z"/>
<path d="M3223 1333 c9 -2 23 -2 30 0 6 3 -1 5 -18 5 -16 0 -22 -2 -12 -5z"/>
<path d="M3935 1320 c3 -5 8 -10 11 -10 2 0 4 5 4 10 0 6 -5 10 -11 10 -5 0
-7 -4 -4 -10z"/>
<path d="M3890 1310 c0 -5 5 -10 10 -10 6 0 10 5 10 10 0 6 -4 10 -10 10 -5 0
-10 -4 -10 -10z"/>
<path d="M2455 1301 c17 -5 23 -9 15 -10 -11 -1 -9 -6 7 -20 l22 -19 -29 -6
c-17 -3 -30 -11 -30 -18 0 -14 -40 -44 -53 -40 -4 1 -10 -5 -13 -13 -3 -8 -10
-12 -15 -9 -5 3 -7 9 -5 13 3 4 -1 8 -8 8 -8 0 -12 -7 -9 -16 3 -12 1 -11 -11
3 -8 10 -13 23 -10 27 3 5 -2 6 -10 3 -12 -5 -10 -11 11 -35 14 -15 30 -26 34
-23 5 3 6 -3 2 -12 -4 -11 -2 -15 7 -12 7 2 14 14 15 26 1 12 5 25 10 29 4 5
6 1 3 -8 -4 -9 -2 -22 2 -30 5 -8 4 -19 -3 -27 -12 -15 20 -48 153 -156 36
-29 72 -61 80 -70 13 -17 16 -16 36 10 28 34 67 41 59 10 -3 -12 -2 -15 1 -8
3 6 11 12 17 12 7 0 30 12 52 26 22 15 32 24 23 21 -12 -4 -15 -2 -11 9 3 8
-1 14 -10 14 -8 0 -51 18 -96 41 -69 34 -87 49 -117 94 -25 38 -38 70 -44 115
-5 34 -10 64 -12 66 -2 2 -24 5 -48 8 -36 4 -39 4 -15 -3z m7 -123 c-9 -9 -15
-9 -24 0 -9 9 -7 12 12 12 19 0 21 -3 12 -12z m11 -81 c3 -7 -3 -13 -14 -13
-13 0 -15 3 -7 13 6 7 12 13 13 13 2 0 5 -6 8 -13z"/>
<path d="M3858 1293 c7 -3 16 -2 19 1 4 3 -2 6 -13 5 -11 0 -14 -3 -6 -6z"/>
<path d="M3805 1280 c4 -6 11 -8 16 -5 14 9 11 15 -7 15 -8 0 -12 -5 -9 -10z"/>
<path d="M3768 1263 c7 -3 16 -2 19 1 4 3 -2 6 -13 5 -11 0 -14 -3 -6 -6z"/>
<path d="M3728 1253 c7 -3 16 -2 19 1 4 3 -2 6 -13 5 -11 0 -14 -3 -6 -6z"/>
<path d="M1165 1240 c-3 -5 -1 -10 4 -10 6 0 11 5 11 10 0 6 -2 10 -4 10 -3 0
-8 -4 -11 -10z"/>
<path d="M3680 1240 c0 -5 5 -10 10 -10 6 0 10 5 10 10 0 6 -4 10 -10 10 -5 0
-10 -4 -10 -10z"/>
<path d="M3640 1230 c0 -5 5 -10 10 -10 6 0 10 5 10 10 0 6 -4 10 -10 10 -5 0
-10 -4 -10 -10z"/>
<path d="M3608 1213 c7 -3 16 -2 19 1 4 3 -2 6 -13 5 -11 0 -14 -3 -6 -6z"/>
<path d="M3558 1203 c7 -3 16 -2 19 1 4 3 -2 6 -13 5 -11 0 -14 -3 -6 -6z"/>
<path d="M3430 1169 c0 -5 5 -7 10 -4 6 3 10 8 10 11 0 2 -4 4 -10 4 -5 0 -10
-5 -10 -11z"/>
<path d="M4471 1046 c-6 -8 -11 -18 -10 -22 8 -47 -38 -77 -124 -80 -39 -1
-64 -7 -75 -17 -9 -9 -13 -19 -10 -22 3 -4 133 -2 289 4 156 6 318 11 361 11
68 0 78 2 78 18 0 9 -8 22 -18 28 -19 12 -113 11 -172 -2 -19 -5 -57 -8 -84
-9 -43 0 -52 4 -76 33 -16 20 -48 40 -81 52 -64 24 -63 24 -78 6z"/>
<path d="M3414 925 c-17 -13 -17 -14 -2 -15 9 0 20 5 23 11 11 17 0 20 -21 4z"/>
<path d="M1278 885 c-48 -27 -35 -42 43 -49 82 -8 100 0 66 32 -31 29 -75 36
-109 17z"/>
<path d="M360 886 c0 -2 8 -10 18 -17 15 -13 16 -12 3 4 -13 16 -21 21 -21 13z"/>
<path d="M435 840 c28 -12 37 -12 30 0 -3 6 -16 10 -28 9 -21 0 -21 -1 -2 -9z"/>
<path d="M338 795 c2 -14 8 -25 13 -25 5 0 9 -6 9 -13 0 -8 10 -22 22 -33 12
-10 18 -14 15 -7 -4 6 -3 14 1 17 5 3 9 -6 8 -21 0 -14 5 -28 13 -31 9 -3 11
0 6 8 -5 9 -4 11 4 6 6 -4 9 -11 7 -15 -8 -12 30 -49 72 -70 104 -52 366 -105
659 -133 122 -12 222 -23 220 -24 -1 -1 -110 -4 -242 -8 -231 -7 -345 -18
-345 -36 0 -16 354 -21 1085 -17 407 3 747 6 755 6 8 1 476 2 1039 1 1236 0
1423 4 1499 36 31 13 32 15 32 72 l0 59 -47 -9 c-29 -6 -297 -10 -678 -9 -533
1 -640 -1 -695 -14 -118 -28 -251 -37 -580 -38 -288 -2 -331 0 -376 16 -38 13
-117 21 -335 32 -156 8 -329 17 -384 21 -79 5 -113 3 -157 -10 -68 -20 -132
-20 -355 -2 -166 14 -176 16 -260 54 -83 38 -98 41 -258 57 -383 37 -612 80
-704 131 -24 13 -45 24 -46 24 -1 0 0 -11 3 -25z"/>
<path d="M565 810 c3 -5 11 -10 16 -10 6 0 7 5 4 10 -3 6 -11 10 -16 10 -6 0
-7 -4 -4 -10z"/>
<path d="M4433 813 c9 -2 25 -2 35 0 9 3 1 5 -18 5 -19 0 -27 -2 -17 -5z"/>
<path d="M4623 813 c9 -2 23 -2 30 0 6 3 -1 5 -18 5 -16 0 -22 -2 -12 -5z"/>
<path d="M4808 813 c6 -2 18 -2 25 0 6 3 1 5 -13 5 -14 0 -19 -2 -12 -5z"/>
<path d="M4978 813 c6 -2 18 -2 25 0 6 3 1 5 -13 5 -14 0 -19 -2 -12 -5z"/>
<path d="M4050 800 c-13 -8 -13 -10 2 -10 9 0 20 5 23 10 8 13 -5 13 -25 0z"/>
<path d="M4228 803 c12 -2 30 -2 40 0 9 3 -1 5 -23 4 -22 0 -30 -2 -17 -4z"/>
<path d="M708 783 c6 -2 18 -2 25 0 6 3 1 5 -13 5 -14 0 -19 -2 -12 -5z"/>
<path d="M3868 783 c7 -3 16 -2 19 1 4 3 -2 6 -13 5 -11 0 -14 -3 -6 -6z"/>
<path d="M875 770 c-3 -5 -1 -10 4 -10 6 0 11 5 11 10 0 6 -2 10 -4 10 -3 0
-8 -4 -11 -10z"/>
<path d="M1045 750 c4 -6 11 -8 16 -5 14 9 11 15 -7 15 -8 0 -12 -5 -9 -10z"/>
<path d="M3308 743 c7 -3 16 -2 19 1 4 3 -2 6 -13 5 -11 0 -14 -3 -6 -6z"/>
<path d="M1405 730 c-3 -5 1 -10 10 -10 9 0 13 5 10 10 -3 6 -8 10 -10 10 -2
0 -7 -4 -10 -10z"/>
<path d="M3118 733 c7 -3 16 -2 19 1 4 3 -2 6 -13 5 -11 0 -14 -3 -6 -6z"/>
<path d="M2928 723 c7 -3 16 -2 19 1 4 3 -2 6 -13 5 -11 0 -14 -3 -6 -6z"/>
<path d="M2160 710 c0 -5 5 -10 10 -10 6 0 10 5 10 10 0 6 -4 10 -10 10 -5 0
-10 -4 -10 -10z"/>
<path d="M2545 710 c-3 -5 -2 -10 4 -10 5 0 13 5 16 10 3 6 2 10 -4 10 -5 0
-13 -4 -16 -10z"/>
<path d="M2348 703 c6 -2 18 -2 25 0 6 3 1 5 -13 5 -14 0 -19 -2 -12 -5z"/>
</g>
</svg>
