<?xml version="1.0" standalone="no"?>
<!DOCTYPE svg PUBLIC "-//W3C//DTD SVG 20010904//EN"
 "http://www.w3.org/TR/2001/REC-SVG-20010904/DTD/svg10.dtd">
<svg version="1.0" xmlns="http://www.w3.org/2000/svg"
 width="1804.000000pt" height="763.000000pt" viewBox="0 0 1804.000000 763.000000"
 preserveAspectRatio="xMidYMid meet">

<g transform="translate(0.000000,763.000000) scale(0.100000,-0.100000)"
fill="#000000" stroke="none">
<path d="M0 3815 l0 -3815 9020 0 9020 0 0 3815 0 3815 -9020 0 -9020 0 0
-3815z m7362 3146 c108 -28 218 -87 203 -110 -4 -7 3 -11 18 -11 26 0 177
-122 177 -143 0 -7 -6 -19 -12 -26 -11 -11 -8 -12 15 -7 30 7 60 -18 118 -101
34 -49 34 -51 12 -76 -17 -18 -17 -19 7 -17 44 4 47 1 94 -77 51 -85 54 -98
29 -125 -15 -17 -14 -18 16 -18 31 0 34 -4 77 -94 24 -51 44 -99 44 -105 0 -6
-11 -17 -25 -23 -36 -16 -31 -31 9 -24 34 6 34 6 49 -41 9 -26 21 -75 27 -107
12 -57 11 -61 -10 -78 -13 -11 -30 -23 -39 -28 -26 -14 -5 -23 28 -12 17 6 33
7 36 2 3 -5 6 -47 8 -95 2 -92 1 -95 -59 -131 -27 -17 -11 -27 20 -13 14 7 29
10 32 7 3 -4 8 -58 11 -120 l6 -115 -32 -22 c-34 -24 -44 -58 -13 -46 48 20
49 19 61 -47 10 -59 10 -64 -9 -77 -30 -20 -26 -42 8 -39 24 3 31 -4 64 -67
21 -38 38 -78 38 -87 0 -10 4 -18 9 -18 21 0 214 -263 316 -430 171 -281 204
-338 216 -375 7 -22 17 -45 22 -52 5 -7 6 -16 3 -21 -3 -6 1 -32 9 -58 32
-105 16 -250 -41 -368 -23 -47 -114 -161 -114 -142 0 4 -8 -2 -18 -13 -15 -19
-32 -27 -65 -30 -5 -1 -5 -5 -2 -11 3 -6 -1 -7 -9 -4 -9 3 -16 1 -16 -6 0 -6
-4 -9 -8 -6 -5 3 -46 -11 -93 -29 -102 -42 -136 -46 -54 -6 65 31 153 109 178
156 44 86 50 213 17 347 -26 104 -69 218 -81 218 -6 0 -7 5 -4 10 3 6 -4 10
-17 11 -22 0 -22 1 -3 9 19 8 18 9 -4 9 -17 1 -22 6 -19 19 4 12 -1 18 -13 19
-15 1 -19 -6 -20 -30 l-1 -32 -8 30 c-12 45 -11 87 0 80 6 -4 8 -10 5 -15 -3
-4 5 -10 16 -13 l21 -6 -21 23 c-12 12 -18 26 -14 30 5 4 1 6 -6 4 -11 -2 -18
13 -26 57 -13 67 -53 183 -66 191 -5 3 -4 -7 1 -21 5 -14 12 -40 15 -58 3 -18
8 -44 11 -59 2 -16 0 -28 -5 -28 -5 0 -16 -3 -24 -6 -12 -4 -14 0 -10 15 4 15
1 21 -11 21 -9 0 -16 -4 -16 -10 0 -5 5 -10 11 -10 5 0 7 -5 4 -10 -4 -6 -2
-41 4 -78 17 -98 21 -286 9 -372 -15 -110 -18 -121 -28 -115 -6 4 -8 10 -6 13
9 15 19 150 18 242 -1 214 -21 317 -87 455 -54 114 -120 195 -211 261 -22 16
-39 35 -36 42 4 14 -15 17 -20 3 -1 -5 -32 6 -68 24 -36 19 -111 58 -168 86
-118 60 -183 111 -166 129 9 9 18 8 38 -5 25 -17 29 -17 71 0 50 19 53 24 26
49 -22 20 -46 12 -37 -11 3 -8 2 -12 -2 -10 -4 3 -29 1 -56 -3 -60 -9 -119 10
-109 36 4 12 0 14 -23 8 -16 -4 -40 -11 -54 -16 -16 -6 -21 -6 -15 0 6 5 33
17 62 26 28 9 54 24 57 33 6 15 8 15 19 0 7 -8 23 -14 37 -12 14 1 32 3 40 4
10 1 11 4 3 12 -6 6 -9 18 -6 25 3 8 0 14 -7 14 -6 0 -9 4 -5 9 3 5 -8 8 -24
6 -19 -3 -31 1 -35 11 -3 8 1 14 9 14 8 0 24 9 34 19 11 11 32 21 47 23 15 2
30 9 32 17 3 9 0 11 -9 6 -7 -5 -3 7 9 27 18 30 22 68 6 68 -2 0 -25 -20 -52
-45 -26 -25 -87 -69 -135 -97 -49 -29 -105 -70 -125 -93 -47 -51 -128 -117
-169 -139 -40 -20 -38 -21 -39 9 -1 13 1 24 5 23 3 0 14 0 24 1 16 1 17 3 3
16 -8 8 -13 24 -11 35 2 12 0 18 -6 15 -5 -4 -7 -11 -4 -16 4 -5 -1 -9 -10 -9
-9 0 -13 5 -10 10 3 6 -3 10 -15 10 -12 0 -18 -4 -15 -10 3 -5 0 -10 -7 -10
-7 0 -23 -8 -36 -18 -20 -15 -22 -22 -13 -45 7 -17 7 -28 1 -32 -6 -4 -10 -1
-10 4 0 17 -14 13 -40 -11 l-23 -21 7 39 c9 47 14 53 26 34 6 -8 10 -10 10 -4
0 5 -4 14 -10 20 -5 5 -19 27 -29 49 -11 22 -20 34 -21 27 0 -7 5 -22 10 -32
8 -15 7 -18 -3 -14 -7 2 -24 -7 -37 -21 -18 -19 -20 -24 -7 -19 15 5 17 -1 17
-49 0 -96 22 -115 54 -47 11 22 23 40 27 40 12 0 41 -58 31 -63 -4 -2 -25 -9
-47 -16 -67 -21 -87 -42 -87 -88 1 -29 -5 -46 -20 -60 -20 -18 -20 -18 -14 27
22 177 25 231 10 272 -24 68 -44 166 -43 211 0 33 2 38 9 22 5 -11 9 -32 9
-47 1 -31 15 -37 25 -12 9 24 7 41 -6 56 -7 7 -13 29 -13 48 0 19 -4 47 -8 63
-4 16 -3 27 2 27 11 0 26 -39 23 -57 -2 -7 5 -13 14 -13 14 0 16 7 11 36 -7
44 -8 44 -42 47 -29 2 -40 -10 -51 -58 -6 -28 -8 -26 -26 35 -10 36 -39 128
-64 205 -48 150 -73 287 -73 400 0 39 -7 121 -15 184 -30 218 -18 403 33 529
11 26 25 68 31 95 43 165 302 267 532 208z m3963 -1645 c130 -41 213 -106 231
-181 4 -16 17 -48 30 -70 37 -64 77 -245 54 -245 -6 0 -8 5 -5 10 3 6 1 10 -4
10 -6 0 -10 8 -9 18 4 45 -3 93 -12 87 -5 -3 -11 0 -12 7 0 7 -2 18 -3 23 -2
6 -3 18 -4 28 0 9 -9 17 -18 17 -11 0 -14 3 -7 8 19 12 -19 68 -44 64 -12 -2
-22 2 -22 8 0 6 5 8 10 5 17 -10 11 4 -10 25 -12 12 -25 18 -30 15 -5 -3 -16
5 -24 17 -9 12 -16 18 -16 12 0 -6 -15 -10 -34 -10 -19 1 -32 4 -29 9 5 9 0 9
-21 1 -9 -3 -12 -12 -8 -22 4 -14 3 -15 -9 -6 -8 6 -27 14 -44 18 -22 5 -26 4
-15 -4 8 -5 10 -10 4 -10 -7 0 -14 -9 -17 -20 -3 -13 0 -20 9 -20 8 0 17 -7
20 -15 4 -8 11 -12 18 -9 6 4 3 -2 -7 -12 -14 -16 -21 -17 -37 -6 -24 15 -30
15 -30 1 0 -5 5 -7 10 -4 6 3 10 1 10 -4 0 -6 -8 -11 -17 -11 -16 0 -16 -2 -3
-11 12 -9 11 -10 -7 -6 -17 4 -20 1 -16 -12 3 -9 11 -22 17 -30 9 -12 7 -13
-8 -8 -14 6 -17 4 -12 -8 3 -8 9 -22 12 -30 5 -11 2 -14 -12 -8 -11 4 -15 3
-11 -4 4 -6 1 -14 -5 -17 -7 -3 0 -3 16 -1 16 2 34 -2 43 -10 9 -9 10 -15 3
-15 -6 0 -8 -4 -5 -10 3 -5 15 -10 25 -10 12 0 22 -9 26 -24 4 -16 11 -23 20
-19 8 3 14 -1 14 -11 0 -9 -5 -16 -11 -16 -5 0 -8 -4 -5 -9 7 -11 46 -2 46 10
0 5 -5 9 -12 9 -6 0 -9 3 -6 6 7 7 48 -18 48 -29 0 -4 -4 -5 -10 -2 -5 3 -10
-1 -10 -10 0 -9 5 -13 10 -10 6 3 10 0 11 -7 0 -7 4 -4 9 7 7 16 9 17 9 3 1
-9 -2 -19 -6 -21 -13 -8 -55 12 -48 23 3 5 1 10 -4 10 -6 0 -11 -5 -11 -11 0
-6 -7 -8 -16 -5 -9 3 -12 2 -9 -5 4 -6 14 -8 24 -5 13 5 13 4 -2 -8 -16 -13
-16 -14 -1 -20 10 -4 21 -1 26 6 8 10 11 10 15 0 2 -6 9 -10 14 -6 5 3 9 1 9
-4 0 -12 -29 -24 -40 -17 -5 3 -14 -5 -20 -17 -11 -22 -10 -22 4 -4 16 20 16
20 16 0 0 -13 3 -15 8 -6 7 9 15 10 33 2 22 -10 23 -10 2 -6 -13 2 -23 0 -23
-5 0 -9 11 -12 45 -10 11 0 15 -2 8 -5 -10 -4 -10 -8 0 -19 7 -7 16 -10 22 -7
5 3 0 -7 -13 -22 -21 -28 -21 -46 0 -46 5 0 8 6 5 14 -6 14 27 48 37 39 3 -3
-2 -12 -12 -19 -16 -12 -15 -13 5 -14 12 0 24 6 26 13 3 7 6 4 6 -6 1 -10 6
-15 11 -12 15 9 12 -2 -6 -19 -14 -15 -14 -16 1 -16 9 0 13 -5 9 -11 -3 -6 -1
-14 5 -18 16 -10 3 -39 -20 -46 -11 -4 -26 -1 -34 5 -12 10 -15 10 -15 1 0 -7
-5 -9 -10 -6 -6 4 -8 11 -5 16 4 5 0 12 -8 15 -22 8 -9 44 17 45 13 0 6 5 -19
13 -22 7 -39 18 -38 24 2 6 -4 9 -12 6 -12 -5 -10 -10 8 -26 l22 -19 -25 12
c-14 7 -39 27 -57 46 -18 18 -39 33 -47 33 -16 0 -41 38 -32 48 3 3 6 0 6 -7
0 -7 5 -9 11 -5 8 5 6 10 -5 16 -12 7 -22 5 -33 -4 -15 -12 -15 -11 -4 10 11
21 -1 33 -14 12 -9 -15 -37 1 -30 17 4 12 0 14 -15 10 -12 -3 -24 1 -30 11 -5
10 -10 13 -10 9 0 -4 -8 -3 -18 2 -12 7 -24 4 -40 -10 l-23 -18 25 -7 c14 -3
23 -10 20 -15 -3 -5 -10 -7 -15 -4 -5 3 -6 -1 -3 -9 3 -9 11 -16 18 -16 6 0
12 -14 13 -30 1 -17 -2 -30 -8 -30 -6 0 -8 -10 -4 -22 5 -18 4 -19 -4 -8 -15
22 -24 5 -11 -20 10 -18 14 -20 21 -9 8 12 13 7 11 -12 -1 -3 14 -4 31 -2 18
2 26 0 20 -3 -19 -8 -16 -27 3 -20 13 5 15 1 12 -24 -3 -23 0 -34 13 -41 15
-8 18 -6 13 8 -5 15 -4 16 5 3 15 -21 14 -43 -1 -34 -10 6 -10 4 0 -7 6 -7 12
-22 12 -34 0 -16 2 -17 10 -5 7 10 10 11 10 2 0 -7 11 -17 25 -24 13 -6 22
-14 20 -18 -3 -5 2 -10 10 -14 8 -3 15 -10 15 -16 0 -6 -6 -8 -12 -5 -7 4 -4
-1 6 -9 11 -9 23 -16 28 -16 4 0 8 -4 8 -10 0 -5 -3 -9 -7 -9 -18 3 -33 -2
-33 -10 0 -5 9 -7 20 -4 22 6 28 -12 8 -21 -7 -3 -1 -3 15 0 19 4 27 2 27 -7
0 -11 3 -11 10 1 8 11 9 7 4 -15 -4 -16 -11 -34 -17 -40 -7 -7 -8 -4 -4 7 5
15 3 16 -18 6 -29 -13 -32 -23 -10 -32 21 -8 65 11 65 28 0 7 7 19 15 26 17
14 21 0 4 -17 -8 -8 -8 -17 0 -32 8 -14 8 -21 1 -21 -5 0 -10 4 -10 9 0 5 -9
7 -20 4 -11 -3 -20 -12 -20 -20 0 -8 4 -12 9 -9 12 8 8 -27 -4 -37 -6 -5 0 -7
13 -4 17 4 22 2 18 -8 -2 -7 4 -23 15 -36 22 -26 23 -31 7 -48 -11 -10 -10
-12 2 -9 8 2 14 -3 13 -9 -2 -7 3 -13 11 -13 9 0 12 -7 9 -19 -3 -13 -11 -18
-21 -14 -14 4 -15 3 -2 -5 9 -7 18 -8 26 -1 9 7 12 5 9 -8 -1 -10 -8 -17 -15
-15 -7 2 -9 -5 -5 -17 5 -16 0 -22 -22 -27 -15 -4 -31 -11 -34 -17 -8 -11 -49
9 -49 23 0 6 -9 10 -20 10 -11 0 -23 7 -26 15 -4 8 -12 15 -19 15 -16 0 -47
35 -38 44 4 4 0 4 -9 1 -10 -4 -24 1 -36 12 -10 10 -23 19 -29 20 -10 2 -74
42 -135 84 -15 11 -30 19 -34 19 -4 0 -16 7 -26 17 -21 19 -191 34 -173 15 12
-13 66 -19 82 -9 23 14 44 -4 43 -37 -1 -17 -2 -36 -1 -41 1 -6 26 -21 56 -34
30 -13 52 -28 49 -33 -4 -6 3 -7 17 -3 23 7 24 7 4 -9 -30 -23 -48 -20 -40 6
6 16 4 20 -8 15 -9 -3 -17 -1 -19 5 -3 7 -12 9 -24 4 -19 -8 -19 -8 1 -17 l20
-9 -20 4 c-11 2 -24 5 -30 7 -18 5 -125 -13 -131 -22 -3 -5 11 -9 30 -9 19 0
38 5 41 10 3 6 13 10 21 10 12 0 13 -8 8 -36 l-7 -37 39 8 c22 5 57 9 79 9 36
1 40 3 37 25 -1 15 2 22 10 18 7 -2 22 -1 32 3 16 5 7 13 -45 43 -60 35 -62
37 -29 34 38 -4 90 -28 130 -59 56 -44 100 -90 94 -99 -3 -5 0 -8 7 -7 7 2 15
-5 17 -14 2 -13 -1 -16 -13 -12 -14 6 -16 1 -10 -37 5 -38 2 -49 -20 -79 -15
-19 -31 -45 -36 -58 -5 -13 -22 -31 -39 -40 -39 -22 -38 -46 5 -89 19 -19 28
-33 20 -29 -8 3 -15 2 -15 -3 0 -13 43 -21 55 -11 12 10 25 4 25 -12 0 -13
-36 -9 -80 8 -38 16 -42 15 -61 -2 -20 -18 -21 -18 -36 1 -8 11 -19 32 -25 47
-11 30 -25 32 -49 6 -21 -23 -29 -23 -116 8 -63 22 -83 25 -138 19 -66 -7 -83
-18 -43 -28 13 -4 33 0 45 9 18 11 23 11 23 2 -1 -52 -209 -186 -313 -203 -21
-3 -35 -10 -32 -15 3 -5 13 -6 23 -3 15 6 15 4 4 -10 -8 -8 -19 -14 -26 -11
-7 3 -19 -3 -27 -13 -13 -17 -13 -17 6 -3 19 14 19 14 6 -3 -8 -9 -16 -15 -19
-13 -9 10 -43 -15 -36 -26 4 -6 3 -8 -3 -5 -17 11 -136 -124 -182 -204 -23
-41 -50 -85 -61 -99 -28 -36 -69 -206 -71 -295 -1 -47 -6 -75 -13 -75 -7 0 -7
-3 -1 -8 16 -11 18 -35 2 -29 -7 3 -22 -8 -33 -24 -10 -16 -22 -29 -26 -29 -5
0 -8 -5 -8 -11 0 -5 6 -7 13 -3 9 5 9 4 0 -6 -7 -8 -15 -11 -19 -7 -8 8 -11
177 -3 177 3 0 11 39 17 88 6 48 24 122 41 167 25 65 27 76 11 56 -11 -13 -32
-62 -46 -110 -14 -47 -31 -102 -39 -121 -7 -19 -19 -56 -26 -83 -8 -29 -18
-46 -25 -43 -7 3 -15 -2 -18 -10 -3 -9 -1 -12 4 -9 6 3 10 2 10 -3 0 -6 -6
-12 -14 -15 -29 -11 -83 -228 -90 -365 -3 -40 -1 -100 4 -132 24 -166 153
-305 321 -344 34 -8 64 -18 68 -22 9 -9 -129 5 -214 22 -144 29 -294 133 -349
243 -49 95 -59 155 -53 294 3 71 10 134 15 140 5 7 12 28 16 47 7 41 162 360
230 474 54 91 192 277 259 349 25 26 52 67 61 90 37 92 50 112 81 117 30 6 30
6 8 18 -19 10 -23 21 -22 55 2 75 11 92 47 89 43 -3 42 20 -1 47 l-33 20 4
123 c2 68 6 124 7 126 2 2 20 -1 40 -7 31 -8 35 -8 24 5 -6 8 -16 14 -22 14
-6 0 -19 7 -29 17 -14 13 -18 31 -18 87 0 39 3 82 7 95 5 21 10 22 45 17 45
-7 44 5 -3 24 l-32 13 6 61 c4 34 13 85 22 114 l16 54 37 -6 37 -6 -27 15
c-36 20 -35 39 3 128 38 89 52 105 87 100 l27 -5 -24 20 -25 20 38 77 c47 95
65 114 102 109 28 -4 28 -4 7 7 -28 15 -29 25 -2 69 45 73 80 110 106 110 22
0 24 2 13 16 -12 13 -4 24 55 79 38 35 80 70 94 77 14 7 35 23 47 35 91 91
299 117 479 59z m-27 -180 c-7 -8 -15 -12 -17 -11 -5 6 10 25 20 25 5 0 4 -6
-3 -14z m-23 -105 c-3 -6 -11 -11 -16 -11 -5 0 -4 6 3 14 14 16 24 13 13 -3z
m-25 -26 c7 -8 9 -15 6 -15 -4 0 -14 7 -22 15 -9 8 -11 15 -6 15 5 0 15 -7 22
-15z m17 -81 c12 -26 12 -26 -7 -9 -20 18 -26 35 -12 35 4 0 12 -12 19 -26z
m-3770 -10 c9 -9 22 -12 32 -8 49 20 91 6 183 -63 35 -27 86 -59 113 -72 160
-76 204 -104 185 -116 -5 -3 -15 -3 -20 0 -6 4 -17 2 -24 -4 -11 -9 -18 -8
-30 4 -9 9 -20 14 -25 10 -5 -3 -13 -1 -16 5 -7 11 -23 10 -180 -21 -55 -10
-110 -21 -123 -24 -12 -2 -28 -7 -35 -12 -6 -4 -16 -8 -22 -8 -26 -2 -124 -20
-175 -32 -14 -3 -33 -6 -42 -7 -10 0 -18 -3 -18 -7 0 -4 -12 -10 -27 -14 -37
-9 -78 -40 -141 -103 -60 -62 -68 -84 -53 -138 13 -48 14 -57 2 -49 -16 9 -25
134 -12 174 6 20 15 90 21 154 7 81 16 126 28 145 27 43 85 92 115 99 15 3 27
9 27 14 0 12 53 7 62 -6 4 -5 8 0 8 13 0 15 6 22 19 22 11 0 21 6 24 13 3 9 7
9 19 0 12 -11 18 -9 33 7 10 11 24 20 32 20 7 0 13 5 13 10 0 14 9 12 27 -6z
m4150 -136 c-3 -8 -6 -5 -6 6 -1 11 2 17 5 13 3 -3 4 -12 1 -19z m9 -88 c-4
-72 -14 -72 -13 -1 0 33 4 58 8 56 4 -3 6 -28 5 -55z m-239 8 c-3 -8 -6 -5 -6
6 -1 11 2 17 5 13 3 -3 4 -12 1 -19z m-4373 -47 c3 -5 0 -35 -6 -67 l-12 -59
-7 45 c-12 71 -10 90 5 90 8 0 17 -4 20 -9z m4290 -70 c3 -5 -1 -11 -9 -14 -9
-4 -12 -1 -8 9 6 16 10 17 17 5z m-3497 -10 c20 -2 122 -101 184 -179 32 -40
74 -106 94 -148 32 -67 76 -225 91 -322 3 -20 7 -45 10 -54 3 -10 2 -18 -3
-17 -10 1 -93 106 -93 118 0 5 -8 7 -18 4 -20 -5 -72 41 -72 64 0 22 -189 203
-235 225 -22 10 -56 28 -77 38 -49 26 -164 44 -197 31 -14 -5 -60 -17 -101
-25 -78 -15 -153 -48 -205 -90 l-30 -25 -3 50 c-4 59 4 90 21 83 12 -4 77 50
77 64 0 4 21 20 48 36 26 16 56 37 67 47 18 15 114 46 170 55 124 18 129 17
186 -15 30 -17 81 -55 114 -86 32 -30 62 -55 65 -55 15 2 -130 124 -190 160
-39 23 -70 43 -70 45 0 2 119 -1 167 -4z m3328 -11 c8 -13 -5 -13 -25 0 -13 8
-13 10 2 10 9 0 20 -4 23 -10z m72 -66 c-3 -3 -12 -4 -19 -1 -8 3 -5 6 6 6 11
1 17 -2 13 -5z m318 -34 c-3 -5 -1 -10 6 -10 8 0 8 -4 -1 -15 -15 -18 1 -20
19 -2 11 10 11 8 2 -10 -12 -23 -5 -57 10 -48 4 3 6 12 2 20 -3 8 0 15 7 15 8
0 10 -8 5 -22 -3 -13 -7 -28 -7 -35 -1 -7 -6 -9 -11 -6 -5 3 -8 0 -6 -6 3 -7
8 -12 13 -11 11 2 26 -20 26 -37 0 -7 -4 -13 -10 -13 -5 0 -10 5 -10 11 0 7
-7 17 -15 23 -9 6 -17 21 -18 34 0 12 -5 22 -9 22 -4 0 -5 7 -2 15 3 8 -1 21
-9 29 -17 18 -28 11 -20 -12 4 -13 3 -14 -5 -3 -5 7 -7 23 -5 35 3 12 1 17 -4
11 -9 -12 -53 -15 -53 -4 0 10 60 17 66 7 6 -10 24 -11 23 0 -2 12 1 22 7 22
3 0 2 -4 -1 -10z m-108 -43 c0 -8 -6 -14 -14 -14 -9 0 -10 4 -2 14 6 7 12 13
14 13 1 0 2 -6 2 -13z m-162 -27 c0 -8 -8 -16 -17 -18 -10 -2 -18 2 -18 8 0 7
7 10 15 6 8 -3 15 -1 15 4 0 5 -10 11 -22 13 -20 5 -20 5 2 4 15 -1 25 -8 25
-17z m58 -80 c-3 -12 -8 -19 -11 -16 -5 6 5 36 12 36 2 0 2 -9 -1 -20z m31
-32 c-3 -4 -9 -8 -15 -8 -5 0 -9 4 -9 8 0 5 7 9 15 9 8 0 12 -4 9 -9z m-2890
-27 c3 -5 -1 -11 -9 -15 -9 -3 -15 0 -15 9 0 16 16 20 24 6z m3136 -36 c0 -15
-6 -25 -14 -25 -11 0 -12 5 -3 25 15 31 17 31 17 0z m-3124 -9 c-1 -16 -6 -22
-16 -19 -8 3 -4 -5 10 -18 15 -14 18 -20 8 -16 -9 3 -19 3 -21 -1 -2 -4 -2 -1
-1 6 2 6 -1 12 -7 12 -18 0 8 58 27 60 1 0 1 -11 0 -24z m3121 -58 c-3 -8 -6
-5 -6 6 -1 11 2 17 5 13 3 -3 4 -12 1 -19z m-3122 -47 c-3 -22 -25 -26 -25 -3
0 10 6 19 14 19 7 0 13 -7 11 -16z m69 -66 c3 -8 1 -15 -4 -15 -6 0 -10 7 -10
15 0 8 2 15 4 15 2 0 6 -7 10 -15z m-59 -5 c3 -5 2 -10 -4 -10 -5 0 -13 5 -16
10 -3 6 -2 10 4 10 5 0 13 -4 16 -10z m2998 -175 c4 -8 1 -17 -6 -21 -7 -4 -9
-4 -5 1 4 4 3 14 -3 22 -7 8 -8 13 -1 13 5 0 12 -7 15 -15z m-168 -52 c-15
-60 -15 -127 1 -152 16 -24 17 -24 33 -4 19 24 135 103 150 103 24 0 8 -21
-39 -52 -27 -18 -50 -37 -50 -43 0 -6 -11 -27 -25 -47 -14 -20 -25 -48 -25
-61 0 -30 -35 -68 -56 -60 -11 4 -12 9 -5 16 30 30 0 36 -36 7 -39 -31 -39
-17 1 36 41 53 44 69 17 98 -11 12 -20 28 -22 36 -5 25 12 104 27 128 20 31
38 28 29 -5z m172 -5 c-3 -8 -6 -5 -6 6 -1 11 2 17 5 13 3 -3 4 -12 1 -19z
m-105 -49 c-5 -34 -18 -44 -35 -28 -13 12 -12 17 1 37 18 28 38 23 34 -9z
m-2985 -81 c-3 -8 -6 -5 -6 6 -1 11 2 17 5 13 3 -3 4 -12 1 -19z m3099 -48
c-57 -17 -87 -66 -46 -77 10 -3 26 -16 35 -30 16 -24 17 -24 36 -7 19 17 20
17 11 -7 -6 -16 -18 -24 -33 -25 -33 -2 -79 -21 -79 -34 0 -5 -13 -7 -32 -3
-36 6 -62 23 -37 23 31 0 62 39 66 83 5 53 36 87 77 86 l31 -1 -29 -8z m-3106
-20 c0 -5 -5 -10 -11 -10 -5 0 -7 5 -4 10 3 6 8 10 11 10 2 0 4 -4 4 -10z
m2573 -134 c10 -1 23 -8 29 -14 7 -7 18 -12 25 -12 26 0 95 -33 83 -40 -8 -5
12 -23 54 -51 41 -27 66 -50 66 -61 0 -10 -5 -18 -11 -18 -5 0 -7 -5 -4 -10
10 -17 37 11 32 32 -3 10 0 18 8 18 7 0 15 -11 17 -25 3 -14 1 -25 -4 -25 -5
0 -6 -5 -2 -11 4 -8 9 -7 15 2 20 30 49 -47 40 -103 0 -5 6 -8 15 -8 14 0 15
-2 3 -17 -8 -9 -9 -14 -3 -10 7 4 13 -11 17 -46 3 -28 12 -65 21 -82 17 -32
13 -48 -7 -22 -13 17 -127 97 -139 97 -4 0 -31 11 -60 25 -54 25 -97 41 -203
76 -33 11 -67 24 -76 29 -69 36 -317 54 -350 24 -11 -10 -23 -11 -47 -5 -20 6
-32 6 -32 0 0 -5 -7 -9 -15 -9 -8 0 -15 -5 -15 -11 0 -6 -6 -9 -13 -6 -7 3
-23 -6 -36 -19 -13 -13 -28 -24 -34 -24 -6 0 -26 -16 -44 -36 -18 -21 -35 -35
-38 -32 -9 9 132 147 185 181 30 19 96 54 145 77 50 24 119 63 154 87 37 25
76 44 95 45 49 2 54 3 62 10 4 4 17 5 29 2 11 -3 29 -6 38 -8z m512 -36 c-3
-5 -13 -10 -21 -10 -8 0 -12 5 -9 10 3 6 13 10 21 10 8 0 12 -4 9 -10z m-240
-100 c3 -5 1 -10 -4 -10 -6 0 -11 5 -11 10 0 6 2 10 4 10 3 0 8 -4 11 -10z
m-433 -171 c42 -9 49 -13 33 -20 -19 -7 -18 -8 3 -8 25 -1 103 -31 169 -64 51
-27 193 -153 193 -172 0 -12 -8 -11 -42 4 -78 33 -151 45 -275 46 -85 0 -126
-4 -134 -12 -7 -7 -23 -13 -34 -13 -14 0 -26 -10 -34 -26 -9 -20 -17 -25 -33
-21 -15 4 -33 -4 -61 -29 -22 -18 -48 -34 -57 -34 -9 0 -49 -30 -88 -67 -79
-75 -132 -162 -132 -218 0 -19 -6 -37 -14 -42 -20 -11 -66 -156 -73 -230 -3
-35 -9 -63 -13 -63 -12 0 -20 122 -14 210 15 216 97 411 256 607 117 143 207
183 350 152z m638 -66 c0 -44 -5 -41 -14 10 -5 27 -4 37 3 32 6 -3 11 -22 11
-42z m-1316 -478 c3 -8 1 -15 -4 -15 -6 0 -10 7 -10 15 0 8 2 15 4 15 2 0 6
-7 10 -15z m-7 -81 c-3 -3 -12 -4 -19 -1 -8 3 -5 6 6 6 11 1 17 -2 13 -5z
m-107 -46 c0 -4 -5 -8 -11 -8 -5 0 -7 -4 -4 -10 3 -5 0 -7 -9 -4 -8 3 -13 11
-10 18 5 14 34 18 34 4z m110 -18 c0 -5 -5 -10 -11 -10 -5 0 -7 5 -4 10 3 6 8
10 11 10 2 0 4 -4 4 -10z m0 -60 c0 -5 -4 -10 -10 -10 -5 0 -10 5 -10 10 0 6
5 10 10 10 6 0 10 -4 10 -10z m-110 -24 c0 -3 -4 -8 -10 -11 -5 -3 -10 -1 -10
4 0 6 5 11 10 11 6 0 10 -2 10 -4z m113 -46 c-3 -11 -9 -17 -14 -15 -10 7 -1
35 11 35 5 0 6 -9 3 -20z m7847 -1829 c0 -5 -9 -13 -20 -16 -15 -5 -19 -12
-15 -26 7 -21 -5 -25 -23 -7 -14 14 -16 29 -3 26 5 -2 9 2 9 7 1 6 11 13 24
17 13 3 24 6 26 7 1 1 2 -3 2 -8z m-62 -53 c11 -14 5 -68 -8 -68 -9 0 -25 -39
-22 -52 1 -3 -5 -11 -13 -18 -11 -9 -21 -6 -50 17 -37 30 -39 32 -27 48 14 19
92 85 101 85 5 0 13 -6 19 -12z"/>
<path d="M7057 6764 c-24 -13 -26 -17 -13 -29 19 -19 26 -19 26 1 0 8 5 12 10
9 6 -4 8 -11 5 -16 -4 -5 4 -9 17 -8 13 0 17 3 11 6 -19 7 -16 23 5 23 15 1
15 2 -2 15 -24 18 -24 18 -59 -1z"/>
<path d="M7026 6694 c-3 -9 -4 -20 0 -25 3 -5 -3 -9 -13 -10 -16 0 -16 -1 2
-9 30 -13 34 -12 32 9 0 11 -5 17 -9 15 -4 -3 -8 -1 -8 4 0 10 23 22 41 22 6
0 7 -5 3 -11 -4 -8 0 -8 15 0 30 17 26 21 -18 21 -26 0 -41 -5 -45 -16z"/>
<path d="M6977 6693 c-10 -9 -9 -23 1 -23 5 0 9 7 9 15 0 17 -1 18 -10 8z"/>
<path d="M7350 6685 c-7 -8 -9 -15 -4 -15 11 -1 -37 -29 -49 -30 -5 0 -5 5 -2
10 4 6 -3 6 -18 -1 -22 -10 -30 -40 -14 -56 12 -11 38 -12 65 -2 21 8 23 12
12 19 -12 8 -12 10 3 10 22 0 42 18 51 48 6 18 4 21 -9 16 -9 -4 -14 -12 -12
-18 3 -7 -9 -18 -27 -24 -30 -11 -30 -11 -10 6 12 9 24 25 27 35 8 21 3 22
-13 2z"/>
<path d="M7426 6668 c7 -10 75 -31 81 -24 4 3 -1 6 -10 6 -9 0 -17 6 -17 14 0
8 -11 13 -29 12 -16 -1 -27 -4 -25 -8z"/>
<path d="M7420 6640 c-13 -8 -12 -10 3 -10 9 0 17 5 17 10 0 12 -1 12 -20 0z"/>
<path d="M7395 6611 c-3 -5 0 -13 6 -17 7 -4 9 -3 5 4 -3 5 0 13 6 15 9 4 10
6 1 6 -6 1 -14 -3 -18 -8z"/>
<path d="M7240 6570 c8 -5 20 -10 25 -10 6 0 3 5 -5 10 -8 5 -19 10 -25 10 -5
0 -3 -5 5 -10z"/>
<path d="M7310 6569 c0 -5 5 -7 10 -4 6 3 10 8 10 11 0 2 -4 4 -10 4 -5 0 -10
-5 -10 -11z"/>
<path d="M7721 6424 c0 -11 3 -14 6 -6 3 7 2 16 -1 19 -3 4 -6 -2 -5 -13z"/>
<path d="M7629 6345 c-5 -17 -1 -21 17 -21 12 0 20 4 18 8 -3 5 -9 6 -14 3 -5
-3 -10 3 -12 12 -3 16 -5 15 -9 -2z"/>
<path d="M7680 6349 c0 -5 5 -7 10 -4 6 3 10 8 10 11 0 2 -4 4 -10 4 -5 0 -10
-5 -10 -11z"/>
<path d="M7713 6326 c1 -23 6 -32 15 -28 7 2 11 10 8 18 -3 7 -2 15 2 17 4 2
2 2 -5 1 -7 -2 -10 3 -6 12 3 7 0 14 -5 14 -6 0 -10 -15 -9 -34z"/>
<path d="M7760 6300 c0 -8 5 -22 10 -30 9 -13 10 -13 10 0 0 8 -5 22 -10 30
-9 13 -10 13 -10 0z"/>
<path d="M7790 6291 c10 -21 30 -37 30 -26 0 14 -21 45 -31 45 -6 0 -6 -7 1
-19z"/>
<path d="M7833 6253 c-4 -10 -11 -21 -17 -25 -6 -4 -7 -11 -2 -15 4 -4 14 1
22 11 13 18 14 19 14 2 0 -13 5 -17 20 -13 13 3 20 0 20 -9 0 -8 -7 -11 -17
-8 -10 3 -7 -1 6 -9 18 -11 21 -16 10 -20 -9 -4 -7 -6 5 -4 26 3 28 29 5 63
-14 21 -19 24 -19 12 0 -10 -4 -18 -10 -18 -5 0 -10 11 -10 25 0 29 -17 34
-27 8z"/>
<path d="M7931 6113 c-1 -13 -1 -26 -1 -30 0 -5 4 -8 10 -8 5 0 16 -9 24 -20
9 -11 16 -14 16 -7 0 6 -9 21 -20 32 -11 11 -20 22 -19 25 0 3 -2 11 -4 18 -3
6 -6 2 -6 -10z"/>
<path d="M7885 6019 c-4 -6 -19 -9 -36 -5 -29 6 -59 -1 -59 -13 0 -3 36 -6 79
-7 63 -1 78 2 74 12 -3 8 -9 11 -14 8 -6 -3 -16 -1 -24 6 -10 8 -15 8 -20 -1z"/>
<path d="M7965 5990 c-11 -18 5 -49 25 -47 26 2 26 27 0 34 -11 3 -17 9 -14
14 3 5 3 9 0 9 -3 0 -8 -5 -11 -10z"/>
<path d="M7983 5928 c-14 -24 -14 -56 2 -62 8 -3 15 -1 15 4 0 6 5 10 11 10 5
0 7 -4 4 -10 -3 -5 1 -10 9 -10 21 0 9 28 -15 35 -14 5 -18 12 -14 26 7 21 0
25 -12 7z"/>
<path d="M7923 5912 c-8 -13 -7 -21 5 -31 12 -12 13 -11 7 8 -7 22 10 30 18 9
4 -8 6 -9 6 -2 1 6 -5 16 -12 22 -9 8 -16 6 -24 -6z"/>
<path d="M7855 5900 c-30 -8 -30 -8 8 -9 23 -1 36 3 32 9 -3 6 -7 9 -8 9 -1
-1 -15 -5 -32 -9z"/>
<path d="M7783 5868 c8 -5 6 -8 -6 -8 -10 0 -15 -4 -12 -10 4 -7 -2 -7 -18 -1
-42 16 -90 -10 -72 -39 6 -10 -29 -32 -39 -25 -3 3 -4 2 -1 -2 3 -3 -3 -12
-12 -18 -14 -10 -6 -11 40 -3 62 11 166 -8 217 -38 l25 -15 -30 6 c-16 3 -48
10 -70 15 -89 20 -181 7 -193 -29 -4 -11 2 -12 24 -7 16 4 48 9 70 12 l41 6
24 -50 c15 -32 30 -51 42 -52 9 0 17 5 17 11 0 12 29 38 43 39 4 0 7 -7 7 -16
0 -8 4 -13 10 -9 5 3 6 13 3 22 -5 13 3 11 37 -8 56 -32 108 -85 131 -134 17
-37 17 -40 1 -47 -15 -6 -15 -7 1 -7 17 -1 17 -2 1 -30 -15 -26 -16 -32 -3
-47 8 -10 9 -15 2 -11 -6 4 -15 1 -20 -6 -4 -8 -19 -20 -31 -26 -13 -7 -21
-15 -18 -18 3 -4 1 -12 -5 -19 -7 -8 -8 -25 -4 -41 l7 -28 17 23 c10 13 29 24
46 25 26 2 32 -3 48 -36 9 -22 17 -46 17 -55 0 -8 2 -13 6 -10 4 5 -4 71 -37
303 -5 33 -11 96 -14 140 -3 44 -10 105 -16 135 -10 50 -14 56 -37 58 -15 1
-28 6 -30 12 -2 5 -10 6 -18 3 -8 -3 -14 0 -14 6 0 6 -7 8 -15 5 -8 -4 -15 -1
-15 5 0 6 -10 11 -23 11 -13 0 -27 3 -31 8 -4 4 -30 7 -56 7 -27 0 -44 -3 -37
-7z m-73 -42 c0 -3 -4 -8 -10 -11 -5 -3 -10 -1 -10 4 0 6 5 11 10 11 6 0 10
-2 10 -4z m126 -138 c5 -8 2 -9 -10 -5 -14 5 -17 3 -12 -8 7 -19 -18 -20 -33
-1 -10 12 -8 15 11 19 13 2 26 5 30 6 4 0 10 -4 14 -11z"/>
<path d="M7235 5724 c-21 -20 -26 -31 -22 -53 3 -15 2 -32 -3 -37 -4 -5 -11
-29 -15 -53 -6 -39 -5 -43 9 -38 10 4 15 3 11 -3 -7 -12 5 -13 21 -2 6 4 21
41 34 82 12 41 26 79 31 85 5 5 9 17 9 27 0 27 -42 23 -75 -8z"/>
<path d="M7341 5654 c-7 -20 -24 -53 -38 -73 -21 -30 -22 -37 -9 -39 23 -5 20
-33 -4 -39 -11 -3 -20 -10 -20 -15 0 -5 -12 -20 -27 -33 -22 -19 -24 -24 -11
-25 9 0 21 6 25 14 4 8 17 16 28 18 27 4 32 -33 8 -58 -10 -9 -18 -20 -18 -23
-1 -3 -11 -22 -23 -41 -24 -39 -30 -68 -9 -53 10 8 22 9 42 4 3 0 -3 -18 -13
-38 -11 -21 -22 -54 -25 -73 -4 -19 -11 -55 -16 -80 -10 -47 -2 -68 21 -54 15
10 17 36 3 46 -6 5 -5 8 2 8 7 0 10 6 7 14 -3 7 2 16 12 20 13 5 14 9 4 21
-10 12 -10 15 0 15 7 0 10 6 7 14 -4 11 10 20 51 35 33 11 48 20 35 20 -27 1
-29 17 -6 43 15 16 15 18 1 13 -9 -4 -19 -2 -23 4 -3 6 -1 11 5 11 6 0 14 8
17 17 14 37 43 53 98 56 40 1 55 6 58 18 5 20 -24 39 -60 40 -16 0 -37 4 -48
9 -17 7 -14 10 25 28 25 10 53 22 63 25 13 5 17 18 17 55 l0 50 -67 -25 c-37
-13 -73 -29 -80 -34 -11 -10 -12 23 -1 110 5 38 -17 35 -31 -5z m119 -133 c0
-5 -12 -11 -27 -14 -26 -5 -26 -4 -8 9 22 16 35 18 35 5z"/>
<path d="M7612 5662 c21 -10 38 -23 38 -30 0 -8 9 -12 22 -10 39 6 29 25 -23
41 -65 21 -86 20 -37 -1z"/>
<path d="M7564 5622 c-13 -8 -25 -112 -14 -112 4 0 10 18 14 40 4 26 13 43 24
46 48 16 48 16 27 24 -26 11 -37 11 -51 2z"/>
<path d="M7851 5621 c-9 -6 -5 -11 16 -19 15 -5 36 -13 46 -17 18 -7 22 2 9
21 -10 15 -55 25 -71 15z"/>
<path d="M7396 5601 c-3 -5 0 -11 8 -14 8 -3 17 1 20 9 6 15 -19 20 -28 5z"/>
<path d="M7790 5575 c0 -9 5 -15 11 -13 6 2 11 8 11 13 0 5 -5 11 -11 13 -6 2
-11 -4 -11 -13z"/>
<path d="M7800 5540 c0 -5 5 -10 10 -10 6 0 10 5 10 10 0 6 -4 10 -10 10 -5 0
-10 -4 -10 -10z"/>
<path d="M7797 5490 c3 -11 9 -20 14 -20 5 0 9 9 9 20 0 11 -6 20 -14 20 -9 0
-12 -7 -9 -20z"/>
<path d="M7670 5435 c0 -20 28 -31 43 -16 13 13 10 16 -20 25 -17 6 -23 3 -23
-9z"/>
<path d="M7546 5411 c12 -11 94 -21 94 -11 0 8 -49 20 -83 20 -13 0 -17 -4
-11 -9z"/>
<path d="M7071 5384 c0 -11 3 -14 6 -6 3 7 2 16 -1 19 -3 4 -6 -2 -5 -13z"/>
<path d="M7153 5349 c-33 -52 -44 -61 -58 -49 -21 18 -35 -13 -34 -74 0 -52
16 -127 18 -87 2 26 70 161 85 167 19 7 39 65 27 77 -6 6 -20 -8 -38 -34z"/>
<path d="M7452 5351 c-55 -19 -69 -27 -60 -36 8 -9 138 29 135 39 -5 16 -20
15 -75 -3z"/>
<path d="M7677 5354 c-24 -13 -27 -20 -22 -44 6 -28 3 -30 -67 -63 -40 -19
-87 -50 -105 -69 -31 -32 -70 -118 -54 -118 15 0 53 49 47 59 -4 6 -2 19 4 28
10 16 10 15 5 -4 -5 -19 4 -16 81 28 103 59 133 81 134 94 0 6 12 21 25 34 28
26 33 56 9 65 -21 8 -25 8 -57 -10z"/>
<path d="M7177 5302 c-10 -10 -17 -21 -17 -25 0 -4 -11 -31 -25 -61 -26 -57
-29 -71 -27 -120 3 -44 20 -20 32 42 5 30 21 81 35 115 13 33 23 62 21 64 -1
2 -10 -5 -19 -15z"/>
<path d="M7420 5241 c-24 -7 -23 -8 10 -13 38 -6 60 -1 60 13 0 10 -34 10 -70
0z"/>
<path d="M7853 5196 c4 -10 7 -22 7 -27 0 -5 4 -9 9 -9 14 0 7 43 -8 48 -10 3
-12 0 -8 -12z"/>
<path d="M7809 5143 c-13 -16 -12 -17 4 -4 9 7 17 15 17 17 0 8 -8 3 -21 -13z"/>
<path d="M7742 5098 c-7 -9 -5 -17 6 -28 14 -13 15 -12 10 2 -4 8 -1 21 5 27
8 8 8 11 0 11 -6 0 -15 -6 -21 -12z"/>
<path d="M7797 5094 c6 -15 23 -19 23 -5 0 5 -7 11 -14 14 -10 4 -13 1 -9 -9z"/>
<path d="M7874 5064 c3 -9 6 -20 6 -25 0 -5 4 -9 9 -9 4 0 6 11 3 25 -2 14 -9
25 -14 25 -6 0 -7 -7 -4 -16z"/>
<path d="M7824 5058 c3 -21 16 -38 29 -37 9 0 8 2 -1 6 -6 2 -10 8 -7 13 3 4
-2 13 -9 19 -11 9 -14 9 -12 -1z"/>
<path d="M7305 5031 c-6 -11 13 -26 22 -17 4 3 0 6 -8 7 -8 1 -3 5 11 9 23 7
23 8 3 9 -12 1 -24 -3 -28 -8z"/>
<path d="M7880 5011 c0 -17 12 -41 20 -41 10 0 1 38 -11 46 -5 3 -9 1 -9 -5z"/>
<path d="M7907 4874 c-15 -15 -6 -35 21 -47 15 -6 30 -15 33 -20 4 -5 18 -10
33 -10 20 -2 26 -7 26 -24 0 -13 5 -23 11 -23 17 0 6 42 -19 67 -13 13 -20 28
-17 33 8 13 -28 0 -36 -13 -9 -13 -29 0 -38 24 -4 11 -10 17 -14 13z"/>
<path d="M8300 4706 c0 -11 30 -66 36 -66 2 0 -3 15 -12 33 -19 36 -24 44 -24
33z"/>
<path d="M8330 4623 c0 -5 12 -16 26 -27 l26 -19 -17 27 c-16 25 -35 35 -35
19z"/>
<path d="M8490 4601 c0 -5 7 -15 17 -22 15 -13 15 -12 4 9 -12 23 -21 28 -21
13z"/>
<path d="M8388 4554 c6 -11 18 -28 27 -39 15 -19 15 -18 1 12 -9 17 -21 35
-27 39 -8 4 -8 1 -1 -12z"/>
<path d="M11210 4886 c0 -24 17 -28 23 -6 3 13 0 20 -9 20 -8 0 -14 -6 -14
-14z"/>
<path d="M11267 4844 c-12 -12 -8 -26 6 -18 8 5 8 2 -2 -9 -12 -15 -11 -17 4
-17 11 0 15 -5 11 -15 -3 -8 -1 -15 4 -15 13 0 12 18 -3 53 -7 16 -15 25 -20
21z"/>
<path d="M11285 4730 c-16 -7 -17 -9 -3 -9 9 -1 20 4 23 9 7 11 7 11 -20 0z"/>
<path d="M11299 4705 c0 -6 -2 -18 -4 -27 -2 -10 0 -18 5 -18 13 0 21 33 10
44 -6 6 -10 6 -11 1z"/>
<path d="M11376 4634 c-5 -12 -2 -15 10 -10 8 3 25 1 37 -5 19 -9 18 -7 -3 10
-30 25 -36 26 -44 5z"/>
<path d="M11050 4619 c0 -6 -4 -8 -8 -5 -4 2 -8 -4 -8 -15 0 -23 14 -25 22 -4
4 8 10 12 15 9 5 -3 9 -1 9 4 0 6 -7 12 -15 16 -8 3 -15 1 -15 -5z"/>
<path d="M11450 4519 c0 -5 5 -7 10 -4 6 3 10 8 10 11 0 2 -4 4 -10 4 -5 0
-10 -5 -10 -11z"/>
<path d="M11485 4500 c-3 -5 -2 -10 4 -10 5 0 13 5 16 10 3 6 2 10 -4 10 -5 0
-13 -4 -16 -10z"/>
<path d="M11055 4350 c3 -5 11 -10 16 -10 6 0 7 5 4 10 -3 6 -11 10 -16 10 -6
0 -7 -4 -4 -10z"/>
<path d="M11261 4324 c0 -11 3 -14 6 -6 3 7 2 16 -1 19 -3 4 -6 -2 -5 -13z"/>
<path d="M10610 4233 c0 -12 -8 -24 -17 -26 -13 -3 -14 -5 -3 -6 29 -2 43 15
31 35 -10 18 -10 18 -11 -3z"/>
<path d="M10680 4208 c-14 -5 -69 -31 -122 -56 -81 -39 -98 -52 -103 -74 -4
-18 -13 -28 -24 -28 -13 0 -22 -13 -30 -42 -31 -117 -42 -206 -17 -138 20 54
66 141 93 176 32 43 99 88 118 80 10 -4 19 2 25 18 9 26 65 52 76 35 4 -6 11
-6 20 2 9 8 34 10 69 6 58 -6 74 6 29 23 -32 13 -101 12 -134 -2z"/>
<path d="M10755 4139 c-10 -15 1 -23 20 -15 9 3 13 10 10 16 -8 13 -22 13 -30
-1z"/>
<path d="M10565 4070 c-3 -5 -2 -10 4 -10 5 0 13 5 16 10 3 6 2 10 -4 10 -5 0
-13 -4 -16 -10z"/>
<path d="M11205 4030 c10 -11 20 -20 23 -20 3 0 -3 9 -13 20 -10 11 -20 20
-23 20 -3 0 3 -9 13 -20z"/>
<path d="M11250 3970 c0 -5 5 -10 11 -10 5 0 7 5 4 10 -3 6 -8 10 -11 10 -2 0
-4 -4 -4 -10z"/>
<path d="M11347 3953 c5 -13 2 -15 -11 -10 -11 4 -15 3 -11 -4 4 -6 13 -8 21
-5 8 3 14 1 14 -4 0 -6 -5 -10 -12 -10 -7 0 3 -11 22 -25 39 -29 55 -31 64
-10 3 8 1 15 -5 15 -12 0 -39 25 -39 36 0 8 -31 33 -42 34 -4 0 -4 -8 -1 -17z"/>
<path d="M10730 3940 c0 -13 20 -13 40 0 12 8 9 10 -12 10 -16 0 -28 -4 -28
-10z"/>
<path d="M11124 3788 c1 -101 -2 -129 -17 -156 -10 -18 -16 -41 -14 -50 4 -14
5 -15 6 -1 0 9 12 21 25 27 17 7 25 22 30 50 3 22 12 43 18 45 10 4 10 6 1 6
-13 1 -6 31 9 42 5 3 13 22 18 42 8 39 -7 81 -37 105 -36 27 -40 16 -39 -110z"/>
<path d="M10918 3828 c-13 -10 -29 -18 -35 -18 -7 0 -13 -9 -13 -20 0 -11 -10
-54 -22 -95 -12 -41 -19 -77 -15 -81 16 -16 85 -20 103 -7 18 13 17 14 -8 9
-28 -5 -58 17 -39 29 13 7 71 -22 71 -35 0 -6 15 -16 33 -24 17 -8 25 -15 17
-15 -13 -1 -13 -3 -1 -10 14 -9 40 11 41 32 0 4 -36 24 -80 44 -57 25 -80 41
-78 52 1 9 -1 22 -5 29 -5 8 -2 12 8 12 9 0 29 10 45 21 23 17 36 20 67 14 21
-4 40 -5 43 -3 8 5 0 51 -11 64 -17 20 -96 21 -121 2z"/>
<path d="M10803 3786 c-33 -16 -28 -27 7 -15 17 6 30 15 30 20 0 11 -8 10 -37
-5z"/>
<path d="M10696 3769 c-18 -17 -18 -19 -2 -19 9 0 19 7 23 15 8 23 0 25 -21 4z"/>
<path d="M10645 3559 c-4 -6 -4 -13 -1 -16 8 -8 36 5 36 17 0 13 -27 13 -35
-1z"/>
<path d="M10540 3422 c0 -6 -8 -13 -17 -15 -16 -4 -16 -5 -1 -6 18 -1 34 16
24 26 -3 4 -6 1 -6 -5z"/>
<path d="M9990 3005 c-7 -9 -10 -18 -7 -21 3 -3 10 4 17 15 13 25 8 27 -10 6z"/>
<path d="M9671 2444 c0 -11 3 -14 6 -6 3 7 2 16 -1 19 -3 4 -6 -2 -5 -13z"/>
<path d="M7960 4321 c0 -5 7 -15 17 -22 15 -13 15 -12 4 9 -12 23 -21 28 -21
13z"/>
<path d="M8016 4235 c4 -8 8 -15 10 -15 2 0 4 7 4 15 0 8 -4 15 -10 15 -5 0
-7 -7 -4 -15z"/>
<path d="M11065 3410 c3 -5 10 -10 16 -10 5 0 9 5 9 10 0 6 -7 10 -16 10 -8 0
-12 -4 -9 -10z"/>
<path d="M11123 3333 c9 -9 19 -14 23 -11 10 10 -6 28 -24 28 -15 0 -15 -1 1
-17z"/>
<path d="M11175 3310 c3 -5 10 -10 16 -10 5 0 9 5 9 10 0 6 -7 10 -16 10 -8 0
-12 -4 -9 -10z"/>
<path d="M10375 2719 c-4 -6 -5 -12 -2 -15 2 -3 7 2 10 11 7 17 1 20 -8 4z"/>
</g>
</svg>
