<?xml version="1.0" standalone="no"?>
<!DOCTYPE svg PUBLIC "-//W3C//DTD SVG 20010904//EN"
 "http://www.w3.org/TR/2001/REC-SVG-20010904/DTD/svg10.dtd">
<svg version="1.0" xmlns="http://www.w3.org/2000/svg"
 width="564.000000pt" height="564.000000pt" viewBox="0 0 564.000000 564.000000"
 preserveAspectRatio="xMidYMid meet">

<g transform="translate(0.000000,564.000000) scale(0.100000,-0.100000)"
fill="#000000" stroke="none">
<path d="M2995 5164 c-45 -12 -215 -33 -533 -64 -210 -20 -498 -109 -667 -205
-195 -111 -328 -308 -350 -520 l-7 -70 -78 -80 c-121 -126 -215 -249 -267
-352 l-48 -95 1 -137 c0 -75 6 -172 13 -216 20 -130 105 -458 131 -506 6 -11
2 -35 -12 -70 -30 -80 -40 -169 -28 -246 32 -196 119 -328 267 -403 38 -19 69
-38 71 -41 2 -4 34 -49 72 -100 39 -51 70 -95 70 -99 0 -3 10 -17 22 -29 l21
-24 -62 -221 c-35 -121 -74 -256 -88 -298 l-25 -77 20 -33 c27 -43 210 -225
287 -284 311 -240 686 -384 999 -384 98 0 241 25 296 53 l45 22 41 258 c22
141 43 260 46 263 3 3 37 10 74 15 171 24 240 69 393 259 166 205 266 380 311
544 26 92 67 337 76 449 4 48 10 90 15 93 4 2 34 9 65 15 148 27 235 90 266
189 9 30 24 116 33 192 29 242 26 246 -171 254 -200 8 -198 6 -134 101 21 33
51 96 66 141 26 77 28 81 53 76 41 -8 58 20 77 126 24 134 21 304 -5 405 -47
180 -185 399 -373 591 l-99 101 36 72 c21 40 39 90 42 111 5 33 2 40 -21 55
-14 10 -33 15 -41 11 -8 -3 -68 -18 -133 -33 -107 -26 -134 -28 -307 -28 -140
1 -217 5 -290 19 -55 10 -103 20 -107 23 -4 2 4 21 18 43 33 50 42 110 19 133
-19 20 -33 20 -100 1z m-405 -1171 c-62 -117 -180 -295 -250 -378 -92 -110
-108 -135 -103 -155 7 -28 33 -32 118 -21 259 36 517 108 680 189 144 71 287
187 415 335 41 47 76 85 78 83 6 -7 -50 -142 -89 -213 -39 -71 -40 -75 -25
-98 25 -38 60 -32 148 26 78 51 180 151 228 222 14 20 27 37 30 37 3 0 12 -12
21 -28 9 -15 33 -54 53 -87 67 -110 104 -280 122 -562 l7 -101 -155 0 c-146 0
-160 -2 -247 -31 -87 -29 -95 -30 -159 -19 -54 9 -76 8 -117 -4 -47 -13 -53
-13 -100 8 -145 66 -351 83 -730 59 -292 -18 -415 -31 -462 -50 -37 -16 -49
-46 -39 -103 15 -83 88 -358 101 -378 26 -40 108 -115 148 -136 117 -59 269
-88 468 -88 212 0 372 35 449 99 20 16 48 53 62 82 28 59 63 204 74 311 9 90
19 102 85 102 86 1 89 -1 89 -91 0 -66 -2 -74 -13 -59 -16 21 -55 18 -70 -6
-17 -27 8 -84 119 -270 123 -204 129 -227 66 -287 -21 -20 -51 -44 -65 -54
-32 -21 -34 -47 -7 -72 24 -22 52 -16 107 24 70 51 97 95 101 166 3 44 -1 71
-12 93 -9 17 -16 34 -16 38 0 3 24 4 53 0 28 -3 94 -7 145 -8 l92 -2 0 -40 c0
-51 -33 -285 -55 -386 -43 -208 -128 -368 -316 -601 -148 -183 -196 -209 -427
-230 -215 -20 -448 14 -562 80 -36 21 -99 58 -140 81 -403 230 -456 286 -560
590 -24 69 -51 133 -61 144 -15 16 -31 18 -111 17 -209 -4 -386 87 -458 233
-90 182 -65 388 53 445 93 45 167 14 295 -127 208 -228 224 -240 263 -201 16
16 20 28 15 53 -63 309 11 810 170 1156 36 76 94 174 100 167 2 -2 -18 -80
-46 -173 -27 -93 -50 -178 -50 -189 0 -28 19 -45 50 -45 31 0 44 13 95 99 69
116 186 264 287 365 54 54 102 96 105 93 3 -3 -18 -50 -47 -104z m351 -833
c133 -10 255 -33 284 -54 16 -12 15 -22 -16 -171 -41 -196 -66 -250 -130 -282
-141 -69 -532 -70 -714 -2 -30 11 -77 38 -104 59 -41 32 -52 49 -70 102 -23
72 -81 301 -77 305 11 12 468 49 636 51 36 1 122 -3 191 -8z m1084 -25 c88 -8
192 -15 231 -15 106 0 137 -8 130 -34 -2 -12 -12 -70 -21 -131 -9 -60 -20
-127 -26 -149 -21 -79 -101 -120 -264 -134 -88 -8 -314 -1 -395 13 -38 6 -41
9 -55 58 -19 65 -47 276 -43 325 3 34 6 37 48 50 110 32 188 36 395 17z
m-2073 -1380 c45 -72 175 -186 288 -255 91 -55 278 -159 374 -207 103 -52 218
-78 394 -89 93 -6 112 -10 112 -23 0 -45 -65 -418 -75 -429 -23 -25 -173 -45
-295 -39 -277 15 -572 131 -850 336 -76 55 -264 232 -281 262 -6 12 21 119 87
345 52 181 99 344 105 363 11 33 11 33 63 -95 29 -71 64 -147 78 -169z"/>
<path d="M2743 3490 c-56 -12 -124 -42 -142 -63 -17 -22 -7 -64 18 -72 10 -3
53 6 94 20 88 29 114 31 164 10 20 -9 44 -13 55 -9 19 6 34 45 25 68 -15 39
-131 63 -214 46z"/>
<path d="M3745 3474 c-60 -19 -85 -39 -85 -69 0 -46 32 -55 111 -29 29 10 62
14 81 10 105 -19 106 -19 118 3 6 12 8 31 5 41 -15 48 -141 72 -230 44z"/>
<path d="M1378 2834 c-69 -37 -94 -179 -47 -265 18 -33 37 -51 78 -71 30 -16
68 -28 84 -28 22 0 44 -15 94 -62 62 -60 67 -63 115 -63 43 0 53 4 79 33 58
64 36 134 -79 255 -39 40 -62 46 -86 21 -24 -24 -19 -48 19 -94 52 -62 46
-110 -6 -54 -28 31 -94 63 -127 64 -32 0 -81 30 -88 53 -15 49 -3 121 22 131
20 8 71 -19 84 -45 9 -15 19 -19 43 -17 28 3 32 7 35 34 8 83 -136 154 -220
108z"/>
<path d="M3347 2073 c-64 -35 -209 -43 -319 -19 -41 9 -82 14 -91 10 -19 -7
-32 -46 -24 -68 16 -41 258 -70 379 -46 119 23 191 81 161 129 -15 25 -53 22
-106 -6z"/>
<path d="M2756 3079 c-35 -27 -60 -115 -51 -177 7 -48 49 -102 80 -102 31 0
72 30 89 64 66 139 -18 293 -118 215z"/>
<path d="M3767 3089 c-53 -31 -76 -183 -38 -246 25 -40 71 -52 107 -28 55 36
81 155 50 230 -21 51 -74 70 -119 44z"/>
<path d="M4020 2959 c0 -63 -3 -144 -7 -181 l-6 -68 50 0 50 0 7 61 c3 34 6
113 6 175 0 105 -2 114 -19 114 -10 0 -33 3 -50 6 l-31 7 0 -114z"/>
</g>
</svg>
