<?xml version="1.0" standalone="no"?>
<!DOCTYPE svg PUBLIC "-//W3C//DTD SVG 20010904//EN"
 "http://www.w3.org/TR/2001/REC-SVG-20010904/DTD/svg10.dtd">
<svg version="1.0" xmlns="http://www.w3.org/2000/svg"
 width="736.000000pt" height="736.000000pt" viewBox="0 0 736.000000 736.000000"
 preserveAspectRatio="xMidYMid meet">

<g transform="translate(0.000000,736.000000) scale(0.100000,-0.100000)"
fill="#000000" stroke="none">
<path d="M3400 6776 c-41 -8 -127 -22 -190 -31 -63 -10 -155 -28 -205 -42 -49
-13 -103 -28 -120 -32 -91 -25 -286 -134 -390 -219 -181 -147 -287 -273 -387
-456 -5 -10 -18 -33 -27 -50 -20 -36 -165 -366 -193 -441 -40 -103 -113 -347
-143 -477 -8 -38 -22 -98 -31 -135 -8 -38 -24 -99 -34 -138 -27 -102 -66 -336
-75 -455 -4 -41 -12 -124 -20 -185 -18 -144 -33 -528 -40 -1055 -4 -266 -12
-468 -20 -540 -23 -188 -35 -272 -45 -330 -5 -30 -17 -100 -25 -155 -31 -192
-60 -313 -102 -428 -29 -78 -26 -102 17 -150 31 -36 108 -67 164 -67 61 0 160
31 286 89 47 21 145 95 198 148 61 61 89 73 215 87 134 16 175 34 244 109 47
52 123 188 123 221 0 27 20 28 41 2 11 -14 61 -60 112 -102 51 -42 97 -82 102
-88 6 -7 51 -43 100 -81 50 -38 95 -73 100 -78 22 -18 236 -132 334 -178 192
-91 323 -121 456 -104 48 6 63 13 96 46 65 65 158 76 239 29 75 -44 151 -66
275 -79 98 -11 132 -10 296 9 176 21 190 21 285 6 118 -19 154 -29 344 -96
282 -101 290 -103 445 -104 137 -1 141 0 193 28 55 31 122 110 122 144 0 10
-6 38 -14 63 -46 149 -81 369 -131 829 -9 80 -22 197 -30 260 -8 63 -19 174
-25 245 -6 72 -13 150 -16 175 -3 25 -12 248 -20 495 -24 732 -35 903 -76
1175 -22 151 -56 339 -62 349 -3 3 -7 26 -11 50 -3 24 -12 60 -19 80 -7 20
-21 61 -31 91 -45 141 -177 425 -246 528 -16 24 -29 45 -29 47 0 5 -103 153
-119 172 -6 7 -11 15 -11 19 0 6 -75 105 -129 169 -49 58 -197 200 -264 255
-38 30 -75 61 -82 68 -7 6 -16 12 -19 12 -2 0 -42 25 -88 56 -111 75 -230 130
-361 169 -26 8 -71 21 -100 30 -107 32 -250 46 -517 50 -197 3 -284 1 -340 -9z
m1293 -869 c26 -23 69 -72 95 -108 26 -36 66 -91 90 -122 23 -31 74 -109 113
-174 39 -65 79 -129 89 -143 9 -14 41 -70 70 -125 146 -275 309 -465 400 -465
10 0 21 -4 24 -9 11 -16 7 -561 -4 -678 -22 -231 -51 -386 -105 -563 -17 -58
-40 -132 -49 -165 -49 -171 -166 -432 -251 -559 -51 -77 -183 -207 -301 -297
-191 -145 -326 -209 -439 -209 -65 0 -253 59 -408 129 -38 17 -73 31 -78 31
-17 0 -322 153 -339 170 -3 3 -25 18 -50 34 -38 25 -82 57 -194 146 -76 60
-100 88 -222 255 -25 35 -84 127 -84 131 0 16 -72 113 -88 118 -10 4 -50 -7
-92 -24 -108 -45 -181 -42 -286 9 -141 69 -256 201 -354 406 -44 93 -64 150
-81 230 -27 133 -29 157 -13 233 19 91 37 131 90 202 45 60 76 79 170 105 57
16 64 16 125 -1 55 -16 73 -27 133 -86 38 -38 74 -78 80 -91 6 -12 21 -26 34
-32 15 -7 20 -15 16 -28 -17 -55 24 -88 147 -118 98 -23 169 -24 257 -3 82 19
222 78 282 118 54 36 217 172 227 190 25 42 85 99 107 101 14 2 61 17 105 34
75 29 89 31 210 31 l131 0 6 25 c5 19 1 31 -16 45 -20 18 -38 20 -150 20 -70
0 -141 -5 -159 -11 -18 -6 -34 -10 -35 -8 -4 4 62 109 87 139 31 39 67 89 67
95 0 3 10 22 23 43 13 20 41 69 61 107 21 39 46 79 56 90 20 23 120 189 120
199 0 3 11 23 24 44 53 84 136 234 136 245 0 7 20 53 43 102 24 50 59 123 77
163 19 39 39 72 44 72 6 0 33 -19 59 -43z m-865 -1169 c-61 -107 -227 -287
-363 -392 -147 -114 -369 -181 -485 -146 -23 6 -22 8 15 14 85 15 183 50 277
97 141 71 363 243 509 394 29 30 54 55 56 55 2 0 -2 -10 -9 -22z m-860 -1606
c48 -84 49 -86 144 -212 47 -63 99 -127 115 -141 70 -66 332 -259 350 -259 4
0 14 -6 22 -14 16 -14 95 -55 219 -112 61 -28 63 -30 57 -59 -15 -66 -17 -459
-4 -545 18 -111 18 -245 1 -262 -9 -9 -43 -13 -110 -12 -94 0 -160 14 -237 49
-84 38 -226 108 -275 136 -30 17 -73 41 -95 52 -42 23 -104 69 -171 127 -22
19 -71 60 -108 90 -106 85 -195 170 -201 191 -4 11 7 77 24 147 17 70 37 163
45 207 48 255 86 492 86 529 0 57 21 122 43 133 46 22 61 15 95 -45z"/>
<path d="M5073 4623 c-26 -13 -33 -23 -33 -45 0 -38 30 -49 98 -36 33 7 81 7
136 1 100 -10 126 -4 126 31 0 43 -47 59 -180 63 -93 2 -121 0 -147 -14z"/>
<path d="M4807 4444 c-24 -49 -32 -143 -18 -199 12 -47 34 -83 131 -220 27
-38 61 -91 74 -116 34 -65 67 -122 76 -134 10 -14 40 -127 40 -152 0 -22 -96
-113 -119 -113 -6 0 -11 -4 -11 -9 0 -5 -10 -13 -22 -16 -75 -23 -93 -115 -23
-115 32 0 165 86 218 142 l49 51 -4 81 c-5 95 -27 156 -112 303 -70 122 -77
132 -99 157 -102 116 -126 179 -104 275 19 82 14 101 -27 101 -27 0 -35 -6
-49 -36z"/>
<path d="M2414 4301 c-207 -94 -164 -579 63 -704 61 -34 130 -10 157 54 l11
27 69 -64 c72 -67 108 -82 165 -69 68 15 95 138 49 227 -13 24 -64 84 -114
133 -50 50 -99 105 -108 123 -22 42 -70 46 -88 7 -18 -40 14 -94 113 -188 95
-90 132 -143 127 -178 -6 -44 -31 -31 -123 65 -51 53 -102 97 -112 98 -52 4
-51 5 -79 -129 -6 -30 -12 -29 -55 10 -91 81 -136 283 -93 413 23 67 48 92
100 100 62 9 83 1 138 -51 44 -43 49 -45 69 -32 50 33 23 87 -72 148 -38 25
-55 29 -110 29 -43 0 -81 -7 -107 -19z"/>
<path d="M4005 4198 c-27 -15 -41 -35 -65 -87 -63 -138 35 -317 143 -260 34
19 54 50 71 110 20 70 20 98 0 151 -30 78 -96 116 -149 86z"/>
<path d="M5225 4195 c-62 -26 -86 -76 -86 -177 -1 -163 115 -235 194 -122 52
75 46 225 -11 277 -31 28 -65 36 -97 22z"/>
<path d="M4666 3065 c-49 -43 -97 -51 -211 -35 -95 13 -115 7 -115 -36 0 -42
49 -58 180 -59 108 0 118 2 155 26 77 51 95 95 50 125 -18 12 -25 10 -59 -21z"/>
</g>
</svg>
