<?xml version="1.0" standalone="no"?>
<!DOCTYPE svg PUBLIC "-//W3C//DTD SVG 20010904//EN"
 "http://www.w3.org/TR/2001/REC-SVG-20010904/DTD/svg10.dtd">
<svg version="1.0" xmlns="http://www.w3.org/2000/svg"
 width="564.000000pt" height="564.000000pt" viewBox="0 0 564.000000 564.000000"
 preserveAspectRatio="xMidYMid meet">

<g transform="translate(0.000000,564.000000) scale(0.100000,-0.100000)"
fill="#000000" stroke="none">
<path d="M2473 4851 c-140 -23 -376 -125 -478 -208 -66 -53 -161 -167 -287
-343 -132 -183 -308 -468 -308 -498 0 -8 17 -40 37 -69 l37 -54 -27 -77 c-15
-42 -27 -82 -27 -89 0 -6 21 -36 46 -67 l46 -57 -13 -47 c-11 -45 -10 -52 25
-139 20 -50 36 -93 36 -95 0 -3 -18 -10 -40 -17 -57 -17 -103 -67 -126 -137
-39 -122 -16 -339 55 -514 62 -151 137 -226 276 -274 38 -13 71 -29 73 -34 2
-6 -17 -183 -42 -395 -26 -212 -46 -410 -46 -440 0 -54 1 -55 63 -113 171
-159 457 -296 737 -355 135 -28 342 -31 443 -6 86 21 167 61 204 99 25 26 28
38 32 109 3 87 -3 80 80 93 112 19 270 149 378 311 78 118 181 292 225 380 93
184 168 505 168 717 0 54 3 61 40 98 42 42 87 124 113 205 17 55 47 234 47
283 0 40 -22 54 -118 77 l-73 17 3 122 c3 99 9 137 32 211 22 71 29 116 33
212 l6 123 -39 35 -38 35 17 35 c22 46 22 88 0 108 -10 8 -40 18 -68 22 -80
11 -86 14 -75 35 16 30 11 98 -10 140 -42 82 -241 263 -439 399 -84 57 -116
64 -133 26 -6 -14 -15 -25 -20 -25 -5 0 -39 15 -76 34 -170 85 -338 124 -564
131 -84 2 -177 0 -205 -4z m396 -697 c125 -67 186 -101 275 -152 68 -39 82
-44 105 -35 22 9 348 136 418 164 19 7 32 -3 99 -79 128 -146 169 -254 184
-487 5 -77 10 -183 10 -235 l0 -95 -177 -1 c-159 0 -192 -3 -308 -29 -96 -22
-163 -30 -256 -33 -121 -3 -129 -2 -230 32 -181 60 -257 71 -504 71 -204 0
-230 -2 -350 -29 -71 -15 -138 -32 -147 -37 -29 -16 -25 -104 6 -132 17 -16
26 -41 35 -97 26 -158 63 -250 134 -327 52 -56 111 -86 211 -107 153 -31 344
-17 452 35 105 50 160 130 253 374 l46 120 44 0 c41 0 45 -3 53 -30 5 -16 6
-52 3 -78 -5 -40 -1 -57 24 -105 83 -163 131 -270 131 -296 0 -21 -14 -43 -55
-85 -43 -42 -55 -61 -53 -81 2 -20 9 -26 36 -28 27 -3 40 4 86 51 36 35 59 69
67 96 11 38 15 42 38 37 122 -27 362 -33 430 -11 l24 8 -7 -98 c-8 -118 -45
-311 -79 -415 -23 -70 -27 -75 -56 -78 -38 -4 -48 -30 -26 -72 17 -33 11 -39
-16 -14 -14 12 -22 13 -38 4 -25 -13 -27 -38 -5 -83 12 -26 14 -39 6 -53 -10
-17 -12 -15 -27 19 -23 56 -51 80 -75 67 -27 -15 -25 -39 10 -122 l30 -71 -42
-68 c-23 -38 -45 -65 -49 -61 -3 4 -13 28 -23 54 -19 51 -46 68 -72 47 -18
-15 -16 -35 15 -141 l19 -66 -71 -69 -72 -68 -5 117 c-5 126 -13 145 -54 134
-23 -6 -26 -12 -27 -54 -1 -26 -4 -92 -8 -147 -5 -87 -8 -100 -25 -103 -10 -2
-23 3 -28 12 -13 23 -59 21 -65 -4 -4 -16 -14 -20 -47 -20 -83 0 -112 10 -123
41 -12 32 -42 39 -63 14 -15 -18 -40 -20 -40 -2 0 6 9 42 19 79 20 71 19 103
-6 112 -30 12 -50 -13 -73 -91 -12 -43 -24 -79 -25 -81 -1 -1 -16 3 -33 9 -24
8 -32 17 -32 34 0 28 -34 43 -55 25 -10 -8 -19 -8 -34 0 -19 10 -20 13 -8 43
8 18 31 74 52 125 41 100 40 124 -3 130 -25 4 -32 -8 -93 -140 -24 -53 -48
-97 -53 -98 -5 0 -30 16 -56 36 l-48 37 25 66 c66 173 68 180 57 198 -6 10
-21 18 -34 18 -19 0 -30 -17 -73 -113 l-51 -113 -57 57 -58 57 26 46 c15 25
44 75 65 110 41 67 44 87 17 104 -28 17 -48 0 -108 -92 -42 -67 -61 -87 -69
-79 -8 8 -4 23 15 55 24 42 25 45 8 63 -24 27 -40 25 -65 -7 l-21 -28 -18 24
c-10 12 -25 38 -35 56 l-18 33 52 76 c58 84 61 116 11 116 -21 0 -36 -12 -65
-50 -21 -27 -42 -50 -46 -50 -9 0 -50 92 -50 113 0 8 9 22 19 31 11 10 31 35
46 56 22 32 25 42 15 59 -17 32 -42 25 -90 -24 -24 -24 -47 -42 -51 -39 -4 2
-34 9 -66 15 -80 15 -175 62 -214 106 -81 93 -141 286 -142 458 -1 162 29 215
124 215 56 0 128 -44 160 -98 22 -37 46 -62 61 -62 4 0 16 9 26 20 l19 21 13
-31 c17 -42 44 -55 81 -40 39 17 44 42 28 147 -8 49 -14 167 -14 263 0 155 3
184 23 250 31 98 80 174 132 200 23 12 44 31 49 43 4 12 13 76 20 142 20 199
9 179 115 219 134 51 377 113 450 115 16 1 66 -19 115 -45z m-164 -974 c39 -5
120 -22 182 -36 l111 -26 9 -47 c8 -41 5 -55 -29 -134 -68 -161 -110 -229
-159 -259 -65 -40 -148 -58 -269 -58 -166 0 -284 36 -333 102 -58 78 -97 200
-113 359 l-6 66 58 12 c33 7 82 16 109 20 71 12 357 12 440 1z m1255 -45 c52
-8 115 -20 140 -28 40 -11 45 -16 48 -44 4 -41 -39 -215 -69 -278 l-24 -50 -5
138 c-5 145 -11 160 -55 155 -26 -4 -33 -54 -34 -239 l-1 -137 -32 -13 c-24
-10 -78 -14 -188 -14 -239 1 -283 21 -349 158 -53 112 -77 216 -62 268 13 44
21 47 186 73 55 8 111 17 125 19 61 10 233 6 320 -8z m-1949 -1320 c68 -103
219 -285 286 -342 212 -181 504 -325 705 -348 105 -12 99 -7 96 -83 l-3 -67
-58 -28 c-246 -122 -728 -31 -1073 202 -49 33 -108 77 -131 98 l-42 38 44 370
c25 204 45 375 45 380 0 6 20 -26 43 -70 24 -44 63 -111 88 -150z"/>
<path d="M2595 3493 c-126 -10 -280 -52 -302 -81 -21 -26 -15 -60 12 -78 24
-16 31 -16 107 1 177 38 373 12 494 -65 27 -17 51 -8 66 24 17 39 -13 107 -61
139 -67 44 -202 70 -316 60z"/>
<path d="M3508 3407 c-57 -16 -74 -30 -97 -76 -37 -75 -5 -92 125 -66 84 17
233 16 326 0 32 -6 38 -4 53 18 31 48 -4 74 -152 112 -89 22 -199 27 -255 12z"/>
<path d="M1532 2968 c-24 -24 -14 -57 21 -72 17 -7 43 -25 56 -39 l24 -26 -33
-28 c-64 -53 -78 -148 -36 -239 26 -56 59 -87 112 -104 19 -6 34 -15 34 -20 0
-4 13 -22 29 -39 34 -37 72 -40 102 -10 24 24 22 66 -5 121 -9 17 -16 37 -16
43 0 38 -63 42 -75 4 -9 -27 -39 -24 -76 9 -27 24 -33 37 -37 84 -4 47 -1 59
17 77 30 30 39 26 51 -21 14 -59 23 -72 49 -76 37 -6 54 17 46 63 -15 100
-104 223 -189 265 -49 23 -58 24 -74 8z"/>
<path d="M1887 2352 c-29 -31 -34 -51 -15 -70 19 -19 42 -14 71 16 29 31 34
51 15 70 -19 19 -42 14 -71 -16z"/>
<path d="M2018 2193 c-38 -41 -48 -65 -37 -85 16 -29 54 -22 83 16 31 41 33
71 7 86 -26 13 -24 14 -53 -17z"/>
<path d="M2771 2181 c-25 -34 -27 -64 -6 -81 22 -18 49 -4 72 38 16 27 19 42
12 55 -16 27 -55 21 -78 -12z"/>
<path d="M2991 2180 c-10 -17 -24 -48 -31 -70 -15 -46 -3 -70 37 -70 26 0 50
42 60 107 10 62 -34 84 -66 33z"/>
<path d="M2880 2180 c-41 -41 -40 -103 2 -108 23 -3 30 3 47 37 25 48 26 55 5
75 -20 21 -30 20 -54 -4z"/>
<path d="M3118 2179 c-10 -5 -25 -34 -34 -64 -14 -44 -15 -57 -4 -69 33 -41
75 -3 86 76 5 39 3 48 -13 56 -12 7 -25 7 -35 1z"/>
<path d="M3205 2174 c-10 -10 -14 -25 -11 -38 3 -12 6 -38 6 -58 0 -45 27 -66
61 -47 19 10 21 17 16 70 -7 84 -34 110 -72 73z"/>
<path d="M3317 2173 c-4 -3 -7 -28 -7 -55 0 -73 51 -112 79 -59 9 16 1 87 -13
109 -8 13 -48 16 -59 5z"/>
<path d="M3440 2155 c-11 -14 -9 -55 6 -107 7 -22 31 -30 56 -17 18 10 20 17
14 62 -4 28 -12 57 -18 64 -14 17 -43 16 -58 -2z"/>
<path d="M2666 2074 c-9 -8 -16 -21 -16 -27 0 -43 117 -125 233 -164 75 -25
96 -27 232 -27 158 0 217 12 239 47 20 31 -5 52 -55 49 -24 -1 -107 -4 -184
-5 -115 -2 -150 1 -195 17 -77 26 -120 49 -169 90 -48 40 -62 43 -85 20z"/>
<path d="M2121 1983 c-34 -41 -39 -74 -16 -93 21 -17 47 -5 78 40 35 49 33 84
-4 88 -21 2 -34 -6 -58 -35z"/>
<path d="M2228 1963 c-41 -48 -44 -87 -6 -99 38 -12 94 70 68 101 -17 20 -43
19 -62 -2z"/>
<path d="M2392 1823 c-21 -8 -104 -182 -97 -203 8 -25 42 -35 62 -19 14 12 93
172 93 190 0 10 -29 39 -38 38 -4 0 -13 -3 -20 -6z"/>
<path d="M3534 1705 c-10 -25 6 -85 27 -106 16 -16 23 -17 40 -9 30 17 33 34
10 84 -16 38 -25 46 -46 46 -14 0 -28 -7 -31 -15z"/>
<path d="M2546 1658 c-8 -13 -27 -52 -42 -87 -31 -72 -26 -96 22 -96 27 0 31
6 63 84 35 90 34 113 -7 119 -13 2 -26 -5 -36 -20z"/>
<path d="M2760 1548 c-11 -18 -30 -62 -41 -97 l-22 -65 23 -18 c20 -16 26 -17
43 -5 27 18 77 165 66 195 -12 33 -46 28 -69 -10z"/>
<path d="M2872 1538 c-28 -28 -1 -75 37 -63 11 3 23 15 26 26 12 38 -35 65
-63 37z"/>
<path d="M3400 1535 c-12 -15 -9 -101 6 -138 8 -22 32 -29 56 -16 18 10 20 17
14 67 -10 86 -44 125 -76 87z"/>
<path d="M2982 1527 c-19 -23 -52 -189 -41 -209 11 -21 52 -24 66 -5 6 6 17
52 26 102 15 82 15 91 0 107 -19 21 -36 23 -51 5z"/>
<path d="M3191 1497 c-17 -43 -24 -196 -11 -212 16 -19 44 -19 60 0 18 22 26
200 10 220 -18 22 -49 18 -59 -8z"/>
<path d="M3083 1468 c-15 -19 -46 -194 -38 -217 13 -40 70 -32 79 12 17 76 27
171 22 192 -7 28 -46 35 -63 13z"/>
<path d="M2647 3059 c-26 -16 -56 -81 -63 -142 -19 -161 103 -221 167 -82 35
76 19 211 -26 229 -24 9 -57 7 -78 -5z"/>
<path d="M3585 3014 c-29 -31 -50 -118 -41 -167 16 -86 90 -116 139 -57 50 59
55 182 10 233 -25 26 -79 22 -108 -9z"/>
</g>
</svg>
